<svg id="Capa_1" data-name="Capa 1" xmlns="http://www.w3.org/2000/svg" viewBox="0 0 1238 732.56"><defs><style>.cls-1{fill:#1d1d1b;fill-rule:evenodd;}</style></defs><path class="cls-1" d="M562.85,364c2.61-13.38,3.35-19.7,3.72-24.16,0-2.6,3.35-24.16,4.46-32,1.12-5.95,1.86-11.15,3-21.19.37-3.35.74-7.81,1.11-10s1.12-7.43,1.49-11.52c.74-8.55,4.46-33.82,5.57-40.14.75-4.46,1.49-11.52,2.23-17.1.38-1.86,3-7.8,6-13.38,3.35-5.58,5.95-10.78,5.95-11.89a4,4,0,0,1,1.11-2.61c1.49-1.85,8.18-18.58,11.15-28.62,4.46-13.75,2.6-26.76-4.09-30.1-6.31-3.35-11.89-2.23-16.72,2.6-14.5,14.87-24.16,38.65-35.31,88.09-5.58,26-6,26.39-14.5,40.51-14.12,23.42-48.32,74.34-76.19,113l-25.65,36.05-33.08.37c-30.48,0-34.2,0-42.37,3-13,4.09-22.68,13.38-24.17,22.3a18.71,18.71,0,0,0,.75,10.41c1.49,3.34,2.23,4.08,7.06,4.08,2.6,0,5.95-.74,7.06-1.85,2.23-1.86,23.42-8.92,29.37-9.67,10-1.11,34.56-2.23,34.56-1.48,0,2.6-23,32.33-53.52,69.5C341,523.48,341.7,522,344.3,526.45c1.49,3.72,2.6,4.09,5.95,3.35,2.23-.38,4.83-1.12,5.2-1.12,1.86,0,45-52.41,63.19-77.31L436.48,428l15.61.75c8.55.37,17.84,1.11,20.44,1.48s7.81,1.12,11.53,1.49c9.66,1.11,28.24,4.83,29.73,5.95.37.74-.74,14.86-2.6,31.59-7.81,70.25-9.66,99.61-8.18,118.94.75,10.78,1.49,12.27,5.21,16.36,2.23,2.6,4.83,5.2,5.94,6.31.75,1.12,4.84,1.86,10,2.23,7.06.38,8.55,0,8.92-2.6a5.39,5.39,0,0,1,3.34-3c1.86-.75,2.23-3.35,3-21.56.74-11.52,1.11-23,1.49-24.9.74-4.83,1.85-16.73,3-31.6.37-5.2,1.49-14.49,2.23-20.81.74-6.69,1.49-14.5,1.86-17.47,0-3.35.74-9.29,1.11-13.38,2.6-21.93,2.23-20.82,4.09-33.82.37-3.72,1.12-10,1.49-13.76.74-7.43,1.86-19.7,3-25.27.37-1.86.75-7.07,1.12-11.9.74-5.2,1.48-10,2.23-11.15.37-1.48.74-2.6.37-3S561.74,371.83,562.85,364Zm-24.16-78.8c-.37,1.86-1.85,9.3-3,16.36-10,62.07-13,81.77-15.24,95.15-2.6,20.44-2.6,20.44-7.8,19-8.92-2.61-41.26-9.3-49.44-10-4.46-.37-8.55-1.49-8.55-2.23s2.6-4.83,5.95-8.92c3-4.09,9.66-12.64,14.12-19.33,4.84-6.32,9.3-12.64,10.41-14.12,2.6-3.35,11.52-16.73,17.84-26,2.6-3.72,6.69-9.66,9.29-13,2.24-3.35,9.3-13.75,15.62-23S539.07,283.36,538.69,285.22Z"/><path class="cls-1" d="M1031.18,391.53c-3,0-1.86-2.61-15.24,17.09-15.61,23.42-25.27,36.8-30.85,42l-4.83,4.47-1.11-3.72c-.38-1.86-.75-4.09-.38-4.46.38-.74,0-1.49-.74-2.23-.74-.37-.74-1.49,0-3a39.52,39.52,0,0,0,.74-7.8,40.79,40.79,0,0,1,.75-11.52c.37-3.35,1.48-9.3,1.86-13s2.23-14.13,4.08-23.79c4.09-19.7,4.47-25.28,1.12-32-1.86-3.71-3.35-4.83-6.69-4.46a32.88,32.88,0,0,0-6.32.75c-4.09,1.86-30.48,34.56-36.42,45.34a12.42,12.42,0,0,1-3.35,4.84c-.74,1.11-3.35,4.83-5.58,8.54-20.07,34.2-34.94,55.76-38.65,55.76-1.49,0-5.2-7.06-6.32-11.15-.74-3.35-.37-20.82.37-27.51,0-2.23.75-8.55,1.12-14.12.74-5.58,1.48-10.78,1.86-11.52.37-.38.74-3,1.11-5.21.37-2.6,1.49-8.92,2.6-14.12,4.09-19.7,2.23-26-8.17-24.16-3,.37-5.95,1.48-6.7,2.6a2.79,2.79,0,0,1-2.6,1.86c-.74,0-3,2.23-4.46,4.46-3.71,5.57-11.52,20.81-11.52,22.3,0,.74-1.11,3.72-2.6,6.69-.45,1.2-1,2.76-1.61,4.41-.73,1.41-1.54,3-2.47,4.88-3,5.58-6.69,12.64-8.92,15.61-1.49,3-4.84,8.55-7.07,12.64s-4.46,8.55-5.2,9.66-3.72,5.95-6.32,10.41c-4.46,7.81-7.06,11.52-13.38,17.84-3.35,3-6.32,4.46-4.83,1.86.37-.37-.37-5.95-1.12-11.89-2.6-13-1.86-46.84,1.12-60.22.37-1.86,1.11-7.43,1.48-12.26,0-4.46.75-8.92,1.12-9.29a35.11,35.11,0,0,0,1.49-7.81c.37-3.72,1.11-7.81,1.48-9.66.38-3,1.49-9.67,2.61-17.47,3.71-27.51,5.2-35.31,6.68-36.43.75-.37,5.21-1.11,10.41-1.11,4.84,0,12.64-.38,17.47-.75s10-.74,11.15-.74c3.35,0,6.32-4.46,5.58-8.55-.74-4.46-7.06-5.95-26.76-5.58-14.5.38-17.1,0-17.1-1.85,0-.75,1.11-7.44,2.23-14.5,1.49-10.41,1.86-13.75.37-17.1-2.23-5.57-5.57-5.94-11.89-1.86-2.6,1.86-4.46,3.35-3.72,3.35s0,1.11-1.12,2.6c-1.48,1.86-6.69,15.61-7.06,20.07a101.15,101.15,0,0,1-3.34,9.67c-.75,2.23-2.61,3.34-5.21,3.34-14.49.37-38.65,5.21-40.88,7.44-2.23,3.34-1.86,6.69,1.11,9.29s7.81,2.6,24.53,0c16.36-2.23,15.24-2.6,14.5,1.86a53.17,53.17,0,0,0-1.49,6.31,6.31,6.31,0,0,1-.74,3.35c-.74.74-4.46,14.12-6,21.19-.37,1.48-1.11,4.83-1.86,7.06-.74,2.6-1.11,4.46-.74,4.46s0,1.11-.74,2.6a26.12,26.12,0,0,0-2.23,7.06c-.37,2.61-1.12,5.95-1.49,7.44a35.69,35.69,0,0,0-1.49,4.83c0,.73-2.16,9.75-4.35,19.25-1.4,1.69-3.18,4.09-5.68,7.51C734.21,441.7,708.19,470,700.75,470c-2.6,0-3.71-6.32-2.23-14.86,4.46-24.54,8.55-61.7,7.81-70.25C704.84,367,697.78,357.7,687,359.19c-9.66,1.49-24.9,15.61-47.2,43.49-7.81,9.66-26.77,35.68-30.48,42.37-1.12,1.49,0-7.81,2.23-20.82,14.12-84-13.38-68-22.3-49.8-7.44,17.1-10.41,27.88-16.36,52.41-9.29,36.42-12.26,61.7-8.92,71.73,2.23,5.95,8.92,13.38,14.13,14.87,7.43,2.23,13.75,1.49,17.47-1.49,1.85-1.85,8.17-12.63,14.12-24.16,14.12-27.87,24.16-45,36.8-63.18,10.78-15.61,23.79-32.71,28.62-36.8l3-2.6-1.86,6.69c-6.32,21.18-13.38,51.66-14.12,61.33-1.49,19.33,5.94,32.71,20.81,38.28,9.29,3.72,17.1,3.72,24.54.37,10.56-4.77,30.83-27.38,55.63-62.08-.31,3.17-.63,6.7-1,10.79-.75,8.92,1.48,29.36,3.34,32a4.71,4.71,0,0,1,1.49,2.6c1.11,4.83,8.92,16,10,14.49.75-.37.75.37.75,1.49a2.41,2.41,0,0,0,1.85,2.23,5.63,5.63,0,0,1,3.72,2.23c1.12,1.12,2.6,1.86,3.72,1.49s1.86-.37,1.86.37c0,.37,3.71,1.11,8.92,1.11,4.83,0,8.55-.37,8.55-1.11,0-.37,1.48-.74,3-.74a10.14,10.14,0,0,0,4.46-2.24c1.12-1.11,4.46-3.71,7.43-6.31s5.58-5.21,5.58-5.95,1.11-2.23,2.23-3.72c2.08-2.07,8.47-13.86,15.46-27.72.71,6.66,2.7,14.62,5,19.17,2.23,5.21,8.17,13.76,9.29,13.76a5.41,5.41,0,0,1,3,1.85c.75,1.12,3,2.23,4.83,2.61s3.72,1.48,4.09,2.23a2,2,0,0,0,2.6.74c.75-.37,1.49-.37,1.49.37,0,1.49,9.29,1.86,10,.37.37-.74,1.86-.74,3.34-.74C894,493,909.27,480,915.59,467.72a42.47,42.47,0,0,1,4.83-7.8c1.11-1.12,5.2-8.18,9.29-16.36s8.18-15.61,8.55-16.72c.74-.75,2.23-3.35,3.72-5.58,1.11-2.6,2.23-4.46,2.6-4.46s.37,7.06,0,15.24c-.37,15.61.74,22.67,4.83,27.51,1.12,1.11,1.49,2.23.74,2.23-1.11,0,6.32,7.06,10.41,10.4,5.58,4.09,20.82,5.58,24.9,2.23.75-1.11,2.24-1.48,2.61-.74.37.37.74,0,.74-.74a1.7,1.7,0,0,1,1.86-1.49c3.34,0,14.12-13.38,20.81-26.39,1.49-2.6,3-4.83,3.35-4.83s2.6-3.35,4.46-7.44,4.46-8.17,5.58-8.92c1.11-1.11,2.22-2.6,2.22-3.34,0-1.12,1.86-4.09,4.09-7.06s4.09-5.95,4.09-7.07c0-.74,1.12-2.6,2.6-3.71C1043.08,398.22,1037.5,391.53,1031.18,391.53Z"/><path class="cls-1" d="M192.36,332v35.87C214.78,369.84,210.08,327.93,192.36,332Z"/><path class="cls-1" d="M412.55,350.78c1.84-25.52-21.61-23.78-21.86-.2C388.68,373.29,413.5,373,412.55,350.78Z"/><path class="cls-1" d="M367.72,388.09h67.64L490.57,310H162.9v78.09H367.72Zm18.21-54.53c13.89-18.46,40.63-4.05,36.91,17.43-.13,12.7-8.32,24.21-22,23.51C379.37,375.64,375.92,348.09,385.93,333.56ZM183.17,374.5V325.43C228.32,318.51,229.24,381.39,183.17,374.5Zm97.27-42.83H261v17.17h16.32v6.54H261v12.78l19.49-.1v6.54H250.66V325.33h29.78Zm65.1,34.14,4.59,5.52c-45,19.25-45.4-59.13,0-45l-3.8,6.44C320.49,322.28,318.08,378.06,345.54,365.81Z"/><path class="cls-1" d="M927.53,202.8l.06,0-.07,0h0a17,17,0,0,0-6.95,5l0-.07c-.87.32-.52,1.47-1.17,1.94l0,0c-1.35,1.29-.42,3.74-2.2,4.8-1.27,3.37-2.33,6.75-1.07,10.32l0,0a8.48,8.48,0,0,1-.67,4,18.45,18.45,0,0,0-.12,3.48,4.09,4.09,0,0,0,.16.42c-.57.29-1.28-.43-1.79.3.29,1,.58,1.93.86,2.87a1,1,0,0,1,.36.91c.27.57.54,1.14.8,1.72l.87,2.91h-.07a2.16,2.16,0,0,0,.46.89v0l0,0,0,0c.11.31.29.57.42.86v0a9.52,9.52,0,0,0,.91,1.87l.06,0-.21,1.08a1.75,1.75,0,0,1,.34,1.51h0a2.46,2.46,0,0,0,.46.86v0a1.67,1.67,0,0,1,.53,1.39,1.44,1.44,0,0,1,.75,1.8.74.74,0,0,1,.05.55l.47.2c0,.23,0,.46-.07.69a.84.84,0,0,1,.39.88,2.4,2.4,0,0,1,.39.2l-.07,0a1.27,1.27,0,0,0,.06,1.28l0,0a4.29,4.29,0,0,0,.45.88h0a15.52,15.52,0,0,0,.91,2.32l0-.05a4,4,0,0,0,.4.9v0a4.2,4.2,0,0,1,.45.8l0,0a2.53,2.53,0,0,1,1,2.17c.15.28.3.55.46.82l.46.84.48.8a4.82,4.82,0,0,1,.5.27h0a3.2,3.2,0,0,0-.16.68l.55.78c.16.27.32.55.47.83l.42.87.48.82a1.37,1.37,0,0,1,1.08,1l.31.09.18,0a1,1,0,0,0,.14.15l-.09.52a1.45,1.45,0,0,1,.39,1.48l.45.83.42.87.46.83.48.83c.16.28.32.55.49.82a1.73,1.73,0,0,1,.43,1.46l.45.83.51.8,1.59,1.19h0a4.57,4.57,0,0,0,0,.64.79.79,0,0,1,.51.22l.57,0c.07.38.39.59.64.85a1.48,1.48,0,0,1,.54.17c.17.27.33.53.48.81h0a2.35,2.35,0,0,0,2.52.54l1.21.23c.45-.3,1-.07,1.46-.36h0a.8.8,0,0,0,.27-.51l.17.14.27-.1.66,0c.24-.17.5-.33.76-.48a2.23,2.23,0,0,1,.63,0,1.44,1.44,0,0,1,1.91.44h0l.28.08a1.63,1.63,0,0,0,.28.71l0,0a1.32,1.32,0,0,0,1.86.46l3.68.76c.91-.54,1.85.54,2.75-.17h-.07c.54-.23.61-.67.47-1.19l-.08,0h0a1.25,1.25,0,0,1,1.1.87c.81.41,1.91.12,2.48,1.12,1,.48,2.14-.43,3.16.08l2.2-.93a1.45,1.45,0,0,1,1.38-.49l.8-.5.78-.55.78-.55a.87.87,0,0,1,.78-.55c.58-.6,1.28-.46,2-.44l.84-.42a1.54,1.54,0,0,1,1.38-.48l.79-.52.79-.55a1.56,1.56,0,0,1,1.33-.52,3.18,3.18,0,0,0,.18-.6h.6l.84-.41c.66-.63,1.37-.3,2.07-.22a3.24,3.24,0,0,1,.17-.32,6.36,6.36,0,0,0,2-.7l0,0c.28-.17.53-.37.8-.54h0a4.45,4.45,0,0,1,1.55-1.16h0a.56.56,0,0,1,.75.16h.29l.26.13a2.59,2.59,0,0,0,1.89.3l-.06,0c.46-.25,1,0,1.45-.48l-.08.06c.53-.23.59-.81.82-1.26h.16a.83.83,0,0,1,.82-.48,1.61,1.61,0,0,1,1.38-.45,1.4,1.4,0,0,1,1.55-1.14l.78-.52a3.1,3.1,0,0,0,.08-.42,1.94,1.94,0,0,0,.29-.21A3.62,3.62,0,0,1,997,271l.21,0c0-.07,0-.14,0-.2l.1-.1a1.59,1.59,0,0,0,.63-.33l0,0c.3-.13.55-.35.83-.49l0,0c.23-.22.51-.38.73-.61h0l0,0v0a2.37,2.37,0,0,0,.78-.6l-.06,0c.54-.19.54-.92,1-1.18h0c.41-.36,1-.07,1.39-.53l-.08,0a.8.8,0,0,0,.32-1.3v0c-.05,0-.07-.1-.07-.28a.53.53,0,0,1,.28-.44h0a3.65,3.65,0,0,0,1.49-1.16,0,0,0,0,0,0,0l0,0,0,0c.49-.27.54-.9.92-1.25h0l0,0,0,0a2,2,0,0,0,.8-.6l-.06,0c.81-.37.48-1.48,1.13-1.95l0,0c.78-.41.47-1.51,1.13-2a.88.88,0,0,1,.23-.6l.7-.61,0,0c1-.84.43-2.45,1.4-3.33h0c.72-.64.61-1.58.82-2.41a2.65,2.65,0,0,0-.38-.05l.24-.19a1.57,1.57,0,0,1,.53,0l1.56-3.92h0l.53,0a12.16,12.16,0,0,0,1.78-4,2.2,2.2,0,0,1,1.46-1.71l.08-2.44a.91.91,0,0,0,.53-.46l.06-.19c0-3.41,1.89-6.71.83-10.18l.05.09a4.25,4.25,0,0,0-.39-.93v0a.38.38,0,0,0-.24-.31.49.49,0,0,1,0-.12c0-.79.68-1.61.05-2.39a.25.25,0,0,0,0,.07l0-.1,0,0c-.48-1.48-.35-3.13-1-4.57l0,.06c-.2-.47,0-1.11-.39-1.49,0,0,0,0,0,0l-.07-.11a.34.34,0,0,1,.06.06,1,1,0,0,0-.51-.87l.05.09a9.87,9.87,0,0,1-1.37-3.27l.07.1a1.14,1.14,0,0,0-.47-.9s0,0,0,.05l-.05-.08,0,0a1.3,1.3,0,0,0-.51-.85l.05.08c-.33-.58-.68-1.16-1-1.73l0,.07a2,2,0,0,0-.46-.92.06.06,0,0,0,0,0v0h0a7.06,7.06,0,0,0-.92-2.29.41.41,0,0,0,0,.09l-.06-.1h0c-.49-1-1.29-1.75-1.85-2.68l0,0c-.77-1.39-1.15-3.09-2.6-3.94l.05,0c-.07-.63-.8-.6-1-1.12h0a2.48,2.48,0,0,0-.6-.72.14.14,0,0,0,0,.06l-.06-.09,0,0c-.15-.57-.79-.58-1-1l0,0c-.25-.51-.85-.53-1.15-1l0,0c-.24-.52-.8-.58-1.17-.92l0,0,0-.06,0,0c-.23-.62-.85-.67-1.28-1a.3.3,0,0,1-.38-.24,1.67,1.67,0,0,0-.78-.73c-.18.06-.28,0-.33-.19-.35-.46-.92-.55-1.34-.89a.3.3,0,0,1-.4-.2c-.49-.67-1.41-.43-1.92-1a.33.33,0,0,1-.45-.2c-.52-.64-1.43-.46-2-1a.24.24,0,0,1-.38-.15c-.51-.72-1.44-.52-2-1.08-.17.09-.29,0-.35-.15-1.47-1.25-3.57-.57-5-1.76a.34.34,0,0,1-.47-.16.38.38,0,0,0-.64-.12,1.19,1.19,0,0,1-1.13-.2.66.66,0,0,1-.89-.19,2.84,2.84,0,0,1-1.75-.42,2.11,2.11,0,0,0-2.52-.47l0,0c-.62.36-1.09,0-1.59-.3l-.86-.22c-.31.14-.6.17-.78-.2h0a2.14,2.14,0,0,0-2.51-.52h0c-.6.38-1.06,0-1.52-.27a1.83,1.83,0,0,1-1.45-.32c-1.69.54-3-1.07-4.65-.78a2.68,2.68,0,0,0-.3.12l-.12-.21.07,0a2.19,2.19,0,0,1,.51-.1,1,1,0,0,0,.83-.1,1.22,1.22,0,0,0,.68-.43c.67-1.36-.76-3,.54-4.23a.05.05,0,0,1,0,0l.07,0,0,0c.62-.28.68-.7.26-1.23l0,.07c-.39-1.2.73-2.41.14-3.61l0-.06s0,0,0,.05c-.35-.7.36-1.56-.22-2.22a.11.11,0,0,1,0,.05l0-.08,0,0c-.13-.51.05-1.09-.27-1.55v0c-.44-.67.34-1.57-.26-2.21a.13.13,0,0,0,0,.06l0-.08,0,0c-.16-.7.13-1.62-.67-2l.06-1.62a2.09,2.09,0,0,1-.29-1.53,1.58,1.58,0,0,1-.32-1.53,1.69,1.69,0,0,1-.26-1.56,1.77,1.77,0,0,1-.34-1.5L964,155.63c.06-.65.12-1.3.17-1.95-.27-.4-.55-.79-.83-1.19l.15-1.84a1.82,1.82,0,0,1-.23-1.56l-.44-.22c0-.44.1-.88.14-1.33a6.09,6.09,0,0,1-.72-3,1.83,1.83,0,0,1-.37-1.49c-.12-.3-.23-.6-.34-.91a1.34,1.34,0,0,1-.51-1.39l-1.63-.69a1.7,1.7,0,0,0,.09-.54l-.5-.82a1.61,1.61,0,0,1-1.14-.93,1.32,1.32,0,0,1-1.19-.85,4.07,4.07,0,0,0-1.25,3.18c-.07.44-.13.88-.2,1.32.81,1,0,2-.06,2.94a3.83,3.83,0,0,0,.43.17l.33,0s0,0,0,0h0l-.32,0c-.11.68-.22,1.35-.34,2a.73.73,0,0,1,0,.63l.46.35h0c0,1.36,0,2.73-.07,4.1v0c.39.71-.29,1.55.14,2.25h0c.48.67-.3,1.56.25,2.21v0a8.17,8.17,0,0,1,.48,4.36,3.62,3.62,0,0,1,.24,2.16c.86.69.69,1.47.09,2.28a2.86,2.86,0,0,1,.26,2.11l0,0,0,.27c0,.67-.26,1.31-.2,2,.26,1-.13,2,.28,3l0-.05c.47.94-.58,2,.08,2.93a.13.13,0,0,0,0-.06l0,.08v0c.27.72-.32,1.52.09,2.23a.38.38,0,0,1,0,.49c-.07.09-.14.19-.22.28a1.89,1.89,0,0,0,.07.71c.06.23.11.46.17.7s0,.76.08,1.14a3.44,3.44,0,0,0,.16.8,4.1,4.1,0,0,0,.41.74,2.63,2.63,0,0,0,.64.56.84.84,0,0,0,.55.09l0,.06h0a2.66,2.66,0,0,0,.26,2.83l.31.07h.06a.94.94,0,0,0,.24.7v-.05c1,.05,1.51.87,2.28,1.27l1,.07a1.55,1.55,0,0,0,.07.23c1,.92,2.41.43,3.35,1.35l1.09.29c.29.48.84.55,1.24.85l-.05-.06.07.07h0c1.19,1.42,3.38.51,4.49,2.11,1.06.49,2.37.21,3.31,1.09h0l0,0,0,0c.56.94,1.79.42,2.4,1.22,0,0,0,0,0,0l0,.05h0c.51,1,1.76.42,2.34,1.22h0l0,0,0,0c.23.55.84.57,1.16,1l0,0c.8.93,1.95,1.32,2.85,2.1v0l0,0h0a1.24,1.24,0,0,0,.62.79l0-.06c.5,2.16,2.06,3.27,3.61,4.4l0,0,0,.06,0,0c3.19,5.12,5.16,10.89,6.94,16.75l0-.07c.35.7-.38,1.58.21,2.25a.07.07,0,0,0,0-.05l0,.07,0,0c.26.7-.35,1.51.14,2.19v0l0,.06s0,0,0,0c-.07,2.63-1.19,5.25-.35,7.9l0-.06c-.13,4.31.49,8.69-1.42,12.84h0c-1.73.91-2.13,2.84-3,4.44l.05,0c-3.44,4.41-8.24,6.56-12.7,9.25-5.92,3.56-11.92,6.77-18.91,5.6a3.3,3.3,0,0,0-3.28,1.16l-.09.2a2.08,2.08,0,0,0-.85-.07c-1.24.25-1.93-.32-2.5-1.46-1-2-1.87-2.54-4.45-3.31a7.79,7.79,0,0,1-1.63-1c.12-.89.45-1.79-.65-2.31-.55-.26-.93-.9-1.39-1.37l-2.53-1.32a16.66,16.66,0,0,0-1.94-3.92c-.38-.79-.71-1.45-.85-1.65s-.33-.57-.49-.87a2.61,2.61,0,0,0,0-.28c0-.2,0-.41-.09-.62a1.1,1.1,0,0,0-.06-.26c0-.15-.06-.3-.1-.44a3.2,3.2,0,0,0-.38-.79,1.87,1.87,0,0,0-.66-.53,2.84,2.84,0,0,0-.42-.09,10.16,10.16,0,0,0-1.49-2.58.11.11,0,0,1,0-.05,5.28,5.28,0,0,0-.14-1,5.08,5.08,0,0,0-.34-.92c-2.78-2.54-2.77-6.43-3.82-9.82-1.19-3.9-.34-7.31,1.71-10.72,1-1.71,2.79-2.57,3.74-4.3h0l0-.06,0,.05a1.26,1.26,0,0,0,.81-.55l0,0,.08-.06s0,0,0,0a1.37,1.37,0,0,0,.78-.56.05.05,0,0,1,0,0l.07-.05s0,0,0,0a1.45,1.45,0,0,0,.81-.55l0,0,0,0h0a7.84,7.84,0,0,0,2.18-1l0,0,.05,0h0c.45-.22,1,0,1.39-.46h0l.07,0,0,0c4.89-.56,9.34-3.11,14.1-4.26l-.08,0c.5-.12,1,.06,1.5-.33h0c1.14-.42,2.28.91,3.41-.15,1.21-.9,2.26,0,3.37.23a4.12,4.12,0,0,0,.8.06,4.45,4.45,0,0,1,2.78,1.29.86.86,0,0,1,.53.78,2.25,2.25,0,0,1,1.69,1.73,15.83,15.83,0,0,0,.66,1.86c.14,1.12.29,2.25.44,3.37-.11.11-.22.23-.32.35-1,1.93-.91,4.09-1.41,6.12a1.36,1.36,0,0,1-.25.62c-1,.88-.42,2.47-1.37,3.36l0,0c-1,1.19-2.88,1.66-2.91,3.75l-1.22.52a16.33,16.33,0,0,1-5,4.71,5,5,0,0,1-1.77,2c-.61.45-1.19.95-1.79,1.43h0a25.13,25.13,0,0,1-3.1-.66c-3.4-1.15-5.59-3.44-5.68-7.59l-.41-.87c.54-3.9,1.4-7.66,4.31-10.49l.77-.65h0a4.72,4.72,0,0,1,.73-.61l.06.06.78-.52h0a10.83,10.83,0,0,0,.91-.88c.72-.84.17-1.07-.5-1.22v0c-.25.17-.51.33-.77.49a2.61,2.61,0,0,1-.56,0,5,5,0,0,0-.22.65l-.72.61h0l-.07,0a.68.68,0,0,0-.76.46h0l0,0a2,2,0,0,0-.6-.12,4.61,4.61,0,0,0-.16.64,3.35,3.35,0,0,1-.54.08l-.75.54-2.76,2.83a1.83,1.83,0,0,1-.9,1.28,1.7,1.7,0,0,1-.91,1.26l-1.23,4.68h0c-1.26,2.25-1.74,4.47,0,6.61.46,1.84,1.68,3.16,2.6,4.69l.21,0,.18.14a2.18,2.18,0,0,0,.56.8s0,0,0,0l0,0,0,0a1.85,1.85,0,0,0,.49.85l0-.05,1.55,1.26.43.79a14.62,14.62,0,0,0,1.91,3.33h0a.88.88,0,0,0,.48.83h0a2.71,2.71,0,0,0,1.12,1.52v0a1.13,1.13,0,0,0,1,1.06h0a12.07,12.07,0,0,0,.8,1.46c.17.23.58.5.78.42,1.62-.66,3.46-.1,5-1.28a2.78,2.78,0,0,0,2.81-.82h0l2.63-.28a3.87,3.87,0,0,1,3-1.53c.92.32,1.78.46,2.27-.79h0c1,0,1.86-.51,2.85-.26a1.67,1.67,0,0,0,1.21-.27,35.4,35.4,0,0,0,7-6.71,2.27,2.27,0,0,0,.45-1.62c0-.58,0-1.15,0-1.73,1.54-.4,2.17-1.93,3.13-3,.23-.72.36-1.52,1.14-1.87q.67-3.39,1.37-6.8c-.63-1.18.14-2.61-.44-3.79a.9.9,0,0,0,.1-.68,4,4,0,0,0,.21-.67,1.62,1.62,0,0,1-.42-1.44l-.49-.25a2.93,2.93,0,0,0-.27-2.16h0c.07-.23.14-.47.2-.7a3.24,3.24,0,0,1-1-1.65l-.47-.83-.58-.17h0l-.45-.91h0c0-.19,0-.38.07-.58l-.56-.77a1.64,1.64,0,0,1-.41-1.48c-.94-1.06-1.21-2.66-2.39-3.53a3.32,3.32,0,0,0-1.35-1.83l-.69-.81h0c-.44-1.47-1.73-1.93-2.74-2.71h0a3.52,3.52,0,0,0-2.38-2,3.11,3.11,0,0,0-.42-.75c-1.76-1.59-4.33-.55-6.14-2l0,.06a6.12,6.12,0,0,0-1.39-1.52,17,17,0,0,0-1.76-1,1.84,1.84,0,0,0-.77-.17l-.39.1c-.54.36-.43-.52-.81-.47a8.32,8.32,0,0,1-.85-.13l-.92-.2c-2.81-.92-5.74-.75-8.65-.77a.55.55,0,0,1-.59-.08l-.34-.12a4.13,4.13,0,0,0-1-.18,2.91,2.91,0,0,0-.72.05.9.9,0,0,0-.5.48h0l0,0,0,0c-.31-.05-.62.15-.93.07a.7.7,0,0,0-.54.31l0,0-.05,0h0a4.25,4.25,0,0,0-1.12.43c-.76.51-1.6-.42-2.36.24l.06,0c-.46.27-1,0-1.44.48l0,0-.06,0h0c-.46.18-1,0-1.38.49h.06l-.08,0,0,0a3.23,3.23,0,0,0-.69.07,6.87,6.87,0,0,0-.75.19,12,12,0,0,1-1.82.65c-.61.21-1.33.16-1.71.92l0,0a4.58,4.58,0,0,0-2.23.93h0l-.06,0s0,0,0,0c-2,.86-4.53.62-5.94,3h0l0,0h0C928.5,202.53,927.91,202.27,927.53,202.8Zm31.24-38.45a.47.47,0,0,1,.33.11Zm21.53,112.3-.11.09a.93.93,0,0,1-.05-.1ZM966,275.07l0,0h0v0Zm-20.21-.75h0l0,0h0ZM961,243.17l-.06-.18H961A1.1,1.1,0,0,0,961,243.17Zm0-.17h0Zm22.3-7.27-.06.29v0A2.86,2.86,0,0,1,983.31,235.73Z"/><path class="cls-1" d="M862.18,239.36l.42.13a1.87,1.87,0,0,0,.84-.1,4.44,4.44,0,0,0,.76-.37,2.45,2.45,0,0,1,1.94-.21.79.79,0,0,0,.43-.28l.16.06.32.07.72-.63a.8.8,0,0,1,.77-.59c1.22-.79,2.28-2,3.82-1.94a2.57,2.57,0,0,1,1.94-.45,1.67,1.67,0,0,1,2.26-.84c.06-.12.11-.24.16-.37l.19,0c.38-.08.77-.06,1.16-.14a2.5,2.5,0,0,0,.71-.36h0c.61-.6,1.42.26,2-.41l0,0,.06,0h0c.46-.19,1,0,1.4-.43l-.05,0,.06,0h0c.64-.33,1.38.33,2-.27h0l.09-.05-.06,0a2.63,2.63,0,0,0,.82-.41l.19-.14.21.08a5.76,5.76,0,0,0,2.43-.88h0c.44-.28,1,0,1.43-.43h0l0,0h0c.45-.25,1-.06,1.42-.36h0c.92-.35,1.94-.26,2.81-.83l.2-.11.21.09a.59.59,0,0,0,.59-.3c.3.26.63.25,1-.07h0l.06,0h0c.46-.19,1,0,1.42-.29l.28-.08.26.11c.42-.14.84-.22,1.26-.33l.42,0,3.26.76a1.67,1.67,0,0,0,1.92-.95,2.89,2.89,0,0,1,1.86-.3c.92.3.88,1.4,1.45,1.9a5.19,5.19,0,0,0,2.42-4.05c-.07-1.69-.15-3.38-.23-5.07-.16-.1-.32-.2-.49-.29-.35-2-1.13-3.46-3.27-3.42-1.31.53-2.72.22-4,.68h0a.44.44,0,0,0-.27.05.18.18,0,0,0-.08.16,1.42,1.42,0,0,0-.64-.24,3.16,3.16,0,0,0-.6.11c-.09-.12-.25-.12-.48,0a.45.45,0,0,1-.54,0,1.67,1.67,0,0,0-.12.23h-.15a.44.44,0,0,1-.86-.19,1.54,1.54,0,0,0-.82-.15,2.4,2.4,0,0,1-2.31.22,6.87,6.87,0,0,0-.78-.08c-.39,0-.77,0-1.16.09a5.07,5.07,0,0,0-.77.1c-.52.09-1,.14-1.55.22a3,3,0,0,0-.78.22,3.11,3.11,0,0,0-.92.78h0l0,0,0,0c-.48.17-1,0-1.48.29a.29.29,0,0,1-.44,0,3.25,3.25,0,0,1-1.55-.13,5.29,5.29,0,0,0-.8.08c-1.23.16-2.39.74-3.62.89a5.34,5.34,0,0,0-.81.21c-.67.64-1.61,0-2.28.66h0l-.06,0,0,0a1.9,1.9,0,0,1-1.08-.09,1.91,1.91,0,0,0-.74.14c-.46.21-.91.43-1.37.62-.23.1-.46.2-.68.32a6.31,6.31,0,0,0-.65.4l-.31.21c-.22.14-.43.28-.64.44a3.23,3.23,0,0,0-.58.53c-.37.42-.95.48-1.3.92l.07-.06a1.37,1.37,0,0,0-.86.52.05.05,0,0,0,0,0l-.06,0,0,0a1.67,1.67,0,0,0-.79.61l.08,0a37.4,37.4,0,0,1-3.89,2.9l0-.09a26.06,26.06,0,0,1-3.46,3.58l0,0L862,232l.06-.05c-.55.21-.62.83-.93,1.25h0l0,0,0,0a1.49,1.49,0,0,0-.85.53l.05,0a1.31,1.31,0,0,0-.58.72C859,237,860.49,238.24,862.18,239.36Z"/><path class="cls-1" d="M978.73,295.81v0a0,0,0,0,0,0,0Z"/><path class="cls-1" d="M978.13,286.31v0a0,0,0,0,1,0,0Z"/><path class="cls-1" d="M967.86,173.87h0Z"/><path class="cls-1" d="M914,296.26l0,0s0,0-.05,0Z"/><path class="cls-1" d="M922.3,288l0,0,.06-.05,0,0a2,2,0,0,0,.81-.52h0l0,0h0a9.27,9.27,0,0,0,2.16-1h0l.06,0,0,0c.46-.21,1.06.05,1.42-.53l-.12.1c.61-1.16,1.94-1.56,2.49-2.78a3,3,0,0,0,.13-.84,5.16,5.16,0,0,0-.25-1.18,4.26,4.26,0,0,0-.28-.7c-.13-.21-.24-.42-.35-.64a2.14,2.14,0,0,0-.43-.55,5.36,5.36,0,0,1-.69-.82c-.07-.11-.13-.22-.2-.32a5,5,0,0,0-.43-.66,3.24,3.24,0,0,0-.59-.58c-1.87-1.07-2.92-.15-3.55,1.82l0,0,0,0v0c-.65.33-.45,1.39-1.19,1.63a2.58,2.58,0,0,0-.58.65,6.19,6.19,0,0,1-1.2,2.37l-.39.19a2.83,2.83,0,0,0-.72.48,4.23,4.23,0,0,0-.54.72,17,17,0,0,1-2.23,3.25l-.29.31c-.2.21-.4.42-.58.65a2.18,2.18,0,0,0-.32.81,6.36,6.36,0,0,1-.75,2.45.25.25,0,0,1-.14.38c-.71.5-.48,1.55-1.08,2.12-.08.32-.15.65-.23,1,.38.95,1,.95,1.77.53.48-.22.51-.9,1-1.14h0a4.28,4.28,0,0,0,.75-.66l-.06,0a8.47,8.47,0,0,0,1.73-1.85h0l0,0h0c.47-.2,1,0,1.44-.47l-.09.06a5.77,5.77,0,0,0,1.72-1.79h0l.06-.06,0,.05c.82-.32.47-1.47,1.15-1.89l0,0A2.28,2.28,0,0,0,922.3,288Z"/><path class="cls-1" d="M878.58,301.67h0s0,0,0,0Z"/><path class="cls-1" d="M1036.32,165.42l0,0h0Z"/><path class="cls-1" d="M966.82,295.07c-.14-.16-.26-.33-.39-.5s0-.35,0-.53l-.53-.27-.15-.22a1.75,1.75,0,0,0-.23-.24c.1-.52-.25-.79-.59-1.07h0l0-.05,0,0c-.24-.61-.87-.65-1.27-1a.34.34,0,0,1-.41-.19c-.27-.46-.85-.47-1.13-.9h0l0,0,0,0c-.29-.56-.83-.55-1.31-.67a2,2,0,0,0-.77,0,2.11,2.11,0,0,0-.67.44,1.71,1.71,0,0,0-.36.74,7.37,7.37,0,0,1-.13.82,2.27,2.27,0,0,0,0,.82.74.74,0,0,0,.2.16c-.06.18-.11.37-.16.57.16,1.41-.61,2.81-.22,4.23a.33.33,0,0,1-.09.46,2.87,2.87,0,0,1-.31,2.05,2.38,2.38,0,0,0-.12.84c0,.69.44,1.29.33,2a5.63,5.63,0,0,0,0,.82,11.36,11.36,0,0,0,0,1.65,7.74,7.74,0,0,0,.07.83c.3.42.27,1,.6,1.42h0l0,.05,0,0a1.46,1.46,0,0,0,1.14,1.45,1.44,1.44,0,0,0,.77-.06,4.43,4.43,0,0,0,.7-.41,3,3,0,0,0,.59-.59c.24-.32.49-.63.71-1l0,0,.06-.05,0,0a.71.71,0,0,0,.21-1.25l0,.06a2.26,2.26,0,0,1,.56-2.16h0c.64-.49.46-1.45,1-2,0,0,0,0,0,0l.05-.06,0,0c.58-.29.67-1,1-1.47l0-.17c-.15-1.07.77-1.52,1.18-2.26h0C968.29,296.57,967.17,295.86,966.82,295.07Z"/><path class="cls-1" d="M1022.68,244.52h0l.07.11a.86.86,0,0,0-.07-.1,1.19,1.19,0,0,0,.44.91s0,0,0-.05l0,.07,0,0a1.42,1.42,0,0,0,.49.8l0,0,0,.09,0,0c.18.55.77.59,1.07,1h0l0,0,0,0a1.56,1.56,0,0,0,.53.81l0,0,0,.07,0,0a1.41,1.41,0,0,0,.47.85s0,0,0-.05l0,.08,0,0a1.4,1.4,0,0,0,.52.84l0-.06c1.59,2.7,4.35,1.82,6.65,2.32l.3-.05.29.09c.42-.29,1,0,1.39-.52h0l.1-.07,0,.06a1,1,0,0,0,.81-.51h0l.08,0,0,0a2.23,2.23,0,0,0,.82-.43l.22-.12.22.1c.8-.18.71-.66.38-1.22l.07.07c-.2-.57-.79-.6-1.12-1,0,0,0,0,0,0l0,0,0,0c-.22-.54-.8-.58-1.13-1l0,0,0,0h0a5.67,5.67,0,0,0-1.62-1.72,0,0,0,0,1,0,0l0-.06,0,0c-.21-.9-1.33-.43-1.62-1.22h0c-1.32-1.11-3.18-.55-4.52-1.59l-1.42-.29c-.94.38-1.88-.52-2.82.07C1022.44,243.19,1022.18,243.79,1022.68,244.52Z"/><path class="cls-1" d="M1023,242.68l.07,0,0,0Z"/><path class="cls-1" d="M897.42,201.52c.52,1.25,1.83.93,2.68,1.54a2.55,2.55,0,0,0,1.59.38,2,2,0,0,1,1.07,0,8.18,8.18,0,0,0,.88.47,1.89,1.89,0,0,1,.72.6c.09.21.18.42.26.63a3.36,3.36,0,0,0,.32.78c-.37.34-.4.95-.75,1.31l0,.31a3,3,0,0,0,2.36.46,1.05,1.05,0,0,0,1-.21c.7,1.22,1.61,1.31,2.71.34l.72-.58c1.62-2.09,1.93-4.24.42-6.45-.94-1.59-1.6-3.67-4-2.78a.49.49,0,0,1-.55-.07c-.47.27-1,0-1.47.31a.41.41,0,0,1-.52,0c-.5.21-1.06,0-1.54.35h0c-.49.33-1,.13-1.46,0a4.77,4.77,0,0,0-.76-.06,4.47,4.47,0,0,0-1.11.35,5.91,5.91,0,0,0-.63.49c-.5.42-1.19.48-1.62,1h.08l-.41.26C897.39,201.18,897.4,201.35,897.42,201.52Z"/><path class="cls-1" d="M1074,225.52l.07.07a4.59,4.59,0,0,0-2.81-1.42.81.81,0,0,0-.39-.48,3.14,3.14,0,0,1-1.82-.93,4.84,4.84,0,0,0-1-.73.24.24,0,0,1-.4-.1,17.19,17.19,0,0,0-7.55-1.7.44.44,0,0,1-.53,0c-1.16.52-2.25-.64-3.41-.05a.36.36,0,0,1-.49-.06c-1.17.52-2.26-.69-3.43,0l0,0c-1.14.55-2.19-.58-3.32-.06a.4.4,0,0,1-.54,0c-.92.47-1.82-.42-2.75,0l-2.34-.36c-.53.12-1.1,0-1.61.28h0c-.63.57-1.42-.27-2.06.35l-1.67-.34-.84.27a7.26,7.26,0,0,0-3.88-.7l-1.12-.12c-.72.33-1.46-.23-2.18.14a.41.41,0,0,1-.5,0c-.71.34-1.45-.24-2.17.14a.38.38,0,0,1-.51,0c-.68.41-1.49-.37-2.14.33l.05,0-.08,0,0,0c-.69.26-1.39-.3-2.07.14a.23.23,0,0,1-.39,0c-.83.25-2.36-.42-1.79,1.64l-.07-.1a1.19,1.19,0,0,0,.55.9l-.05-.1a7.2,7.2,0,0,0,2.61,2.88h0a1,1,0,0,0,.94.51l0,0a1,1,0,0,0,0,1.09.32.32,0,0,1,0,.47c-.16,1.23,1,1.35,1.46,2h0c.29.45.84.52,1.19.87l0,0,0,0,0,0c.19.55.79.58,1.08,1,0,0,0,0,0,0l0,0h0c.24.51.8.58,1.17.9l0,0,.06.06,0,0a1.79,1.79,0,0,0,2.42.54l-.06,0c1.14-.51,2.21.66,3.37,0l.22-.08.21.13c1.19-.46,2.3.67,3.49.07l.24-.08.22.13c.28,0,.43-.16.43-.48l0,0a2.8,2.8,0,0,1,.46.4c1.29.1,2.49.92,3.86.46l.25-.09.22.15c1.39-.55,2.68.9,4.08.09l-.07,0c1.37-.53,2.62.85,4,.12h0c.53-.24,1.08,0,1.61-.17.26.33.62.34,1,.13l.25-.09.24.1c1.82-.37,3.63,1.13,5.46-.14l1,.06c.74-.27,1.53.33,2.26-.2h0l0,0h0a3.78,3.78,0,0,0,3.25-2.91h0c1.54-.84,3.43.48,4.85-1.11h0l0,0h0a3.14,3.14,0,0,0,1.58-1.07h0c.26-.18.53-.37.78-.58l0,0C1075.52,226.5,1074.61,226.08,1074,225.52Z"/><path class="cls-1" d="M910.3,243.14c0-.15-.1-.3-.16-.45a4.55,4.55,0,0,0-.51-.78,4.84,4.84,0,0,0-.64-.64c-.88-.34-1.44-2.34-2.73-.54l0,0-.06.05,0,0c-.54.34-1,.74-1.59,1.07h0l-.06,0,0,0a11.13,11.13,0,0,0-2.2.92h0a3.91,3.91,0,0,0-1.58,1.06h0c-.66.45-1.47.53-2.09,1.07h0l-.08.06.06,0a1.51,1.51,0,0,0-.77.94c-.3-.15-.6-.1-.86.31a1.7,1.7,0,0,0,.32,1.37.51.51,0,0,0,.63.11l.06,0c.06,0,.13,0,.21-.16s0-.25-.13-.4v0a.92.92,0,0,0,.43.21l.26-.11c.11.2.28.24.53.13a.9.9,0,0,1,.56,0,.39.39,0,0,0,.31-.32,1.09,1.09,0,0,0,.59-.19h0c.89-.61,1.81.46,2.69-.16l.59.31c.67,1-.57,3.44,1.93,3a7.51,7.51,0,0,0,.77-.34c1.29-.58,2.57,1.11,3.86-.14C912.35,247.09,911,245.15,910.3,243.14Z"/><path class="cls-1" d="M910.79,249.32l0,0-.06.08Z"/><path class="cls-1" d="M1030,203.67h0l0,0,0,0a2.41,2.41,0,0,0,.77-.58l0,0,0,0,0,0a1.49,1.49,0,0,0,.76-.6l0,0,.08,0s0,0,0,0a1.31,1.31,0,0,0,.8-.55h0l.06,0,0,0a3.41,3.41,0,0,0,1.6-.94l0,0a10.17,10.17,0,0,0,2.3-1.64l0,0c.22-.26.55-.39.68-.74l-.11.07c-.06-3.23-2.41-1.94-3.95-2.24h0c-.62.56-1.4-.24-2,.34h0l0,0h0c-.44.26-1,0-1.4.35a.28.28,0,0,1-.43,0c-.54.12-1.11,0-1.62.3h0c-.34.19-.73.25-1,.45l-.1.07c-.08,0-.16,0-.24-.06s-.07.21-.11.31a3.45,3.45,0,0,0-.28.26,3.25,3.25,0,0,1-.43-.08,7,7,0,0,1-2.79.89,1.5,1.5,0,0,1-1.36.5c-.13.62-.25,1.24-.38,1.87l.48.79a1.55,1.55,0,0,1,1.11,1l1,.49,0,0c1,1.76,2.35,2.34,4.14,1,.23-.18.61-.13.92-.18l0-.12h0a1.68,1.68,0,0,0,.8-.35l0,0A2.53,2.53,0,0,0,1030,203.67Z"/><path class="cls-1" d="M1006.65,288.17l.05,0a3.64,3.64,0,0,0,1.45-1.23l0,0,0-.05s0,0,0,0a.87.87,0,0,0,.33-1.29v0c-.37-.75-.38-1.68-1-2.31l.06.09a1.15,1.15,0,0,0-.48-.9s0,0,0,.05l0-.08,0,0a1.43,1.43,0,0,0-.46-.83s0,0,0,0l0-.07,0,0a4.88,4.88,0,0,0-.36-.89v0c-.36-.41-.07-1.06-.41-1.47v0c-.25-.48,0-1.12-.39-1.55l.06.07c-.38-.84-1.4-.51-1.89-1.15a.3.3,0,0,1-.44-.13c-.39-.62-.88-.59-1.44-.25-.19.43,0-.15-.18.27,0,0,0,.13,0,.23a.65.65,0,0,0-.24,0l0-.05a1.8,1.8,0,0,0-.21-.08c-.3-.76-1-.77-1.64-.84v-.05c-.06,0-.13,0-.23.16a.39.39,0,0,0,0,.48.6.6,0,0,1,0,.49c.12.56-.07,1.19.24,1.71v0c0,.2.13.3.26.31s0,.31,0,.47.1.31.16.46-.07.21-.11.31l.21.09c0,.11.06.22.07.33a4,4,0,0,0,.69,1.87l0-.08a1.54,1.54,0,0,0,.44.92s0,0,0,0l0,.05h0a6.11,6.11,0,0,0,.42.85h0a6.79,6.79,0,0,0,1.41,2.48h0a4.93,4.93,0,0,0,.58.78l-.05-.07C1004.39,288.34,1005.52,288.27,1006.65,288.17Z"/><path class="cls-1" d="M988,172.31h0Z"/><path class="cls-1" d="M1056.3,163.93h0l0,0Z"/><path class="cls-1" d="M1055.78,163.12h0v0Z"/><path class="cls-1" d="M982.75,178.31l-.07.05a1.89,1.89,0,0,0,.84-.56l0,0a1.05,1.05,0,0,0,.53-.62l.27,0a4.31,4.31,0,0,0,.19-.61l.3.09.32,0c.14-.42.28-.85.41-1.27a2,2,0,0,1,.49,0c.12-.39.23-.77.34-1.15,1.44.21.88-1.58,1.67-2a6.17,6.17,0,0,0,.93-4.1.44.44,0,0,1,0-.47,1.5,1.5,0,0,0-.44-1l0,.06c-.17-.55-.83-.53-1-1a.33.33,0,0,1,0-.44,1.5,1.5,0,0,0-.43-1.07l0,.06c-.21-.55-.83-.57-1.13-1l0,0,0,0h0c-.31-.53-.7-.64-1.19-.17l.08-.09c-.82.36-.48,1.51-1.16,2a.83.83,0,0,1-.19.61c-.71.88-.63,2-.91,3a5.58,5.58,0,0,0,.18.58c0,.17-.08.34-.13.51-.13.69-.27,1.38-.4,2.07,0,.21-.09.42-.13.62a1.19,1.19,0,0,0-.49.62c-.09,1-.7,1.9-.28,2.91-.07.39-.14.79-.22,1.18C981.31,178.1,981.55,179,982.75,178.31Z"/><path class="cls-1" d="M1015.46,194.66l-.11,0h0Z"/><path class="cls-1" d="M1003.79,187.94a1.59,1.59,0,0,0,.86,1.18.69.69,0,0,1,.13-.11c-.17.28-.13.48.17.58h.23l.17.16a.83.83,0,0,0,.81.47l.36.49,0,0c.22.52.81.55,1.11,1h0l0,0,0,0c.29.55.89.62,1.31,1h.24l.17.19c.4.55,1,.49,1.58.65l.09,0c0,.15.07.27.26.36h.25l.19.18a4,4,0,0,0,3.66.68c.62-.28.68-.7.28-1.23a.09.09,0,0,0,0,.05v-.06h0a.9.9,0,0,0-.18-.73,2.18,2.18,0,0,0,.22-.31,1.81,1.81,0,0,1,.3-.47,1.58,1.58,0,0,0,.71-.51l.25-.11a1.35,1.35,0,0,0,.6-.58l-.06.09c.59-.1.58-.89,1.08-1.1h0a20.47,20.47,0,0,0,2.89-1.76l-.09.08a1.15,1.15,0,0,0,.86-.52l-.05,0,.08-.06,0,0c.75-.35.41-1.47,1.12-1.83h0a11.18,11.18,0,0,0,3.11-2.15l0,0c.88-.47,1.93-.25,2.75-.93h0a11.44,11.44,0,0,0,3-1.69l-.08.07a1.19,1.19,0,0,0,.88-.52h0l0,0h0c.46-.2,1,0,1.43-.39h0a1.9,1.9,0,0,0,1.26-1l.89-.11a1.75,1.75,0,0,1,1.36-.48.84.84,0,0,1,.84-.44c.6-.68,1.51-.47,2.18-.93.16-.78.19-1.63,1.09-1.93a.9.9,0,0,1,.74-.63.83.83,0,0,1,.79-.51.88.88,0,0,1,0-.15,3.77,3.77,0,0,0,.8-.27h0a3,3,0,0,0,2.32-1.66h0a1.71,1.71,0,0,0,.52-1.14c.12.09.24,0,.34-.23l0,.07c.6-.78,1.54-.6,2.26-1l-.07.05a3.61,3.61,0,0,0,.85-.49h0a4.17,4.17,0,0,1,.77-.49l0,0c.35-.43,1-.09,1.3-.66a.31.31,0,0,1-.1.05l.11-.06h0a1.37,1.37,0,0,0,.73-.78.78.78,0,0,0,.86-.19h0l0,0h0a2.69,2.69,0,0,0,1.56-1.12l0,0a1.59,1.59,0,0,0,.46-2,2.5,2.5,0,0,0-.51-.79s0,0,0,0l0-.06c-.55-.93-1.81-.38-2.39-1.23l-1-.19a.37.37,0,0,0-.38.24c-.8-.13-1.57-.56-2.43-.24a.49.49,0,0,1-.53,0c-.49.23-1,0-1.52.32a.33.33,0,0,1-.47,0c-.51.17-1,0-1.54.25a.41.41,0,0,1-.53,0c-.48.22-1.07,0-1.5.44h.07l-.1,0,0,0a.36.36,0,0,0-.18.11.29.29,0,0,0-.07.16,2.05,2.05,0,0,0-.54.1.31.31,0,0,1-.45.07c-.53.14-1.12-.05-1.61.37h.06l-.06,0h0a6.28,6.28,0,0,0-2.16,1l.08-.06a1.43,1.43,0,0,0-.86.53h0l0,0h0c-.44.22-1,0-1.39.39l0,0h0a6,6,0,0,0-.8.5h0c-.26.18-.51.37-.77.54h0c-.07,0-.15,0-.25.13a.27.27,0,0,0,0,.29.91.91,0,0,0-1.12.08h0l-.06,0,0,0a7.32,7.32,0,0,0-2.21,1l.07-.05a4.74,4.74,0,0,0-.86.46h0c-.4.39-1,.1-1.38.53l.06,0a1.07,1.07,0,0,0-.51.61l-.43.12a1.75,1.75,0,0,0-.42-.19c-.06.18-.11.37-.16.55l-.1,0-.57-.14c-.08.19-.15.38-.22.57a3.39,3.39,0,0,0-.62-.12.89.89,0,0,1-.76.59.83.83,0,0,1-.78.55.81.81,0,0,1-.78.55,1.44,1.44,0,0,1-1.33.6c-.41.53-.92.42-1.43.33a3.47,3.47,0,0,0-.19.57.77.77,0,0,0-.63,0l0-.05a1.4,1.4,0,0,0-.77.63h0l-.08,0,0,0a1.15,1.15,0,0,0-.82.54s0,0,.07,0l-.08.06h0c-.48.22-.52.88-1,1.14h0a3.32,3.32,0,0,1-1.54,1.07.32.32,0,0,1-.47,0,2.26,2.26,0,0,0-1.7,1h0l0,0,0,0a4,4,0,0,0-.8.56h0a4.1,4.1,0,0,0-2.26,1.71h0l-.06.05,0,0c-.52.16-.51.91-1,1.07l-.06,0a3.5,3.5,0,0,0-1.21,1.15h-.28c-.56.62-1.11,1.24-1.66,1.87a2.46,2.46,0,0,1-1.49,1.2,1.86,1.86,0,0,0-.1.31,1.12,1.12,0,0,0-.2.18q-.19-.36-.54,0h0l0,0s0,0,0,0a.44.44,0,0,0-.22.63c0,.23-.09.46-.13.7q-.07,0-.18.21a.43.43,0,0,0,.09.47ZM1046,165.68c.37,0,.48.29.52.61a6.48,6.48,0,0,0-1-.19C1045.64,165.89,1045.82,165.67,1046,165.68Z"/><path class="cls-1" d="M948.08,290.75a.8.8,0,0,1-.59-.74c-.27-.16-.56-.48-.81-.44-1.28.2-1.57-.76-1.85-1.75h0c-1.89-.41-3.26-3.29-5.67-1.15h0c-.1.69-.18,1.38-.32,2.06a2.65,2.65,0,0,1-1.11,2v-.06c-1.36,1.24-.62,3.35-1.77,4.68h0c-.23,1.21-.27,2.5-1.37,3.31.07,1.35-.1,2.59-1.32,3.39a4.89,4.89,0,0,1-1.28,2.54c-.32,1.19-.36,2.49-1.26,3.45q-.9,2.47-1.78,4.93l-.33.43a2,2,0,0,0-.6.72.23.23,0,0,1-.11.36c-1.58,2.81-1.18,6.21-2.59,9.07a.37.37,0,0,1-.15.46c-1.13,1.92-1.07,4.17-1.66,6.24.43,1.17-.1,2.46.26,3.65.17.2.37.06.56,0a.78.78,0,0,1-.14.29.41.41,0,0,0,.06.49.72.72,0,0,0,0,.67,2.85,2.85,0,0,0-.25.63,1.6,1.6,0,0,1,.41,1.46,1.58,1.58,0,0,1,.37,1.48.85.85,0,0,1,.34.92,1.71,1.71,0,0,1,.39,1.45h0a3.48,3.48,0,0,0,.37.94v0a1.82,1.82,0,0,1,.54,1.37.79.79,0,0,1,.43.84c1,1.09,2-.13,3.06-.08.31-.65.51-1.38,1.18-1.75a6.85,6.85,0,0,0,.91-2.9c0-.13.29-.28.45-.42.15-.69.3-1.37.46-2.06a4,4,0,0,1,.59.07c1-.78,2.32-1,3.06-2.26q.62-2.7,1.22-5.4a2.14,2.14,0,0,1,.82-1.44,12,12,0,0,1,.41-1.7c1-2.61,1.88-5.25,2.66-7.94.5-1.73.86-3.64,2.13-5.05.06-.69.12-1.37.19-2.05,0-.09.07-.19.12-.29.3-.38.57-.89.47-1.2a21.41,21.41,0,0,0,1.06-4.15,9.38,9.38,0,0,1,1.5-4.52c.44-1,.25-2.44,1.15-3.13a2.4,2.4,0,0,0,1-2.86,4.71,4.71,0,0,1,.28-2.68A3.6,3.6,0,0,1,948.08,290.75Z"/><polygon class="cls-1" points="980.31 312.74 980.31 312.74 980.3 312.73 980.31 312.74"/><path class="cls-1" d="M1050.87,299.25a1.57,1.57,0,0,1-1-1.07.83.83,0,0,1-.47-.83.86.86,0,0,1-.62-.71l-.42-.29-.06-.28a6,6,0,0,0-2.08-3,.43.43,0,0,1-.45-.26l-.44,0h-.08l-.15-.09a2.51,2.51,0,0,1,0-.55h-.45a.5.5,0,0,0-.42-.45c0-.22,0-.44,0-.67l-.62-.14q0-.3,0-.6a1.33,1.33,0,0,1-1.08-1c-.54-.41-1.09-.81-1.64-1.21h0c0-.19,0-.38,0-.57a.81.81,0,0,1-.58-.76.85.85,0,0,1-.45-.83,3.6,3.6,0,0,1-1.46-1.89,2.6,2.6,0,0,1-1.57-1.8.8.8,0,0,1-.65-.69l-.88-.52a1.36,1.36,0,0,0,0-.6,3.19,3.19,0,0,0-.44-.13l-.13-.17c0-.15,0-.3,0-.46a2.53,2.53,0,0,1-1.53-1.83.87.87,0,0,1-.58-.74l-.71-.37a5.66,5.66,0,0,0-.27-.68l0,0a2,2,0,0,0-.77-.77c-.19.07-.3,0-.35-.22a6.5,6.5,0,0,1-.42-.68c-.1-.25-.21-.5-.32-.75a5.46,5.46,0,0,0-.75-1l0,0a2.3,2.3,0,0,0-.55-.78l0,0,0-.07,0,0c-.16-.55-.81-.54-1-1h0a2.87,2.87,0,0,0-.59-.74.14.14,0,0,0,0,.06l-.06-.08,0,0c-.17-.54-.75-.59-1.06-1h0l0,0,0,0c-.19-.47-.63-.54-1-.72l-.08,0c0-.08,0-.17,0-.25l-1.09-.3a.16.16,0,0,0,0-.07,1.09,1.09,0,0,0,.1-.17c.06-.14,0-.27-.2-.4l.05,0a1.55,1.55,0,0,0-.54-.88.35.35,0,0,1,.05.08l-.05-.09h0c-.26-.57-.85-.66-1.29-1a.23.23,0,0,1-.33-.18c-.27-.48-.87-.47-1.15-.93l0,0c-.37-.77-1.36-.41-1.78-1.11l0,0c-.31-.56-.91-.66-1.38-1a.21.21,0,0,1-.33-.13,1.26,1.26,0,0,0-1.89-.34l.06,0c-1.3.35-2.46-.26-3.66-.49-2.36-.45-2,.74-1.22,2.18l-.06-.09a1.55,1.55,0,0,0,.4,1v0c.34.77.36,1.7,1,2.32l-.06-.09a1.18,1.18,0,0,0,.46.94s0,0,0-.05l0,.05h0c.29.7-.36,1.54.16,2.21a.11.11,0,0,0,0-.05l0,.07v0a5.83,5.83,0,0,0,.91,2.31l-.06-.08a1.57,1.57,0,0,0,.42.94v0h0a7.33,7.33,0,0,0,1.9,3.39h0a7.6,7.6,0,0,0,1.93,3.19h0a6.88,6.88,0,0,0,1.95,3.26h0l0,0s0,0,0,0a1.42,1.42,0,0,0,.55.8s0,0,0-.06l0,.09,0,0a1,1,0,0,0,.53.85.93.93,0,0,1-.05-.1l.05.1h0c.29.78,1,1.18,1.44,1.84h0a2.72,2.72,0,0,0,.54.78v0l0,.06,0,0a1.38,1.38,0,0,0,.52.8.11.11,0,0,1,0-.06l0,.1,0,0c.13.56.79.55,1,1.05h0c.2.27.32.6.61.77l0-.08a4.88,4.88,0,0,0,1.64,1.82s0,0,0-.05l0,.06h0a.39.39,0,0,0,.55.35c0,.14,0,.29,0,.43l.67.34a2.29,2.29,0,0,0,.29.74h0a2.3,2.3,0,0,0,.55.78l0,0,.05.08,0,0c.17.54.79.56,1.05,1,.54.92,1.49,1.29,2.25,1.91l0,0,0,0h0c.23.51.83.53,1.09,1h0a7.12,7.12,0,0,0,2.3,1.9l0-.05a32.5,32.5,0,0,0,4.21,2.39h.28l.2.18a.4.4,0,0,0,.63.13l.64.15a1.26,1.26,0,0,0,1.19.47,2.53,2.53,0,0,0,.78-.08,11.24,11.24,0,0,0,4.93.42c.73-.08,1.47-.24,2.2-.36a1.41,1.41,0,0,1,1.36-.52c1.31-.61.5-1.68.55-2.57A.78.78,0,0,1,1050.87,299.25Zm-27.52-30.52a.41.41,0,0,1,0-.11h-.1a.18.18,0,0,1,.11,0v0h0A.38.38,0,0,0,1023.35,268.73Zm11.88,12.48,0-.11.1,0Z"/><path class="cls-1" d="M885.34,297.35l0,0,.07-.06,0,0c.55-.21.61-.87,1-1.25,0,0,0,0,0,0l.06,0h0a1.62,1.62,0,0,0,.78-1.11h0l.7-.11a1.57,1.57,0,0,1,1.06-1c.74-.82,1.78-.7,2.67-1.08a3.5,3.5,0,0,1,1.79-1.63,1.57,1.57,0,0,1,1-1.18.85.85,0,0,1,.69-.69c.34-.88,1.38-1.34,1.33-2.47v0h.56a.71.71,0,0,1,.79-.55l3.07-2.26a.83.83,0,0,1,.77-.58.89.89,0,0,1,.81-.48.83.83,0,0,1,.78-.54,3.58,3.58,0,0,0,.14-.65,3.64,3.64,0,0,1,.57,0c.49-1.42,2-1.57,2.79-2.6a14.49,14.49,0,0,0,3.89-2.75l1.16-.11,1.59-1a.9.9,0,0,1,.71-.67.76.76,0,0,1,.85-.45,1.64,1.64,0,0,1,1.48-.4c.86.14,1.35-.17,1.57-1.18a46.29,46.29,0,0,0,1.27-6.72,3.06,3.06,0,0,1-.27-2.13.88.88,0,0,1-.42-.87,1.81,1.81,0,0,1-.29-1.54c-.16-.27-.31-.54-.46-.81-1.1-.69-1.87-2.19-3.51-1.54a5.85,5.85,0,0,0-.28.56l-1.09-.07a.82.82,0,0,1-.77.55.8.8,0,0,1-.82.49.88.88,0,0,1-.77.56,2.49,2.49,0,0,1-1.59,1c-.58.85-1.3.5-2,.38a.69.69,0,0,1-.79.36.52.52,0,0,1-.53.23l-.75.53a2,2,0,0,1-1.59,1.06c-.28.59-.56,1.17-.83,1.76h0l-.87.1-4.94,3.76a65.84,65.84,0,0,1-1.55,1.13c-.56.6-1.13,1.2-1.69,1.81h0a4.14,4.14,0,0,1-1.55,1.12h0c-.07,0-.15,0-.24.11s-.06.18,0,.31a1.07,1.07,0,0,0-1.18,0,2.72,2.72,0,0,0-.76.68l.07,0a1.29,1.29,0,0,1-1,1.15.94.94,0,0,1-.7.66,1.55,1.55,0,0,1-1,1.07h0a2.39,2.39,0,0,0-.76.62l.05,0a1.58,1.58,0,0,1-1.55,1.14,6.37,6.37,0,0,1-2,3.11v0a2.44,2.44,0,0,0-.81.63l.08-.05c-.82.6-.68,1.15-.22,1.67a1.78,1.78,0,0,0-1.49.19,2.34,2.34,0,0,0-.62.67,3,3,0,0,1-.46,1.21h0l-.06.06s0,0,0-.05c-1,.68-.57,2.06-1.28,2.87a.24.24,0,0,1-.13.37,25.48,25.48,0,0,0-2,9.23,4.35,4.35,0,0,0,.51,1c.74.37,1.3,1.33,2.32.71.46-.26.51-.89.92-1.2h0a8.52,8.52,0,0,0,.8-.53h0c.63-.55,1.42.27,2-.36l-.06,0C883,298.45,884.59,298.56,885.34,297.35Z"/><polygon class="cls-1" points="890.31 274.72 890.32 274.71 890.32 274.71 890.31 274.72"/><path class="cls-1" d="M953.94,220.55l-.74.62A.88.88,0,0,0,953.94,220.55Z"/><path class="cls-1" d="M901.91,162.49v0c.42.7-.34,1.58.23,2.25l0-.08a.52.52,0,0,0,.7.35l.12-.12.32.23h0l-.06.57a.81.81,0,0,1,.58.75,2.67,2.67,0,0,1,1.46,1.88,3.28,3.28,0,0,0,.61.18l-.06.6a.79.79,0,0,1,.6.72c1.26.53,1.42,2.2,2.52,2.89,0,.21,0,.43-.06.64a.81.81,0,0,1,.48.81,9.77,9.77,0,0,1,.94,1.67.86.86,0,0,1,.48.83.82.82,0,0,1,.52.8.78.78,0,0,1,.4.88,5.24,5.24,0,0,0,.51.3c.06,1,1.06,1.66.92,2.77a.8.8,0,0,1,.44.86,9.4,9.4,0,0,1,1.9,3.91.82.82,0,0,1,.45.83.88.88,0,0,1,.51.81.83.83,0,0,1,.43.84,3.94,3.94,0,0,1,.55.26,6.17,6.17,0,0,0-.11.62l1.5,2.4c.94.65,1.71,1.87,3.1.94l.17.11.19,0,.63,1.32h-.05a1.23,1.23,0,0,0,.54.9l0-.06a.7.7,0,0,1,.45.23c0,.23-.09.46-.14.69l.58.74c.86.34,1.32,0,1.44-1-.18-.29-.36-.57-.53-.86a5.17,5.17,0,0,0-.5-3h0c.31-.49.62-1,1.24-1a14.36,14.36,0,0,1,1.57.28c.8.12.8.11.8-1.23,0-.24,0-.47,0-.7a1.83,1.83,0,0,1-.41-1.46.9.9,0,0,1-.35-.9h0c-.16-.58-.38-1.1-.95-1.28,0-.33,0-.66,0-1a.8.8,0,0,1-.33-.92,1.89,1.89,0,0,1-.36-1.5,4.06,4.06,0,0,1-1.27-3.17l-1-1.1c0-.4.06-.79.08-1.18a.85.85,0,0,1-.42-.85.84.84,0,0,1-.47-.84.9.9,0,0,1-.51-.81,3.28,3.28,0,0,1-1-1.62c-1-.38-1.22-1.59-2.05-2.12a5.51,5.51,0,0,0,.06-.57.78.78,0,0,1-.57-.75l-1.51-1.38h0a3.53,3.53,0,0,0-1.55-2.32,5.61,5.61,0,0,0,.06-.59,1.39,1.39,0,0,1-1-1c-1.13-.44-1.62-1.53-2.14-2.57l0,0c-.21-.52-.86-.5-1.07-1h0a2.35,2.35,0,0,0-.65-.75l0,.05-1.56-1.17a3,3,0,0,0,.07-.66l-.39-.11a.46.46,0,0,0-.12-.64v0l-.09-.09a.29.29,0,0,1,.08.07c-.07-.63-.78-.6-1-1.1h0a1.68,1.68,0,0,0-.78-.8c-.18.05-.29,0-.33-.22s-.37-.49-.56-.73v0l-1.51-1.84a2.91,2.91,0,0,0-2.66.15c-.14,1.38-1,2.62-.76,4.06C902.44,158.36,902.18,160.42,901.91,162.49Zm22.74,29.36-.2.07h0Z"/><path class="cls-1" d="M998.77,324.6c.06-.41.13-.83.19-1.25a3,3,0,0,1-.17-2.2,1.93,1.93,0,0,1-.36-1.5,4.54,4.54,0,0,1-1.07-3.89l-.5-.27c-.26-1.23-.47-2.47-.8-3.68a5.2,5.2,0,0,1-.15-2,.93.93,0,0,1-.33-.91.79.79,0,0,1-.43-.86,3.32,3.32,0,0,1-.9-2.9,1,1,0,0,1-.28-.94c-.14-.22-.29-.44-.44-.66l.06,0s.09-.08.15-.27a.65.65,0,0,0-.12-.56v0c-.28-.44,0-1.1-.42-1.5a.07.07,0,0,0,0,0l0-.07s0,0,0,0c-.13-.5.07-1.1-.32-1.52a.11.11,0,0,0,0,.05l0-.07v0c-.15-.5.05-1.1-.32-1.53,0,0,0,0,0,.05l0-.06h0c-.17-.49,0-1.08-.33-1.51,0,0,0,0,0,.06l0-.07h0a3.26,3.26,0,0,0-.32-1,1.1,1.1,0,0,1-.18-.66,2.3,2.3,0,0,1,.49-1.39l-.06.05c.7-1.23.06-2.09-.6-2.94v0l0,0h0c-.47-.95-1.5-1.2-2.13-2l0,0c-.26-1.33-1.62-1.11-2.29-1.86h0c-.77-.45-1.32-1.39-2.38-1.19l-2.49-.56c-.25-.53-.84-.55-1.18-1l0,0,0,0h0a1.19,1.19,0,0,0-1.8-.4h0l-.05,0h0a1.77,1.77,0,0,0-1.18,2.54c.35.7-.31,1.54.16,2.22v0c.43.68-.28,1.54.21,2.2v0l0,0,0,0c.14,1.7,0,3.43.24,5.11.35.7-.33,1.54.19,2.21,0,0,0,0,0,0V298h0c.18.48,0,1.05.23,1.51a.34.34,0,0,1,0,.47c.25.79-.39,1.68.14,2.44l0-.06c.63,1-1.1,2.47.5,3.23a.1.1,0,0,0,0,0c-.05.42-.12.84-.18,1.26a3.09,3.09,0,0,1,.19,2.2,3.49,3.49,0,0,1,.21,2.19,1.62,1.62,0,0,1,.27,1.55c.29.46,0,1.08.35,1.52v0a.48.48,0,0,0,.42.35,1,1,0,0,0-.05,1.23.33.33,0,0,1-.06.47c.1,1.29.82,2.46.51,3.83a1.66,1.66,0,0,1,.19,1.59,2.64,2.64,0,0,1,.32,2.13,2.09,2.09,0,0,1,.2,1.59,1.57,1.57,0,0,1,.5,1.41.87.87,0,0,1,.35.91v0c.31.42-.09,1.14.47,1.46l0,0a1.8,1.8,0,0,0,.37.95h0l.48.82h0a6.34,6.34,0,0,0,.54.81l0-.05c.09.24.22.34.39.31v0a.46.46,0,0,0,.2.52v0a.8.8,0,0,1,.55.74,3.67,3.67,0,0,1,1.42,1.93l0,0a1.85,1.85,0,0,0,.63.8l0-.06,2.15,1.92,1.52,1.07,0,.05c.48-.13.85-1,1.45-.3l0,.05,1.41-.53c-.17-1.29.68-2.45.6-3.7s.23-1.62,1.46-2c1.76-.58,2-1.76,1.35-4.25C997.57,326.82,997.56,325.58,998.77,324.6Zm-2.33-1.18c-.26-.16-.77-.32-.76-.48v-.07a5.38,5.38,0,0,0,.86.15C996.51,323.15,996.48,323.29,996.44,323.42Z"/><path class="cls-1" d="M934.65,178.78a.66.66,0,0,0,.32.5,1.15,1.15,0,0,0-.13,1.11.5.5,0,0,1,0,.5c0,.39.15.55.44.51l-.24,1.23a1.63,1.63,0,0,1,.35,1.51,3.11,3.11,0,0,1,.38,2.08c.12.3.23.6.35.89a3.71,3.71,0,0,0,2.43.55l.81-.5a3.58,3.58,0,0,0,1.1-3.35c-.15-1-.33-2-.49-3l-.83-2.37a1.91,1.91,0,0,0,.13-.62c-.47-.17-.93-.37-1.07-1l-.56-.76c-.58-.32-1.27-.48-1.63-1.16-.74.23-.94.87-1.08,1.56l-.33,1.69A.67.67,0,0,1,934.65,178.78Z"/></svg>