<svg id="Capa_1" data-name="Capa 1" xmlns="http://www.w3.org/2000/svg" viewBox="0 0 1238 732.56"><defs><style>.cls-1{fill:#3c3c3b;}.cls-2{fill:#f39200;}.cls-3{fill:#ffe609;}.cls-10,.cls-100,.cls-101,.cls-102,.cls-103,.cls-104,.cls-105,.cls-106,.cls-107,.cls-108,.cls-109,.cls-11,.cls-110,.cls-111,.cls-112,.cls-113,.cls-114,.cls-115,.cls-116,.cls-12,.cls-13,.cls-14,.cls-15,.cls-16,.cls-17,.cls-18,.cls-19,.cls-20,.cls-21,.cls-22,.cls-23,.cls-24,.cls-25,.cls-26,.cls-27,.cls-28,.cls-29,.cls-3,.cls-30,.cls-31,.cls-32,.cls-33,.cls-34,.cls-35,.cls-36,.cls-37,.cls-38,.cls-39,.cls-4,.cls-40,.cls-41,.cls-42,.cls-43,.cls-44,.cls-45,.cls-46,.cls-47,.cls-48,.cls-49,.cls-5,.cls-50,.cls-51,.cls-52,.cls-53,.cls-54,.cls-55,.cls-56,.cls-57,.cls-58,.cls-59,.cls-6,.cls-60,.cls-61,.cls-62,.cls-63,.cls-64,.cls-65,.cls-66,.cls-67,.cls-68,.cls-69,.cls-7,.cls-70,.cls-71,.cls-72,.cls-73,.cls-74,.cls-75,.cls-76,.cls-77,.cls-78,.cls-79,.cls-8,.cls-80,.cls-81,.cls-82,.cls-83,.cls-84,.cls-85,.cls-86,.cls-87,.cls-88,.cls-89,.cls-9,.cls-90,.cls-91,.cls-92,.cls-93,.cls-94,.cls-95,.cls-96,.cls-97,.cls-98,.cls-99{fill-rule:evenodd;}.cls-4{fill:#fed006;}.cls-5{fill:#fed005;}.cls-6{fill:#fed303;}.cls-7{fill:#fdc30b;}.cls-8{fill:#fecf02;}.cls-9{fill:#fdca06;}.cls-10{fill:#fdca0b;}.cls-11{fill:#fed20d;}.cls-12{fill:#fdc609;}.cls-13{fill:#fdce03;}.cls-14{fill:#fdcb0b;}.cls-15{fill:#fed605;}.cls-16{fill:#fdcb12;}.cls-17{fill:#fed80a;}.cls-18{fill:#fdc912;}.cls-19{fill:#fdc808;}.cls-20{fill:#fed308;}.cls-21{fill:#fed506;}.cls-22{fill:#ffed63;}.cls-23{fill:#fcc40b;}.cls-24{fill:#fdd705;}.cls-25{fill:#ffe43b;}.cls-26{fill:#ffee61;}.cls-27{fill:#fff075;}.cls-28{fill:#ffed52;}.cls-29{fill:#ffed54;}.cls-30{fill:#ffe91a;}.cls-31{fill:#fed60a;}.cls-32{fill:#fee02b;}.cls-33{fill:#fff5a9;}.cls-34{fill:#fede18;}.cls-35{fill:#ffec56;}.cls-36{fill:#fee330;}.cls-37{fill:#fff4a8;}.cls-38{fill:#ffe871;}.cls-39{fill:#ffea22;}.cls-40{fill:#ffea34;}.cls-41{fill:#ffe91d;}.cls-42{fill:#ffea2e;}.cls-43{fill:#ffe920;}.cls-44{fill:#feefa7;}.cls-45{fill:#ffea36;}.cls-46{fill:#ffe71b;}.cls-47{fill:#fee510;}.cls-48{fill:#ffed53;}.cls-49{fill:#ffe715;}.cls-50{fill:#ffea2b;}.cls-51{fill:#ffe922;}.cls-52{fill:#ffe718;}.cls-53{fill:#ffea2d;}.cls-54{fill:#ffea29;}.cls-55{fill:#ffec4a;}.cls-56{fill:#ffeb45;}.cls-57{fill:#fed91a;}.cls-58{fill:#fed612;}.cls-59{fill:#fdc907;}.cls-60{fill:#fed945;}.cls-61{fill:#fdcb06;}.cls-62{fill:#fcbd0f;}.cls-63{fill:#fdc207;}.cls-64{fill:#fed307;}.cls-65{fill:#fdc50a;}.cls-66{fill:#fed911;}.cls-67{fill:#fed502;}.cls-68{fill:#ffe35c;}.cls-69{fill:#fff28d;}.cls-70{fill:#fff17f;}.cls-71{fill:#fef6ba;}.cls-72{fill:#fede11;}.cls-73{fill:#fff17e;}.cls-74{fill:#ffea39;}.cls-75{fill:#ffec4c;}.cls-76{fill:#ffed65;}.cls-77{fill:#ffec4b;}.cls-78{fill:#fff074;}.cls-79{fill:#ffdd18;}.cls-80{fill:#ffed5a;}.cls-81{fill:#ffec4f;}.cls-82{fill:#ffec44;}.cls-83{fill:#ffe834;}.cls-84{fill:#ffeb44;}.cls-85{fill:#ffdb2a;}.cls-86{fill:#fdca0f;}.cls-87{fill:#ffe97a;}.cls-88{fill:#fed30c;}.cls-89{fill:#fdce10;}.cls-90{fill:#fedc16;}.cls-91{fill:#fff078;}.cls-92{fill:#ffd709;}.cls-93{fill:#ffe03b;}.cls-94{fill:#ffe545;}.cls-95{fill:#fed914;}.cls-96{fill:#fcbf0a;}.cls-97{fill:#ffe232;}.cls-98{fill:#ffeb54;}.cls-99{fill:#fcbe0e;}.cls-100{fill:#ffef71;}.cls-101{fill:#feda14;}.cls-102{fill:#fed80e;}.cls-103{fill:#fedb13;}.cls-104{fill:#ffed66;}.cls-105{fill:#ffee68;}.cls-106{fill:#ffeb36;}.cls-107{fill:#fff17d;}.cls-108{fill:#ffeb56;}.cls-109{fill:#fab313;}.cls-110{fill:#ffee60;}.cls-111{fill:#ffef77;}.cls-112{fill:#ffee70;}.cls-113{fill:#fedf10;}.cls-114{fill:#ffe821;}.cls-115{fill:#ffeb42;}.cls-116{fill:#ffef73;}</style></defs><path class="cls-1" d="M594.63,169c0,1.2-2.8,6.79-6.39,12.78-3.19,6-6,12.38-6.39,14.37-.8,6-1.6,13.58-2.39,18.36-1.2,6.79-5.19,33.94-6,43.12-.4,4.39-1.2,10-1.6,12.38s-.8,7.18-1.2,10.78c-1.19,10.77-2,16.36-3.19,22.75-1.2,8.39-4.79,31.54-4.79,34.33-.4,4.8-1.2,11.58-4,26-1.2,8.39-2,15.57-1.6,16s0,1.6-.4,3.2c-.8,1.19-1.6,6.38-2.4,12-.39,5.19-.79,10.78-1.19,12.78-1.2,6-2.4,19.16-3.2,27.15-.4,4-1.19,10.77-1.59,14.77-2,14-1.6,12.77-4.39,36.33-.4,4.39-1.2,10.77-1.2,14.37-.4,3.19-1.2,11.58-2,18.76-.8,6.79-2,16.77-2.39,22.36-1.2,16-2.4,28.74-3.2,33.93-.4,2-.8,14.37-1.59,26.75-.8,19.56-1.2,22.36-3.2,23.15a5.77,5.77,0,0,0-3.59,3.2c-.4,2.79-2,3.19-9.58,2.79-5.59-.4-10-1.2-10.78-2.39-1.2-1.2-4-4-6.39-6.79-4-4.39-4.79-6-5.59-17.57-1.59-20.76.4-52.29,8.78-127.75,2-18,3.2-33.13,2.8-33.93-1.6-1.2-21.56-5.19-31.94-6.39-4-.4-9.58-1.2-12.37-1.59s-12.78-1.2-22-1.6l-16.77-.8L403.8,457.67c-19.56,26.75-65.87,83-67.87,83-.4,0-3.19.8-5.59,1.2-3.59.8-4.79.4-6.39-3.6-2.79-4.79-3.59-3.19,18.77-30.34,32.73-39.92,57.49-71.86,57.49-74.65,0-.8-26.35.4-37.13,1.6-6.39.79-29.14,8.38-31.54,10.38-1.2,1.19-4.79,2-7.59,2-5.19,0-6-.8-7.58-4.39a20.08,20.08,0,0,1-.8-11.18c1.6-9.58,12-19.56,25.95-24,8.78-3.2,12.78-3.2,45.51-3.2l35.53-.39,27.55-38.73c29.94-41.52,66.67-96.21,81.84-121.36,9.18-15.17,9.58-15.57,15.57-43.52,12-53.09,22.35-78.64,37.92-94.61,5.19-5.19,11.18-6.39,18-2.8,7.18,3.6,9.18,17.57,4.39,32.34-3.19,10.78-10.38,28.74-12,30.74A4.35,4.35,0,0,0,594.63,169ZM521.17,294c-6.79,10-14.37,21.16-16.77,24.75-2.79,3.59-7.18,10-10,14-6.79,10-16.37,24.36-19.16,28-1.2,1.6-6,8.38-11.18,15.17-4.79,7.19-12,16.37-15.17,20.76-3.59,4.39-6.39,8.78-6.39,9.58s4.39,2,9.19,2.4c8.78.8,43.51,8,53.09,10.78,5.59,1.59,5.59,1.59,8.39-20.36,2.39-14.38,5.58-35.54,16.36-102.21,1.2-7.58,2.8-15.57,3.2-17.56S528,284,521.17,294Z"/><path class="cls-1" d="M559.9,508.37c-3.6-10.78-.4-37.92,9.58-77.05C575.86,405,579.06,393.4,587,375c9.58-19.56,39.13-36.73,24,53.5-2.4,14-3.6,24-2.4,22.35,4-7.18,24.35-35.13,32.74-45.51,23.95-29.94,40.32-45.11,50.7-46.71,11.57-1.59,19.16,8.39,20.76,27.55.8,9.18-3.6,49.1-8.39,75.45-1.59,9.19-.4,16,2.4,16,8,0,35.93-30.34,66.67-71.46,8.78-12,9.18-12.37,14.77-12.37s6,0,6.79,4.79c.8,4.39-.4,6.38-14,25.55-29.94,43.11-54.69,71.46-67.06,77.05-8,3.59-16.37,3.59-26.35-.4-16-6-24-20.36-22.36-41.12.8-10.38,8.38-43.12,15.17-65.87l2-7.19-3.2,2.79c-5.19,4.4-19.16,22.76-30.74,39.53C635,448.49,624.17,466.85,609,496.79c-6.39,12.38-13.17,24-15.17,25.95-4,3.2-10.78,4-18.76,1.6C569.48,522.74,562.29,514.76,559.9,508.37Z"/><path class="cls-1" d="M759.11,296.39c2.4-2.4,28.34-7.59,43.91-8,2.8,0,4.8-1.2,5.59-3.59,2.4-6,3.2-9.18,3.6-10.38.4-4.79,6-19.56,7.58-21.56,1.2-1.6,2-2.79,1.2-2.79s1.2-1.6,4-3.6c6.79-4.39,10.38-4,12.78,2,1.59,3.59,1.19,7.18-.4,18.36-1.2,7.59-2.4,14.77-2.4,15.57,0,2,2.8,2.4,18.37,2,21.15-.4,27.94,1.2,28.74,6,.8,4.39-2.4,9.18-6,9.18-1.2,0-6.79.4-12,.8s-13.58.8-18.77.8c-5.59,0-10.38.8-11.18,1.19-1.59,1.2-3.19,9.59-7.18,39.13-1.2,8.38-2.4,15.57-2.8,18.76-.4,2-1.2,6.39-1.6,10.38A37.07,37.07,0,0,1,821,379c-.4.4-1.2,5.19-1.2,10-.4,5.2-1.2,11.18-1.6,13.18-3.19,14.37-4,50.7-1.19,64.67.8,6.39,1.59,12.38,1.19,12.78-1.59,2.79,1.6,1.2,5.19-2,6.79-6.78,9.59-10.78,14.38-19.16,2.79-4.79,6-10,6.78-11.18s3.2-6,5.59-10.38,6-10.38,7.59-13.57c2.39-3.2,6.39-10.78,9.58-16.77,7.18-14.37,8-15.57,14.37-12.37,4.39,2.39,4.79,2.79,4,8.38-.8,7.58-35.53,78.64-41.12,84.23-1.19,1.6-2.39,3.2-2.39,4s-2.8,3.59-6,6.38-6.79,5.59-8,6.79a10.81,10.81,0,0,1-4.79,2.4c-1.59,0-3.19.39-3.19.79,0,.8-4,1.2-9.18,1.2-5.59,0-9.58-.8-9.58-1.2,0-.79-.8-.79-2-.4s-2.79-.39-4-1.59a6.1,6.1,0,0,0-4-2.4,2.58,2.58,0,0,1-2-2.39c0-1.2,0-2-.8-1.6-1.2,1.6-9.58-10.38-10.78-15.57a5.06,5.06,0,0,0-1.59-2.79c-2-2.8-4.4-24.76-3.6-34.34,2-22.35,2.8-29.14,6.79-47.5,2.4-10.38,4.79-20.36,4.79-21.16a36.66,36.66,0,0,1,1.6-5.19c.4-1.6,1.2-5.19,1.59-8a28.22,28.22,0,0,1,2.4-7.58c.8-1.6,1.2-2.8.8-2.8s0-2,.8-4.79c.79-2.39,1.59-6,2-7.58,1.6-7.59,5.59-22,6.39-22.76a6.72,6.72,0,0,0,.8-3.59,54.42,54.42,0,0,1,1.6-6.79c.79-4.79,2-4.39-15.57-2-18,2.79-23.16,2.79-26.35,0S756.72,300,759.11,296.39Z"/><path class="cls-1" d="M860.9,454.08c-.4-7.59,1.2-25.95,3.2-33.54.8-2.79,2.39-8,3.19-11.57,1.2-3.6,3.2-9.19,4.39-12.38,1.6-3.19,2.8-6.39,2.8-7.19,0-1.59,8.38-18,12.37-23.95,1.6-2.39,4-4.79,4.79-4.79a3,3,0,0,0,2.8-2c.8-1.19,4-2.39,7.19-2.79,11.17-2,13.17,4.79,8.78,25.95-1.2,5.59-2.4,12.38-2.8,15.17-.4,2.39-.79,5.19-1.19,5.59-.4.8-1.2,6.39-2,12.37-.4,6-1.2,12.78-1.2,15.17-.8,7.19-1.2,25.95-.4,29.55,1.2,4.39,5.19,12,6.79,12,4,0,20-23.15,41.52-59.88,2.39-4,5.19-8,6-9.18a13.28,13.28,0,0,0,3.59-5.19c6.39-11.58,34.73-46.71,39.12-48.71a35.12,35.12,0,0,1,6.79-.8c3.59-.39,5.19.8,7.19,4.8,3.59,7.18,3.19,13.17-1.2,34.33-2,10.38-4,21.56-4.39,25.55s-1.6,10.38-2,14a43.94,43.94,0,0,0-.8,12.38,42.3,42.3,0,0,1-.8,8.38c-.79,1.6-.79,2.8,0,3.19.8.8,1.2,1.6.8,2.4-.4.4,0,2.79.4,4.79l1.2,4,5.19-4.79c6-5.59,16.37-20,33.13-45.11,14.38-21.16,13.18-18.36,16.37-18.36,6.79,0,12.78,7.18,7.19,12-1.6,1.2-2.8,3.2-2.8,4,0,1.19-2,4.39-4.39,7.58s-4.39,6.39-4.39,7.59c0,.79-1.2,2.39-2.39,3.59-1.2.8-4,5.19-6,9.58s-4.39,8-4.79,8-2,2.4-3.6,5.19c-7.18,14-18.76,28.35-22.35,28.35a1.83,1.83,0,0,0-2,1.6c0,.79-.4,1.19-.8.79-.4-.79-2-.4-2.79.8-4.39,3.6-20.76,2-26.75-2.39-4.39-3.6-12.38-11.18-11.18-11.18.8,0,.4-1.2-.8-2.4-4.39-5.19-5.59-12.77-5.19-29.54.4-8.78.4-16.37,0-16.37s-1.59,2-2.79,4.79c-1.6,2.4-3.19,5.19-4,6-.4,1.2-4.79,9.18-9.18,18s-8.79,16.37-10,17.56a46.48,46.48,0,0,0-5.19,8.39c-6.78,13.17-23.15,27.14-29.54,25.15-1.59,0-3.19,0-3.59.8-.8,1.59-10.78,1.19-10.78-.4,0-.8-.8-.8-1.6-.4a2.1,2.1,0,0,1-2.79-.8c-.4-.8-2.4-2-4.39-2.4s-4.39-1.59-5.19-2.79c-1.2-1.2-2.4-2-3.2-2-1.19,0-7.58-9.18-10-14.77C863.7,472,861.3,461.66,860.9,454.08Z"/><path class="cls-2" d="M160.76,329.43V368C184.84,370.1,179.79,325.09,160.76,329.43Z"/><path class="cls-2" d="M373.78,349.41c-2.16,24.4,24.49,24.1,23.47.23C399.23,322.22,374.05,324.09,373.78,349.41Z"/><path class="cls-2" d="M349.1,305.83h-220v83.88H421.75l59.31-83.88ZM150.89,375.11v-52.7C199.38,315,200.37,382.51,150.89,375.11Zm104.47-46H234.43v18.45H252v7H234.43V368.3l20.93-.11v7h-32V322.3h32Zm69.92,36.67,4.94,5.93c-48.33,20.68-48.77-63.5,0-48.3l-4.08,6.91C298.38,319,295.79,378.94,325.28,365.77Zm83-15.92c-.14,13.64-8.94,26-23.65,25.26-23,1.23-26.74-28.37-16-44C383.59,311.31,412.31,326.79,408.31,349.85Z"/><path class="cls-3" d="M1023.54,179.06a.35.35,0,0,0,.49.21c.55.66,1.54.4,2.06,1.12a.31.31,0,0,0,.43.21c.45.37,1.06.47,1.44,1,0,.2.17.27.35.21a1.83,1.83,0,0,1,.85.78.32.32,0,0,0,.4.26c.47.38,1.16.42,1.4,1.12l-.06-.06c.39.4,1,.44,1.29,1l0,0c.32.47,1,.49,1.24,1l0,0c.29.5,1,.49,1.14,1.17l-.06-.1c.33.17.47.52.69.81h0c.2.56,1,.52,1.06,1.2l-.06,0c1.55.92,2,2.73,2.79,4.23l0,0a32,32,0,0,1,2,3l-.06-.11a7.65,7.65,0,0,1,1,2.51l0,0a2,2,0,0,1,.5,1l0-.08,1.08,1.87,0-.1a1.45,1.45,0,0,1,.57,1l0-.09a1.26,1.26,0,0,1,.53,1l-.07-.11a10.65,10.65,0,0,0,1.47,3.52l-.06-.11a1.08,1.08,0,0,1,.56,1l-.07-.11c.56.4.25,1.13.48,1.66l0-.07c.66,1.58.49,3.38,1,5l0-.1c.71.85,0,1.73,0,2.6.35,2.09-.59,4.23.12,6.39.35,1.05-.57,2.08-1.77,2.33-.2-.11-.31-.11-.3,0s0,.24.11.25a2.06,2.06,0,0,1,.39,2.89,8.69,8.69,0,0,1-.46.77,3.09,3.09,0,0,0-.44,1.63v.43a3.54,3.54,0,0,1-.16.85,2.18,2.18,0,0,1-.46.66,1.26,1.26,0,0,0-.7.82,4,4,0,0,1-.29.75c-.12.25-.25.5-.38.75a8,8,0,0,1-.41.76,4.88,4.88,0,0,1-.86,1,6.87,6.87,0,0,1-.73.51c-.91.28-.79,1.07-.8,1.79-2.58,2-3.25,5.82-6.15,7.59-.89.54-1.61,1.46-2.64,1.78-.26.09-.53.18-.77.28.59,2.42,1.25,4.78-2.33,5.19-1.53.17-.84,1.72-1,2.68-.41.66-1.37.58-1.63,1.45a3.67,3.67,0,0,1-.33.91c-1.66,3.24-1.66,3.24-4.3.94-.49-.43-2.17.22-2.88,1.48-1.77,3.13-4.18,3-6.8,2.11a5.16,5.16,0,0,0-1.11,0h-.31l-.29-.11c-.51-.2-.12.54-.47.53-1.22.61-3.09-.13-3.42,2.36-.09.66-1.35.84-2.19.63a2,2,0,0,1-.75-.59,3.22,3.22,0,0,1-.36-1.71,3.69,3.69,0,0,0-1.94,2.79,2.15,2.15,0,0,1-.62.78c-1.73-.23-3.29,1.09-5,.85a2,2,0,0,1-.75-.58c-.19-.85.53-1.28.83-1.91.2-.44.54-1,.18-1.33s-1,.17-1.52.39c-.23.17-.46.35-.68.54-.5.52-.83,1.21-1.35,1.73s-.87.82-1.28,1.27c-.63.6-1.31.75-1.69-.14-.58-1.33-1.74-1.86-2.76-2.61a37.06,37.06,0,0,0-2.4-2.91,7.92,7.92,0,0,1-1.5-2.62,2.69,2.69,0,0,1,.32-1.6,3.53,3.53,0,0,1,3.52-1.24c7.51,1.26,14-2.2,20.31-6,4.79-2.89,9.94-5.2,13.64-9.93l-.05,0c.88-1.72,1.31-3.8,3.18-4.77h-.05c2.05-4.46,1.39-9.16,1.53-13.79l0,.06c-.91-2.84.31-5.67.37-8.5l0,.07c-.6-.75.15-1.68-.19-2.46l0,.08c-.69-.72.13-1.67-.25-2.44l0,.07c-1.92-6.31-4-12.52-7.48-18l.05.06c-1.66-1.22-3.36-2.41-3.9-4.74l0,.06a1.37,1.37,0,0,1-.68-.87l0,0c-1-.86-2.21-1.27-3.08-2.27l0,0c-.35-.44-1-.46-1.24-1.06l0,0c-.63-.93-2-.26-2.57-1.39l0,.06c-.66-.89-2-.29-2.61-1.33l0,0c-1-1-2.43-.66-3.58-1.19-1.21-1.74-3.62-.71-4.87-2.33l.07.07c-.43-.34-1-.39-1.35-.93l-1.17-.31c-1-1-2.58-.46-3.6-1.44a4,4,0,0,1,.49-3.65,2.73,2.73,0,0,1,1.46-1.08c1.77-.32,3.18,1.41,5,.84a1.92,1.92,0,0,0,1.55.34c.5.34,1,.7,1.64.3h0a2.27,2.27,0,0,1,2.69.55h0c.2.4.5.37.83.21l.93.24c.53.3,1.05.71,1.71.32l0,0a2.27,2.27,0,0,1,2.7.5,3,3,0,0,0,1.89.46.71.71,0,0,0,1,.21,1.29,1.29,0,0,0,1.21.21.41.41,0,0,1,.69.13.37.37,0,0,0,.5.17c1.6,1.27,3.85.54,5.42,1.89a.25.25,0,0,0,.39.17c.61.59,1.62.38,2.16,1.15a.26.26,0,0,0,.41.16C1022,178.56,1023,178.37,1023.54,179.06Z"/><path class="cls-3" d="M982.66,261c1.08.1,1.07,1.35,1.7,1.92a16.14,16.14,0,0,0,.36,3.55,3.13,3.13,0,0,1-.28,1.54,2.49,2.49,0,0,1-.67.74c-1.47.71-3-.12-4.51.53a5.38,5.38,0,0,1-.87.25l-.44,0a1.77,1.77,0,0,1-1.38-1.52c0-.25,0-.6-.29-.64s.17-.13-.13.28a3.52,3.52,0,0,1-.77.45c-1.09.45-2.14,1-3.25,1.34-1.49.47-2.5.17-2.26-1.84a5.83,5.83,0,0,0,.69-.8c-.44.1-.38.7-.75.88a1.87,1.87,0,0,1-1.15.84c-3.86.79-4.74-.08-4-4.52-2.64,2.14-4.37-.14-6.43-.84-4.3,1.07-4.17-3.07-5.53-5.47-.6-1.34-1.77-2.16-2.56-3.32a2.47,2.47,0,0,1-.28-1c-.08-.66,1-2.12-.87-1.57a2.05,2.05,0,0,1-.75-.59c-1.25-1.54-1-3.47-1-5.32-.07-.9.15-1.87-.44-2.65a5.94,5.94,0,0,1-.53-.78c-.93-1.9.7-3.08,1.22-4.55.08-.19,0-.35-.19-.39a2.59,2.59,0,0,1-.91,1.86,1.84,1.84,0,0,1-1.4,0c-2.7-2.15-3.06-3.66-1.24-6.61,1.54-2.5.33-3-1.62-3.17a3,3,0,0,1-2-1.22,5.12,5.12,0,0,1-.73-1.29c-.11-.31-.2-.63-.28-1-.15-1.54-1.23-2.58-1.67-4a20.35,20.35,0,0,1,.12-3.74c.41-1.41,1-2.78.73-4.3v0c-1.35-3.84-.21-7.47,1.15-11.09,1.92-1.14.92-3.77,2.36-5.16l0,.06c.69-.51.32-1.75,1.25-2.09l-.06.08a18.37,18.37,0,0,1,7.54-5.37l-.08,0c.42-.58,1.07-.29,1.56-.56l0,0c1.52-2.62,4.22-2.34,6.42-3.27l-.07,0a4.87,4.87,0,0,1,2.44-1l0,.06c.41-.82,1.18-.77,1.84-1a12.08,12.08,0,0,0,2-.7c.26-.08.53-.14.79-.2a3.73,3.73,0,0,1,.82-.07l-.09,0c.39-.65,1-.34,1.56-.58l-.07,0c.43-.51,1.06-.23,1.55-.52l0,0c.81-.71,1.71.29,2.53-.26a4.69,4.69,0,0,1,1.24-.48l0,0a.72.72,0,0,1,.59-.34c.34.08.67-.14,1-.08l0,0a1,1,0,0,1,.56-.55,2.85,2.85,0,0,1,.77-.05,4.31,4.31,0,0,1,1.13.19l.36.13a.6.6,0,0,0,.63.08c3.13,0,6.28-.16,9.3.83l1,.21c.3.06.62.11.92.14s.29.9.87.5l.42-.1a2.13,2.13,0,0,1,.83.18c.64.34,1.28.67,1.89,1.07a6.88,6.88,0,0,1,1.49,1.64l0-.07c2,1.53,4.71.41,6.6,2.12a2.61,2.61,0,0,1,.58,2.12,1.59,1.59,0,0,1-.73.7c-.49.28-1.22.12-1.48.74-.13.33.44.44.71.64a1.54,1.54,0,0,1,.43.84c-.86,2.65-5.54,5.24-8.36,4.69-1.19-.23-2.32-1.21-3.62-.25-1.23,1.16-2.47-.32-3.7.17h0c-.49.42-1.08.23-1.62.36l.09,0c-5.12,1.23-9.91,4-15.18,4.58l.07,0c-.42.55-1.06.27-1.55.54l.05,0a8.87,8.87,0,0,1-2.41,1.05l.06,0a1.63,1.63,0,0,1-.93.62l.08-.05a1.49,1.49,0,0,1-.91.65l.08-.06a1.4,1.4,0,0,1-.93.64l0-.06c-1,1.89-2.93,2.81-4,4.67-2.21,3.66-3.11,7.33-1.83,11.51C957,225.82,957,230,960,232.72a6.47,6.47,0,0,1,.36,1,6.06,6.06,0,0,1,.15,1c.37.95-1.57,3.09,1.17,2.81a2.42,2.42,0,0,1,.89.11,2,2,0,0,1,.71.57,3.18,3.18,0,0,1,.41.85,8.47,8.47,0,0,1,.27,1.42,8.18,8.18,0,0,1,0,1,20.76,20.76,0,0,1,3.54,6.32c1.09,1.45,2.51,2.63,3.18,4.42-.22.3-.42.63.25.4.53.19.83.7,1.29,1a2.48,2.48,0,0,1,1.21,1.12c0,.72.31.62.7.23a1.78,1.78,0,0,1,.82.17,8,8,0,0,1,1.15.69C977.28,259.05,979.43,260.79,982.66,261Z"/><path class="cls-4" d="M1076.07,223.61l-.23-.15-.27.08c-1.48.51-2.77-.38-4.16-.49-1.41-1.56-3.23-.67-4.87-.66-3.81,0-4.22-.59-2.94-4.57.21-.64,1.14-1.26.12-2.73a14.93,14.93,0,0,1-1.16,5.87c-.28.88-1.24,1.85-1.73.72-1.37-3.15-4.83-3.59-6.49-6.26a3.12,3.12,0,0,1,1.88-4.22c2-.67,3.21,1.16,4,3.06,2.54-5.52,2.54-5.52,7.81-4.88.3-.11.61-.21.92-.3l1.8.36c.68-.66,1.53.24,2.21-.37h0c.55-.32,1.15-.17,1.73-.31l2.51.4c1-.49,2,.47,3,0a.41.41,0,0,0,.57,0c1.22-.55,2.35.66,3.57.07l0,0c1.25-.73,2.43.56,3.68,0a.4.4,0,0,0,.53.07c1.25-.64,2.41.61,3.66.05a.47.47,0,0,0,.57,0,18.63,18.63,0,0,1,8.11,1.82q.15.32.42.12a4.94,4.94,0,0,1,1,.78,3.33,3.33,0,0,0,2,1,.93.93,0,0,1,.51.78c-.76,2.15-.62,5.57-4.32,3.17-1-.68-2.38.65-2.87,1.64-1.82,3.66-4.67,4.53-8.07,4.4a7.46,7.46,0,0,0-3.06.58c-.61.2-1.25-.11-1.86.21l.06,0c-1.48.79-2.82-.7-4.29-.13l.07,0C1078.94,224.58,1077.56,223,1076.07,223.61Z"/><path class="cls-5" d="M914.24,219.07,914,219l-.22.12c-.94.61-2,.51-3,.89h0c-.48.33-1.07.11-1.56.39l0,0c-.45.44-1.07.18-1.55.48h0a6.18,6.18,0,0,1-2.62.94l-.22-.08-.21.15a2.5,2.5,0,0,1-.91.45l.1-.06c-.69.76-1.54-.08-2.26.36l.06,0c-.44.51-1.06.24-1.57.5l.07,0c-.64.73-1.51-.21-2.16.44h0a2.88,2.88,0,0,1-.76.39c-.42.08-.84.06-1.25.15a2.18,2.18,0,0,1-.84.06c-1.12-.54-.79-1.31-.21-2.1.16-.12.34-.34.26-.5-.18-.45.23.08-.22,0a1.85,1.85,0,0,1-.56.19s-.22.24-.22.24.06.32.06.33a.94.94,0,0,1-.8.65.54.54,0,0,0-.55,0c.17.08.37.13.42.38a1.74,1.74,0,0,1-.24.84,1.86,1.86,0,0,1-1.13.64,1.11,1.11,0,0,1-.74-.43,2.64,2.64,0,0,1-.17-.93,4.27,4.27,0,0,1,.14-.94,8.81,8.81,0,0,1,.86-2.13c.23-.43.11.27.23-.22-.18,0-.2.22-.34.27a16.64,16.64,0,0,0-1.62,2.38,6,6,0,0,1-.61.8,8.05,8.05,0,0,1-1.16.88c-1.28,1.34-2.77,2.5-3.47,4.39a.92.92,0,0,1-.66.54,2.67,2.67,0,0,0-2.08.23,5.08,5.08,0,0,1-.81.4,2,2,0,0,1-.91.11l-.45-.14c-1.81-1.2-3.45-2.51-2.62-5.32a1.38,1.38,0,0,1,.63-.77l-.06,0a1.59,1.59,0,0,1,.94-.58l-.05.05c.37-.45.41-1.18,1.05-1.4l-.1.08a27,27,0,0,0,3.79-3.91l-.06.1a39.38,39.38,0,0,0,4.18-3.11l-.08.05a1.77,1.77,0,0,1,.89-.67l-.06,0a1.51,1.51,0,0,1,.94-.59l-.08.08c.38-.48,1-.54,1.4-1a3.71,3.71,0,0,1,.62-.57c.22-.17.46-.32.69-.47l.34-.23a6,6,0,0,1,.69-.42A4.37,4.37,0,0,1,894,211c.5-.21,1-.45,1.47-.68a2.22,2.22,0,0,1,.8-.15,2,2,0,0,0,1.19.1l-.07,0c.72-.76,1.75,0,2.48-.74a4.66,4.66,0,0,1,.87-.23c1.33-.16,2.57-.79,3.89-.95a4.19,4.19,0,0,1,.86-.09,3.62,3.62,0,0,0,1.67.13.31.31,0,0,0,.47,0c.5-.34,1.07-.13,1.59-.32l0,0a3.35,3.35,0,0,1,1-.86,3.14,3.14,0,0,1,.83-.24c.56-.08,1.12-.14,1.67-.24a7.86,7.86,0,0,1,.83-.11c.41,0,.83-.07,1.24-.09a7.71,7.71,0,0,1,.84.09,2.57,2.57,0,0,0,2.48-.25,1.82,1.82,0,0,1,.89.17,1,1,0,0,1,.38.86c-1.43,2.23-2.22,5.08-5,6-.28.09-1.17.52,0,1.11,1.62.84.65,2.6.69,4A.66.66,0,0,1,914.24,219.07Z"/><path class="cls-6" d="M1044.93,162.86a.35.35,0,0,0,.5,0,3.65,3.65,0,0,0,1.66-1.15h0c.5-.3.5-1.09,1.1-1.27l-.08.06a1.27,1.27,0,0,1,.94-.61l-.08.07a1.5,1.5,0,0,1,.86-.73l-.06.06a.87.87,0,0,1,.89.14c.66.88,1.16,1.59.25,2.89-1.38,1.95.6,2.74,1.43,3.85,1,1.39,1.93.64,2.7-.55,5-2.08,4.16-6.38,3.73-10.53a1.13,1.13,0,0,1,.6-.77l-.07,0c.42-.46,1.06-.14,1.49-.56h0a4.33,4.33,0,0,1,.92-.5l-.07.05a8,8,0,0,1,2.4-1.08l-.06,0c.48-.46,1-.28,1.41,0,1,2.35-.62,5,.45,7.33a2.69,2.69,0,0,1,.1,1,2.59,2.59,0,0,0,.5,3.4,2,2,0,0,1,.14,1c-.21.81-.83,1.06-1.46,1.29h0c-.47.43-1.07.19-1.58.43l.05,0a1.27,1.27,0,0,1-1,.58l.09-.08a12.43,12.43,0,0,1-3.18,1.81h0c-.88.73-2,.5-3,1l0,0a12.08,12.08,0,0,1-3.34,2.32h0c-.78.4-.37,1.67-1.26,2l.09-.07a1.28,1.28,0,0,1-1,.59l.09-.08a21.88,21.88,0,0,1-3.1,1.88h0c-.53.23-.52,1.08-1.15,1.18l.06-.1a1.33,1.33,0,0,1-.65.63,2.14,2.14,0,0,0-1.35,1.17,2.71,2.71,0,0,1-.62.73,6.44,6.44,0,0,1-4.5.38c-.59-.17-1.27-.11-1.7-.7l-.18-.2-.26,0c-.45-.38-1.1-.45-1.41-1l0,0c-.32-.48-1-.49-1.22-1.07l0,0c-.18-.24-.35-.49-.52-.73-.36-.52-.94-.73-1.37-1.14-.52-.92-.17-2-.2-2.93a1.45,1.45,0,0,1,.73-.63c2-.1,2.4-2.05,3.41-3.31a3.59,3.59,0,0,1,1.39-1.37l.06-.05c.56-.17.54-1,1.13-1.16l-.06.06a4.39,4.39,0,0,1,2.47-1.89h0a4.65,4.65,0,0,1,.87-.6l0,0A2.48,2.48,0,0,1,1044.93,162.86Z"/><path class="cls-7" d="M947.88,320.88a.39.39,0,0,0,.16-.49c1.52-3.07,1.09-6.73,2.78-9.74a.25.25,0,0,0,.12-.4,2.11,2.11,0,0,1,.65-.77c1.64-2.14,3.18-4.29,5.64-5.56,1.69-.88,2.46-3,3.44-4.69s2.16-3.47,4.38-2.64c.87.33,1-.09,1.06-.78a4.23,4.23,0,0,1,1.29-2.62c.87-.76,1.69-2.14,2.94-1.48s.65,2.1.45,3.33a14.2,14.2,0,0,1-1.38,4.65c-1,1.89-2.67,3.67-.77,6,.29.34-.21,1.17-.65,1.64-2.17.59-2.49-1.58-3.4-2.63a85.59,85.59,0,0,0-7.41,19.14c-3.53.39-5.79,1.92-5.4,6.35a3.29,3.29,0,0,1-2,3.28c-1.53.61-1.84-.84-2.34-1.91-.26-.55-.74.39-1.09,0-.39-1.27.18-2.66-.28-3.92C946.73,325.35,946.67,322.94,947.88,320.88Z"/><path class="cls-8" d="M1061,268.39c0,.23.17.31.38.24a2.15,2.15,0,0,1,.82.82l0,0a7.17,7.17,0,0,1,.36.91c0,1.9,1.08,2.64,2.53,3.08a2.4,2.4,0,0,1,.66.72,3.58,3.58,0,0,1,.36,1c-.05.17-.11.34-.16.51-4.86,4.1-4.82,4.09-6-2.33-.36-1.88-.09-4.54-3.07-4.15-.45,1,0,1.49.52,2,1.29,1.39,1.1,2.72-.54,3.61-1.36.74-1.33,2-1.39,3.19-.08,1.52.18,2.62,1.94,1.5a1.26,1.26,0,0,1,1.87.19,2.09,2.09,0,0,1,0,2.46,38.83,38.83,0,0,1-2.61,4.05c-.38.14-.61,0-.67-.42l0,.08a5.51,5.51,0,0,1-1.77-2l0,.09c-.32-.18-.45-.54-.66-.83h0c-.22-.55-1-.51-1.09-1.18l.06.1a1.47,1.47,0,0,1-.61-.93l0,.06a3.12,3.12,0,0,1-.61-.86h0c-.48-.74-1.31-1.16-1.59-2.08l0,.11a1.13,1.13,0,0,1-.58-1l.06.09a1.45,1.45,0,0,1-.65-.89l0,0a7.31,7.31,0,0,1-2.13-3.53h0a8.08,8.08,0,0,1-2.08-3.44c-.2-1.33-.37-2.68-.56-4-.37-2.61,1.39-5.57,3.75-5.77,1.73-.14,3.6-1.46,5.28,0,.22.21.43.43.65.66a.86.86,0,0,1-.21.78c-.28,0-.33.11-.13.3a.4.4,0,0,1,.37-.46,1.4,1.4,0,0,1,1.23.11c.41.19.89.26,1.08.79l0-.05c.34.45,1,.45,1.2,1.13l-.06-.09a2.42,2.42,0,0,1,.67.82h0c.23.55,1,.52,1.11,1.15l0-.08a2.42,2.42,0,0,1,.62.88l0,0a6.38,6.38,0,0,1,.81,1.05c.12.26.23.53.34.8S1060.83,268.16,1061,268.39Z"/><path class="cls-4" d="M1009.18,279.09l2.68.6c1.14-.21,1.73.79,2.56,1.28l0,0c.72.82,2.17.58,2.46,2l0,0c.68.83,1.8,1.09,2.3,2.14l0,0c.71.92,1.41,1.84.65,3.17l.07-.05a2.41,2.41,0,0,0-.53,1.48,1.24,1.24,0,0,0,.19.71,3.53,3.53,0,0,1,.36,1.11l0-.07c.43.47.16,1.15.39,1.69l0-.07c.41.49.17,1.16.35,1.71l0-.08c.45.48.2,1.16.36,1.71l0-.07c.49.42.18,1.14.48,1.63v0a.66.66,0,0,1,.12.59c-.06.21-.11.31-.16.3a1.63,1.63,0,0,1-1.74,0c-.19-.06-.31-.48-.34-.39a2.35,2.35,0,0,1-.38.91c-2.3.88-2.23-.92-2.21-2.42s.53-3,.18-4.48c-.22-.93-.08-2.17-1.21-2.44s-1.66.67-2.29,1.44c-1.89,2.34-1.9,2.34-4.18.64-2,2.69-.09,6.56-2.66,9.06-1.71-.82.14-2.43-.54-3.48l0,.07c-.57-.82.12-1.77-.15-2.62a.37.37,0,0,0,0-.5c-.26-.52,0-1.15-.25-1.68V293c-.58-.74.2-1.67-.21-2.43v.06c-.3-1.82-.11-3.69-.26-5.53l0,.06c-.58-.72.22-1.66-.25-2.4v0c-.51-.75.23-1.66-.18-2.42l0,.06a1.92,1.92,0,0,1,1.28-2.77l0,0a1.3,1.3,0,0,1,2,.46l0-.05C1008.26,278.5,1008.92,278.51,1009.18,279.09Z"/><path class="cls-9" d="M1077.39,287.38a.45.45,0,0,0,.49.27,6.65,6.65,0,0,1,2.23,3.22c1,4.6-.17,6.49-4.2,6.86-1,.09-1.93.74-3,.66a1.4,1.4,0,0,1-1.29-.49l-.68-.17a.42.42,0,0,1-.68-.14l-.22-.19h-.29a34.43,34.43,0,0,1-4.53-2.57l0,.05a7.41,7.41,0,0,1-2.46-2v0c-.29-.5-1-.5-1.19-1.08l0,0c-.82-.67-1.84-1.06-2.43-2.06l0,0c-.28-.51-1-.5-1.16-1.14l.06.08a2.22,2.22,0,0,1-.63-.87v0a2.75,2.75,0,0,1-.35-1,1.2,1.2,0,0,1,.09-.72c1.35-1.68,3.9-2.3,3.84-5.26,0-.39,1-.4,1.54-.26a2.86,2.86,0,0,1,.83.51c2.64,1.82,3.41,5,4.7,7.9,1.6-.23,3-2.52,4.69-1.09.91.76.44,2-.1,3.06,1.2-1.52,1.76-3.78,4.13-3.6Z"/><path class="cls-10" d="M982.41,163.82a.4.4,0,0,0,0-.52c-.45-.78.24-1.66-.11-2.45l0,.08c-.73-1,.42-2.15-.09-3.17l0,.06c-.45-1,0-2.15-.3-3.19-.07-.72.22-1.42.21-2.13.41-3.89.34-3.7,3.72-2.4,1.92.73,4,1.69,6.2.88,1.08.39.66,1.5.87,2.31l0-.09c.7.69-.17,1.67.3,2.4v0c.36.51.14,1.16.31,1.72l0-.08c.67.71-.15,1.67.25,2.42l0-.07c.71,1.31-.56,2.63-.13,3.94l0-.07c.47.59.4,1-.31,1.35l.07-.06c-1.46,1.37.11,3.1-.61,4.57-.6.75-1.45.44-2.17.68a2.83,2.83,0,0,1-1,.13,2,2,0,0,1-1.23-3.37c2-2.1,1.32-4.88,2-7.39.4,4.54-3.45,6.33-5.15,9.49a1,1,0,0,1-1.29.31,2.86,2.86,0,0,1-.69-.61,3.36,3.36,0,0,1-.43-.79,3.57,3.57,0,0,1-.19-.86c0-.41,0-.82-.08-1.23l-.18-.75a2.16,2.16,0,0,1-.07-.76Z"/><path class="cls-11" d="M935.3,287.19a.26.26,0,0,0,.15-.4,6.73,6.73,0,0,0,.81-2.63,2,2,0,0,1,.35-.87,8.27,8.27,0,0,1,.61-.7c.1-.11.21-.22.31-.34a18.25,18.25,0,0,0,2.4-3.48,4.93,4.93,0,0,1,.58-.78,2.84,2.84,0,0,1,.78-.51l.41-.2a6.71,6.71,0,0,0,1.3-2.55,2.32,2.32,0,0,1,.62-.7c.81-.27.56-1.46,1.32-1.78l-.05.05c.67-2.13,1.8-3.13,3.82-2a3,3,0,0,1,.63.61,7.92,7.92,0,0,1,.47.71c.07.11.13.24.2.35a6.18,6.18,0,0,0,.74.87,2.12,2.12,0,0,1,.47.6c.12.23.24.46.37.69a4.09,4.09,0,0,1,.31.75,5.43,5.43,0,0,1,.26,1.26,3.13,3.13,0,0,1-.13.91c-.6,1.31-2,1.74-2.67,3l.12-.1c-.39.63-1.05.32-1.55.58l.06,0a10.33,10.33,0,0,1-2.38,1.12l0,0a2.11,2.11,0,0,1-.92.59l.07-.05a2.45,2.45,0,0,1-.85.69l0,0c-.74.46-.34,1.72-1.27,2.05l.07-.07a6.15,6.15,0,0,1-1.88,2l.1-.07c-.43.55-1.07.28-1.58.52l0,0a9.08,9.08,0,0,1-1.87,2l.07-.05a4.17,4.17,0,0,1-.81.71h0c-.51.27-.51,1.05-1.08,1.26l.08-.05c-.82.46-1.52.48-1.93-.56l.24-1C934.79,288.86,934.54,287.73,935.3,287.19Z"/><path class="cls-12" d="M896.85,285.13c.18-.08.22-.21.14-.4.77-.87.32-2.37,1.4-3.09l0,.07a3.22,3.22,0,0,0,.52-1.36,2.39,2.39,0,0,1,.67-.71,1.76,1.76,0,0,1,2.19.14,2.37,2.37,0,0,1,.35,2.57c-.38.22-.23-.38-.19.11,0,.31.25.28.34-.07,3,1.37,4.13,4.11,4.72,7.32a1.68,1.68,0,0,1-.9,1.22l.06,0c-.39.42-.43,1.18-1.07,1.37l.07-.06c-.79,1.35-2.51,1.21-3.34,2.49l.06,0c-.67.67-1.51-.2-2.19.39h0a7.31,7.31,0,0,1-.87.58l0,0c-.47.34-.5,1.08-1,1.34l.06,0c-1.1.69-1.71-.36-2.5-.75a4.88,4.88,0,0,1-.56-1.09A27.51,27.51,0,0,1,896.85,285.13Z"/><path class="cls-13" d="M1065.79,160.28a1.52,1.52,0,0,1-1.1-1.17c-.5-2.32.25-4.54.64-6.79-.17-.2-.2-.35-.1-.47s.19-.17.27-.15h0c.28-.18.55-.38.83-.58h0a4.91,4.91,0,0,1,.89-.56l0,0c.46-.43,1.07-.19,1.56-.46l0,0a1.56,1.56,0,0,1,.94-.59l-.09.07a6.88,6.88,0,0,1,2.38-1.14l-.06,0c.52-.47,1.15-.25,1.73-.4a.33.33,0,0,0,.48-.08,1.93,1.93,0,0,1,1-.1,2.14,2.14,0,0,1,1.65,2.69c0,.25-.4.57-.24.59,2.45.27,2.45.25,2.58,2.69a9.17,9.17,0,0,1,0,2.22,2,2,0,0,1-.59,1.45h0a3.23,3.23,0,0,1-2.49,1.78h0a4.25,4.25,0,0,1-.91.31c-.66.16-1.43.48-2-.06C1070.47,157,1068.13,158.47,1065.79,160.28Z"/><path class="cls-14" d="M983.69,292.69a.35.35,0,0,0,.09-.5c-.42-1.52.41-3,.25-4.54.56-2.31,1.34-3.8,3.68-1.78.83.71,2.09.81,2.95,1.62a3.1,3.1,0,0,1,.73.67,14.91,14.91,0,0,0,1.19,1.64c.38.85,1.59,1.61.16,2.66l0,0c-.43.81-1.42,1.28-1.26,2.44l0,.18c-.35.54-.44,1.29-1.09,1.6l.06-.06c-.62.59-.39,1.66-1.1,2.2h0a2.41,2.41,0,0,0-.6,2.32l0-.07c.49.57.38,1-.27,1.38l.06-.06a12,12,0,0,1-.79,1.08,3.37,3.37,0,0,1-.62.63,4.74,4.74,0,0,1-.75.44,1.52,1.52,0,0,1-2.06-1.5l0,.06c-.4-.44-.35-1.11-.68-1.58a6.54,6.54,0,0,1-.08-.89,13.07,13.07,0,0,1,0-1.77,8.64,8.64,0,0,1,0-.88c.12-.78-.31-1.43-.36-2.17a2.73,2.73,0,0,1,.14-.9A3.13,3.13,0,0,0,983.69,292.69Z"/><path class="cls-15" d="M1067.83,242l-.23-.11-.24.12a2.13,2.13,0,0,1-.93.48l.08-.05a1.13,1.13,0,0,1-1,.6l.1-.08c-.38.65-1.07.3-1.55.62l-.3-.09-.33.06c-2.47-.55-5.43.4-7.14-2.5l0,.07a1.51,1.51,0,0,1-.57-1l0,.08a1.56,1.56,0,0,1-.55-1l0,.09a1.78,1.78,0,0,1-.6-.93l0,0c-.33-.46-1-.46-1.2-1.12l.06.09a1.46,1.46,0,0,1-.58-.95l0,.07a1.26,1.26,0,0,1-.51-1l.07.12c-.65-.84-.35-1.52.37-2.14l-.1.06c1-.73,2.08.3,3.11-.12l1.52.32c1.44,1.11,3.44.52,4.85,1.71h0c.31.85,1.55.32,1.75,1.34l-.06-.07a6.09,6.09,0,0,1,1.81,1.93l0-.05c.36.43,1,.45,1.24,1.07l0,0c.35.45,1,.46,1.23,1.09l-.07-.08C1068.59,241.24,1068.69,241.75,1067.83,242Z"/><path class="cls-15" d="M1053.51,260.62c-1.26-.62-2.49-1.09-3.77.15a.89.89,0,0,1-1.25,0c-.81-.62-1.49-.26-2.09.46-.39.46-.72,1-1.11,1.45a2.72,2.72,0,0,0-.57,3A7.18,7.18,0,0,1,1045,270c-1.53-.81-2-2.47-2.55-4v0a1.68,1.68,0,0,1-.45-1l.06.09a6.4,6.4,0,0,1-1-2.53l0,.07c-.6-.74.17-1.67-.2-2.45l0,.06a1.28,1.28,0,0,1-.5-1l.07.09c-.66-.66-.69-1.66-1-2.49v0a1.64,1.64,0,0,1-.44-1l.07.1c-.79-1.55-1.22-2.82,1.31-2.34,1.29.25,2.54.9,3.93.53l-.06,0a1.34,1.34,0,0,1,2,.37.23.23,0,0,0,.37.14c.5.33,1.14.45,1.47,1l0,0c.45.74,1.51.36,1.91,1.18l0,0c.3.5,1,.49,1.24,1a.24.24,0,0,0,.35.2c.51.35,1.19.41,1.45,1.13l-.07-.1a1.64,1.64,0,0,1,.59.95l-.06-.05c.21.14.28.28.21.43S1053.57,260.64,1053.51,260.62Z"/><path class="cls-16" d="M928.12,185.78a.53.53,0,0,0,.6.08c2.62-1,3.33,1.27,4.34,3,1.62,2.38,1.29,4.68-.45,6.93l-.78.63c-1.23,1.08-2.25.94-3-.53-.56-.78-1.58-.67-2.23-1.27a2.71,2.71,0,0,1-.81-1.41c-.09-.23-.18-.46-.28-.68a2,2,0,0,0-.78-.65,7.25,7.25,0,0,1-1-.51,2.11,2.11,0,0,0-1.14,0,2.77,2.77,0,0,1-1.71-.4c-.91-.66-2.32-.33-2.88-1.67,0-.18,0-.36,0-.54l.44-.28h-.09c.46-.61,1.21-.66,1.75-1.12a5.7,5.7,0,0,1,.67-.52,5.08,5.08,0,0,1,1.2-.38,4.43,4.43,0,0,1,.81.07c.52.09,1,.31,1.57-.05h0c.51-.37,1.11-.15,1.65-.37a.44.44,0,0,0,.56,0C927.05,185.83,927.62,186.07,928.12,185.78Z"/><path class="cls-17" d="M1086.2,223.41c1.34-1.46,3.26-.85,4.77-1.78.31-.19.88.11,1.32.22,1.61.41,2.2.36,2.85-1.11.95-2.17,2.66-3.44,4.25-4.88,1-.9,1.42-.81,2.21.36.2.29.29.7.53.93a.53.53,0,0,0,.87-.19c.49-1.13.62-2.46,1.57-3.35a5.07,5.07,0,0,1,3.15,1.55l-.07-.07c.71.6,1.69,1.06,1,2.4l0,0c-.27.23-.56.42-.84.62h0a3.41,3.41,0,0,1-1.71,1.16l0,0c-1.53,1.73-3.58.28-5.25,1.22l0,0c-.46,2-1.87,2.74-3.53,3.13l.06,0c-.8.6-1.65-.06-2.46.23l-1.11-.06c-2,1.36-3.91-.25-5.86.15l-.26-.11-.27.1C1087,224.11,1086.48,224.06,1086.2,223.41Z"/><path class="cls-18" d="M925.31,238l-.63-.33c-.95.66-1.93-.48-2.89.17h0a1.21,1.21,0,0,1-.79.22c-.59-.19-1.09.16-1.63.35a.94.94,0,0,1-.69-.49,2.38,2.38,0,0,1,0-1c.2-.44.38-.91.87-1.07l-.09.06c.68-.64,1.59-.7,2.32-1.2h0a4.13,4.13,0,0,1,1.71-1.14h0a12.15,12.15,0,0,1,2.42-1l-.06,0c.61-.36,1.18-.82,1.78-1.2l-.06,0c1.4-2,2,.19,3,.56a5.62,5.62,0,0,1,.69.69,5.19,5.19,0,0,1,.55.83c.06.17.11.33.17.49.75,2.19,2.24,4.29.42,6.76l.1-.12c-1.39,1.43-2.79-.44-4.18.19a6.71,6.71,0,0,1-.83.36C924.7,241.68,926,239,925.31,238Z"/><path class="cls-19" d="M914.62,218.47a1.94,1.94,0,0,1-.31-1.74c.09-.48.13-1,.2-1.47-.84,0-1,1.82-2,.75-.66-.7,0-1.35.27-2a3,3,0,0,1,2.31-2.11c1.32-.16,1.91-.59,1.67-2.1-.09-.52.42-.86.79-1.17.56-.46,1.11-.93,1.66-1.4a.94.94,0,0,1,.7-.38c.69,0,1.34-.37,2-.41a1.48,1.48,0,0,1,1.12.71c.91,3.38-1.95,6.28-1.34,9.73.17,1-1.36,1-2.26,1.18-.45.12-.91.2-1.35.36l-.29-.13-.3.08c-.49.32-1.06.1-1.57.33l.07,0A.81.81,0,0,1,914.62,218.47Z"/><path class="cls-20" d="M1059.42,184.56a.29.29,0,0,0,.46,0c.48-.34,1.06-.08,1.54-.39l0,0c.67-.64,1.51.23,2.18-.37h0c1.65.33,4.17-1.06,4.24,2.41l.12-.07c-.14.37-.5.52-.73.79l0,0a11.32,11.32,0,0,1-2.47,1.75l0,0c-.56.41-1.05,1-1.77,1l.06,0a1.42,1.42,0,0,1-.93.63l.08-.06a1.62,1.62,0,0,1-.87.7l.06,0a2.68,2.68,0,0,1-.87.66l0,0a3,3,0,0,1-.88.62l0,0a1.67,1.67,0,0,1-.86.38c-1.74.64-3.27-.66-5-.47a1.51,1.51,0,0,1-.81-.48c-1.34-2.56,1.82-2.87,2.08-4.63a3.15,3.15,0,0,1,.5-.78,4.65,4.65,0,0,1,1-.83c.35-.22.77-.28,1.13-.49h0C1058.23,184.54,1058.84,184.7,1059.42,184.56Z"/><path class="cls-21" d="M1031.66,270a.33.33,0,0,0,.48.14c.53.68,1.62.33,2,1.23l-.06-.07c.42.46.14,1.15.41,1.66v0c.37.44.06,1.14.44,1.58v0a5,5,0,0,1,.41,1l0-.07a1.55,1.55,0,0,1,.54,1l0-.08a1.23,1.23,0,0,1,.54,1l-.07-.09c.64.67.65,1.67,1,2.47h0a1,1,0,0,1-.39,1.42l0-.06a3.77,3.77,0,0,1-1.58,1.34l-.05,0c-1.21.1-2.42.18-3.34-.89l.06.08a5.26,5.26,0,0,1-.63-.84h0a7.31,7.31,0,0,1-1.53-2.67h0a5.34,5.34,0,0,1-.47-1l0,.06a1.67,1.67,0,0,1-.49-1l.06.08a4.38,4.38,0,0,1-.75-2,6.39,6.39,0,0,0-.35-1.28c0-.31,0-.61,0-.92a2,2,0,0,1,.87-2,1,1,0,0,1,.82.13c.39.62.26-.14.28-.17.2-.46,0,.17.19-.29C1030.72,269.32,1031.25,269.28,1031.66,270Z"/><path class="cls-22" d="M1037.53,249.47a.92.92,0,0,0-.24.63c-.71.52-.38,1.71-1.21,2.15l0,0c-.69.51-.34,1.7-1.21,2.1l.07,0a2.17,2.17,0,0,1-.87.64l0,0c-.43.38-.47,1.1-1,1.38l0,0a3.86,3.86,0,0,1-1.62,1.28h0a.55.55,0,0,0-.3.47c0,.19,0,.29.07.3v0a.88.88,0,0,1-.34,1.41l.08-.05c-.4.5-1,.18-1.49.57h0c-.5.28-.51,1.06-1.08,1.27l.06,0a2.29,2.29,0,0,1-.87.65l.05,0a10.41,10.41,0,0,1-.81.68h0c-.3.16-.57.4-.88.53l0,0a1.86,1.86,0,0,1-.68.36,2.25,2.25,0,0,0-.78.94,2,2,0,0,1-.74.43,3.09,3.09,0,0,1-2.56-.19c-.77-1.26-.91-2.34.86-2.64,1-.17,2.09,0,2.69-1.23.34-.58.48-1.27.86-1.83a8.09,8.09,0,0,1,.67-.76c1.93,0,2.13-2.08,3.1-3.23,1.86-2.24,3.85-4.39,4.91-7.26a7.87,7.87,0,0,1,.49-1c1.73-1.74,2.71-4.75,5.81-4.14-.23.9-.1,1.93-.9,2.61l0,0c-1,.94-.39,2.67-1.51,3.57l0,0Z"/><path class="cls-23" d="M1078.8,156.14c-.8-1.28-.67-2.77-.63-4.23,0-.51,0-1-.57-1.08-.22,0-.5.42-.74.67a3.45,3.45,0,0,1-.46.54c-.25.18-.59,0-.49-.21.92-1.77,0-2.7-1.18-3.58-.11-.22-.11-.39,0-.5s.19-.14.27-.13l-.11,0c.46-.55,1.11-.26,1.64-.5a.45.45,0,0,0,.57,0c.54-.25,1.11-.09,1.65-.27a.37.37,0,0,0,.52,0c.51-.33,1.1-.09,1.62-.34a.55.55,0,0,0,.58,0c1-.36,1.79.15,2.68.27,1.79,1.25,1.62,3.3,1.66,5.26-.23.56-.44,1.13-1.07,1.3l.12-.07c-.31.64-1,.26-1.41.72l0,0a6.22,6.22,0,0,0-.84.53h0a3.2,3.2,0,0,1-.91.52l.07,0c-.78.45-1.78.27-2.43,1.1l0-.08C1079.17,156.46,1079,156.49,1078.8,156.14Z"/><path class="cls-24" d="M1068.63,209.69a1.69,1.69,0,0,1-1.62.41l-3.15-.67c-1.68,2.08-2.26,4.56-3.64,6.55-.88-.7-.81-1.65-1.06-2.44s-.56-1.16-1.22-1c-.82.23-1.23-1.33-1.56-.75-.6,1.07-2.31,1.65-1.64,3.4l-.34.26a1,1,0,0,1-1-.55h0a7.87,7.87,0,0,1-2.81-3.1l0,.1a1.24,1.24,0,0,1-.58-1l.06.11c-.6-2.21,1-1.49,1.93-1.76a.25.25,0,0,0,.42,0c.75-.49,1.53.17,2.28-.17l-.08,0c.7-.79,1.58.08,2.32-.37a.41.41,0,0,0,.55,0c.77-.41,1.56.21,2.33-.15a.44.44,0,0,0,.54,0c.77-.4,1.56.2,2.34-.15l1.2.13A7.42,7.42,0,0,1,1068.63,209.69Z"/><path class="cls-24" d="M1054.74,215.21c1.09.79,1.83,2.23,3.52,1.83.62-.15,1,.49,1.25,1,.62,1.14,1.3,2.24,2,3.38.81-.71.61-1.68.93-2.45s.61-1.33.92-2c-.46-.2-1.16-.31-1.19-.56a6,6,0,0,1,.2-2.13,1,1,0,0,1,.9-.23c1,.52,1.64,1.63,2.88,1.65,0,.23,0,.64,0,.66-1.38.36-1.92,1.12-2.07,2.82-.24,2.59-.43,2.73,1.88,2.4a2.46,2.46,0,0,1,1.57.13c.67.33,1,0,1.25-.75.12-.4.61-.72,1-1s.73-.2.78.27c.11.82-.31,1.77.49,2.41,0,.34-.16.5-.47.51l-.23-.14-.26.08c-1.28.65-2.47-.56-3.74-.07l-.23-.13-.24.08c-1.24.66-2.39-.6-3.62,0l.06,0a1.92,1.92,0,0,1-2.63-.62l.06.07c-.4-.38-1-.43-1.3-1l0,0c-.31-.48-1-.48-1.19-1.12l0,.06c-.38-.41-1-.47-1.31-1h0c-.53-.71-1.74-.83-1.57-2.16a.35.35,0,0,0,0-.5,1.12,1.12,0,0,1,.14-1.36Z"/><path class="cls-25" d="M1014.77,150.42a.35.35,0,0,0,0,.47c.23.53.93.51,1.12,1.1l0-.07a1.68,1.68,0,0,1,.47,1.12.49.49,0,0,0,0,.51,6.58,6.58,0,0,1-1,4.41l0,0c-.88.46-.23,2.44-1.84,2.17-1.65-1.78-3.33-3.53-4-6.09.31-1.1.22-2.31,1-3.26a.88.88,0,0,0,.21-.66c.73-.49.36-1.72,1.25-2.11l-.09.09c.54-.51,1-.39,1.3.22l0,0c.33.46,1,.47,1.23,1.07l0-.07A1.62,1.62,0,0,1,1014.77,150.42Z"/><path class="cls-26" d="M997.4,215.31a1.37,1.37,0,0,0,.27-.66c.54-2.19.49-4.51,1.52-6.58.71-.85,1.67-1.75,2.58-1.07,1.07.8.25,2.22.15,3.38a6.72,6.72,0,0,1-.4,1.46,5.56,5.56,0,0,1-.44.88c-.58.94-1.07,1.94-1.64,2.89-.19.26-.4.5-.59.75a.91.91,0,0,0-.18.27c.21.3.19-.15.33-.14.44-.31.76-.11,1.08.18a17.38,17.38,0,0,1,1.11,1.45,3.2,3.2,0,0,1,.36.9c.14.8-.43,1.39-.59,2.11-.67,3-1.11,3.12-3.8,1.37.36.34-.54-.26-.09-.36.14,0-.07-.47-.1-.39-.58,1.41-1.38,2.38-2.94,2.08a2,2,0,0,1-1.21-.85c0-2.3,2-2.79,3.14-4.08l0,0C997,218,996.35,216.26,997.4,215.31Z"/><path class="cls-27" d="M979.25,279.54l-4-.82a1.42,1.42,0,0,1-2-.49l0,0a1.75,1.75,0,0,1-.33-.94,1.92,1.92,0,0,1,.62-1.33c1.91-.47,2.26-3.39,4.45-3.48a2.33,2.33,0,0,1,.93-.21c2,1.32,1.09,4.86,3.63,5.78a.94.94,0,0,1-.5,1.28l.08,0C981.24,280.12,980.23,279,979.25,279.54Z"/><path class="cls-28" d="M1014.79,269.38l-.27-.14h-.32a.61.61,0,0,0-.8-.17h0a4.89,4.89,0,0,0-1.66,1.25h0c-.29.19-.56.4-.86.58l0,0a6.26,6.26,0,0,1-2.43.79c-.9,0-1.65-.17-1.86-1.27,1.57-1.6,3.89-1.86,5.33-3.69,2-2.07,4.51-1.9,7-2a2.87,2.87,0,0,1,.2,3.19c-.26.49-.32,1.15-.9,1.4l.08-.06c-.43.52-1.06.24-1.55.52l.06-.05A2.77,2.77,0,0,1,1014.79,269.38Z"/><path class="cls-29" d="M971.08,233.55c-1-1.64-2.3-3.07-2.8-5a4.62,4.62,0,0,1,1.11-2.32,1.71,1.71,0,0,1,1.35-.46c1.07.79.53,2.09.62,3.12a3,3,0,0,0,2.06,2.91c1.25.51,3,.52,3.41,2.13.49,2-2.23,1.34-2.49,2.92l-1.66-1.35,0,.06a1.87,1.87,0,0,1-.54-1l0,.06a2.45,2.45,0,0,1-.63-.88l-.18-.15Z"/><path class="cls-30" d="M1045.45,228.72c.07-.23.13-.46.22-.68.63-1.67.64-1.67-1-2.58a1.13,1.13,0,0,1,.3-1.45c.48.24.9.81,1.51.38a1.68,1.68,0,0,0,.74-1.57,8.46,8.46,0,0,0-.26-1.42c-.13-.6-.12-.59.28-2.37.19-.83-.23-1.7.2-2.52a.39.39,0,0,1,.52.33v0a4.34,4.34,0,0,1,.42,1l0-.09c1.14,3.72-.87,7.27-.89,10.93l-.07.21a1,1,0,0,1-.78.57A1.31,1.31,0,0,1,1045.45,228.72Z"/><path class="cls-31" d="M1085.29,152.3a40.21,40.21,0,0,0-1.25-5.23c0-.34.14-.51.45-.52l1.07.2c.65.94,2,.29,2.62,1.39l0-.07a2.78,2.78,0,0,1,.58.91l0,0a1.7,1.7,0,0,1-.5,2.18l0,0a2.88,2.88,0,0,1-1.69,1.21l0,0A.92.92,0,0,1,1085.29,152.3Z"/><path class="cls-32" d="M991.08,288.13c-1.28.05-2.12-1.47-3.55-1-.2.06-.54-.34-.78-.58-1.08-1.11-1.08-1.11-2.07.65a.69.69,0,0,1-.7-.3,2.55,2.55,0,0,1,0-.87c.06-.29.11-.59.15-.88a1.75,1.75,0,0,1,.38-.8,2.33,2.33,0,0,1,.72-.48,2.06,2.06,0,0,1,.82-.05c.52.13,1.1.12,1.41.72l0,0c.29.5.94.49,1.23,1a.37.37,0,0,0,.44.2c.44.39,1.13.43,1.38,1.1l-.06,0C990.88,287.07,991.37,287.39,991.08,288.13Z"/><path class="cls-33" d="M966.13,278.29l-1.3-.25a2.53,2.53,0,0,1-2.71-.58h0c-.16-.29-.33-.58-.51-.86a1.77,1.77,0,0,0-.59-.19c-.32-.35-.79-.59-.71-1.23,2.64-1.57,4.62.86,7,1.07a2.53,2.53,0,0,1,.7.72.82.82,0,0,1-.25.92h0C967.2,278.22,966.61,278,966.13,278.29Z"/><path class="cls-25" d="M1007.94,163.14c.08-.42.15-.84.23-1.26-.46-1.09.2-2.09.3-3.13.52-1.12,1-.77,1.37,0,.46,1.09.2,2.48,1.09,3.41a1.63,1.63,0,0,1,.14,1,1.2,1.2,0,0,1-.6.72l0,0a2,2,0,0,1-.91.6l.08-.06C1008.41,165.1,1008.15,164.16,1007.94,163.14Z"/><path class="cls-34" d="M1040.13,180.4l4.48-.66c.43.17.42.57.39,1v-.06c.46.59.4,1-.31,1.35l.14-.06c-1.5.63-2.79.07-4-.69l-.2-.19h-.27C1040,180.93,1039.93,180.71,1040.13,180.4Z"/><path class="cls-35" d="M1027.66,269.15c.75.08,1.54.08,1.83,1.05-1,.4-.89,1.46-1.29,2.21-.29.13-.46,0-.53-.29v0c-.33-.56-.13-1.24-.26-1.84a.62.62,0,0,0,0-.53c-.12-.21-.13-.38,0-.51s.18-.18.25-.17Z"/><path class="cls-36" d="M1033.42,172.78a6.76,6.76,0,0,1,.22,2.87l-.43.34a1.69,1.69,0,0,1-.92-1.26v0a.49.49,0,0,1-.1-.51c.08-.16.15-.24.2-.23,0-.25.09-.5.14-.75a.47.47,0,0,1,.25-.68l0,0C1033.05,172.32,1033.28,172.35,1033.42,172.78Z"/><path class="cls-37" d="M978.44,208.18a5.58,5.58,0,0,1,.23-.69,2.41,2.41,0,0,0,.6,0c.28-.17.56-.34.83-.52v0c.72.17,1.31.41.54,1.32a12.47,12.47,0,0,1-1,.94l-.38-.16A1.39,1.39,0,0,1,978.44,208.18Z"/><path class="cls-38" d="M919,237.06l0,1.11c.17.16.22.31.13.43s-.16.19-.23.18h-.05a.54.54,0,0,1-.68-.11,1.78,1.78,0,0,1-.35-1.47C918.13,236.64,918.54,236.71,919,237.06Z"/><path class="cls-36" d="M1033.64,175.65c.65.31,1.5.37,1.6,1.42a.92.92,0,0,1-1.27-.41l-.19-.16h-.24c-.33-.11-.37-.33-.18-.64Z"/><path class="cls-38" d="M919.6,238.09a1.44,1.44,0,0,1,1.56-.36.45.45,0,0,1-.31.63,1,1,0,0,0-.61,0C919.92,238.55,919.7,238.45,919.6,238.09Z"/><path class="cls-39" d="M1041,242.45a1.5,1.5,0,0,0-.56,0,37,37,0,0,0-5.42,5l0,0a7.69,7.69,0,0,1-2.47,4.77c-1.38,1.22-2.15,3.22-3.56,4.57-.18.16-.06.7,0,1.06,0,1-.36.88-1,.71a4.11,4.11,0,0,0-1.65.27c-.42-.16-.41-.62-.55-1h0c-.11-1.52,1.23-.6,1.66-1.21a5.51,5.51,0,0,0-.37-1c-.84-1.48-.73-2,.73-2.51.87-.3,1.8-.38,2.69-.65a.82.82,0,0,0,.48-1.18c-.48-.95-1.11-1.8-1.59-2.74a1.18,1.18,0,0,1,.32-1c.48-.37.82,0,1,.46h0c2.73-.75,4.17-3.48,6.38-5,.5-.36.47-1.08.5-1.73.11-1.78.15-1.81,1.66-2.2a2.28,2.28,0,0,0,1.26-.55,3.6,3.6,0,0,1,1.17-2.08h0c.48-.32,1.3-.34,1-1.33.06-.25.11-.5.16-.74a9.86,9.86,0,0,0,.84-.6h0c.46-.34.41-1.11,1-1.36,0-.24.11-.48.17-.72a.45.45,0,0,0,.28-.45c0-.17-.07-.27-.13-.28h0a7.43,7.43,0,0,1,.49-2.23h0l1.41.34-.09,3a2.33,2.33,0,0,0-1.57,1.83,13.1,13.1,0,0,1-1.91,4.34l-.57,0h0Z"/><path class="cls-40" d="M978.86,268.62c1.23-.52,2.44-1.11,3.77-.35.33.18.86,0,1.3-.08h0c.12-.49.23-1,.34-1.48.53-1.07,1.51-.82,2.34-1,.09.05.18.15.28.17a3.14,3.14,0,0,1,2.77,2.73c.12.62.49-.27.7-.56a.85.85,0,0,1,1.26.18c.51.87-.66,1.94.14,2.75-.5-1,.21-1.83.62-2.69.55-.35,1.12-.93,1.59.06s.31-.46.59-.19l.66.16c.3.63,1.26.42,1.39,1.25a4.65,4.65,0,0,1-3.08,4.13c-2.12.91-3.69,2.93-5.61,4.32a1.65,1.65,0,0,1-.8.58c-2.94,0-1.26-2.86-2.1-4.17-.4-.64.38-1.81-1.47-1.7a7.61,7.61,0,0,1-5.93-2.05,1.23,1.23,0,0,1,.43-1.44v0A5.5,5.5,0,0,0,978.86,268.62Z"/><path class="cls-41" d="M1025.77,257.81c.18.32.36.65.55,1a4.84,4.84,0,0,1-.19.65c-.52.28-.5,1-1,1.33a2.91,2.91,0,0,1-2.69,2.34c-1.13.11-1.13.14-1,1.49a2.18,2.18,0,0,1-2.77.26c-1-.28-1.41.37-1.84,1.2-.34.66-1.21,1.41-1.63.83-1.25-1.71-1.93-.33-2.78.45a.6.6,0,0,1-.8.05,6.48,6.48,0,0,1-.53-.76c-1.43-.39-2.71-1.6-4.14.69a1.91,1.91,0,0,1-3.46-1.13,16.27,16.27,0,0,0,1.71-.2c.46-.11.69-.31.56-1-.33-1.73-.07-2,1.43-1.84.88.08,1.78.62,2.64-.22h0l.66.15c.27-.23.75-.09.84-.61.39-.41.92-.54,1.15,0,.55,1.22,1.26,1.17,2.19.49.58-.42,1.13-.82,1.9-.38.52.31.8-.11.74-.73a1.9,1.9,0,0,1,1.12-2.12,6.38,6.38,0,0,0,3.26-2.25c.1-.12.45-.1.65,0a.7.7,0,0,1,.4.88A16.91,16.91,0,0,1,1022,260c0,.66.62.57,1,.71,1.13.43,1.41.35,1.26-.7C1024,258.46,1025.27,258.53,1025.77,257.81Z"/><path class="cls-42" d="M1011.76,267.2l.64.13c-1.59,1.53-3.19,3.05-5.51,2.67a5.48,5.48,0,0,1-.72-.46c-1.21-.81-1.68.34-2.31,1.1a2.29,2.29,0,0,1-.8.46,1.3,1.3,0,0,1-1.43-.87c0-.2,0-.43-.07-.61a1.11,1.11,0,0,1-.21.58c-1.08.52-1.68-.15-2.21-1,0-.86.59-1.08,1.13-1.38.05-.25.11-.49.18-.73.82-1.09,1.76-1.73,3-.94v0c.17.48.47.9,1,.89a17.6,17.6,0,0,0,2.38-.3c.6-.12.79-.73.46-1.45a10.74,10.74,0,0,0-.74-1.22c1.17-.4,1.78.18,2.29,1.1.26.5.7.43,1.19.29s.73-1.28,1.34-.71c.35.33.35,1.11.51,1.69-.2.14-.28.29-.24.46S1011.7,267.19,1011.76,267.2Z"/><path class="cls-43" d="M972.4,253.09a7.69,7.69,0,0,0,1.75,1c2.77.83,3.68,1.37,4.78,3.56.61,1.23,1.35,1.84,2.69,1.57a4.08,4.08,0,0,1,1.33.16c-.09.51-.2,1-.29,1.53a6.62,6.62,0,0,1-.47.56c-.28.23-.59.38-.91.12-1.36-1.12-3.62.07-4.64-2a1.25,1.25,0,0,1-.1-1c.47-1.44-.29-2-1.38-2.39a3.54,3.54,0,0,0-.56-.86l-.61-.14a.47.47,0,0,1-.72-.17l-1.17-1A.66.66,0,0,1,972.4,253.09Z"/><path class="cls-43" d="M994.54,268.15c0,.24-.09.49-.16.73s-.09.75-.52.73c-.09,0-.19-.39-.21-.61-.12-1-.78-.56-1.29-.54l-.25-.11c-.1-.15-.2-.32-.29-.49l0-.29c.19-.82.24-1.72,1.15-2.08h0c.15-.49.32-1,.81-1.16.87-.26,1.75-.44,2.64-.65.62.65-.55,1.27-.07,2,.65,1,0,1.54-1,1.84A4.31,4.31,0,0,0,994.54,268.15Z"/><path class="cls-43" d="M1000.27,267.83c-.32.46-.65.92-1,1.39-.95,3-1.91,1.55-2.88.13a1.44,1.44,0,0,1-1.21-1c.43-.05,1.06.1,1.28-.17C997.74,266.7,999,267,1000.27,267.83Z"/><path class="cls-43" d="M1003.47,266.16l-3,.94c-.32-1.12-.44-2.26.91-2.67.83-.25,1-1.2,1.92-1.52C1003.34,264,1003.41,265.09,1003.47,266.16Z"/><path class="cls-43" d="M986.59,265.7c-.66.7-1.55.72-2.34,1-1.13-2-1.13-2,.11-3.85A7.5,7.5,0,0,1,986.59,265.7Z"/><path class="cls-10" d="M989.14,174.59l-1.39-.11c-.68-1.77-1-3.47.93-4.75a1.58,1.58,0,0,1,1.2,1.36C989.63,172.26,989.38,173.42,989.14,174.59Z"/><path class="cls-30" d="M1041.67,236.43c-.2.82-.24,1.73-1.17,2.08a6.17,6.17,0,0,1-1-.26c-.2-.09-.45-.27-.47-.44a.71.71,0,0,1,.35-.57C1040.15,236.93,1040.91,236.69,1041.67,236.43Z"/><path class="cls-41" d="M1027.43,256.6l-1.66,1.21c-.4-.16-.91-.31-.88-.84s.49-.7,1-.64c.22,0,.43.05.64.09Z"/><path class="cls-30" d="M1045.45,228.72A2.23,2.23,0,0,1,1045,231C1044.39,229.66,1044.39,229.66,1045.45,228.72Z"/><path class="cls-44" d="M989.88,171.09l-1.17-1q-.26-.36-.06-.51a.38.38,0,0,1,.3-.12l1.25.19.57,1Z"/><path class="cls-30" d="M1042.66,235.1c.47,1.15.37,1.28-1,1.33Z"/><path class="cls-41" d="M1009.81,262.91a1.76,1.76,0,0,1-.58-.23.66.66,0,0,1-.17-.52.6.6,0,0,1,.46-.33c.13,0,.31.23.35.4a2.24,2.24,0,0,1,0,.67Z"/><path class="cls-30" d="M1044.64,232.4a1.58,1.58,0,0,1-1,1.36C1043.53,232.43,1043.53,232.43,1044.64,232.4Z"/><path class="cls-45" d="M1045,224l-.3,1.45C1044.1,224.83,1044.21,224.35,1045,224Z"/><path class="cls-41" d="M1022.56,256.16l-.19-.27c.1,0,.22-.12.3-.09s.14.16.2.25Z"/><path class="cls-42" d="M1011.32,262.44c.2.75.2.75-.84.61Z"/><path class="cls-43" d="M991.66,268.32l-1.32-.28a1.32,1.32,0,0,1,1.5-.47h0l.18.44Z"/><path class="cls-30" d="M1043.66,233.76c-.28.2-.56.39-.84.6Z"/><path class="cls-30" d="M1045,231c.42.34.37.58-.15.73Z"/><path class="cls-46" d="M996.53,200.22a.91.91,0,0,0-.56-.84c-1.17-1.37-2.91-1.2-4.38-1.74a16.81,16.81,0,0,0-3-.55c.15-.48.34-1,.92-.8,1.18.31,2.36.67,3.53,1a1.79,1.79,0,0,0,2.16-.64c.65-.85,1.21-1.5,2.55-1.26s2.34-1,2.41-2.73c1-.79,1,3.37,2.5.54a1.39,1.39,0,0,1,1.37-.16,2.51,2.51,0,0,1,1,1,2.61,2.61,0,0,1,.36,1.48,15.66,15.66,0,0,0-1.39,4.21,2.22,2.22,0,0,1-.52.72c-.91.75,0,1.69-.29,2.51-1.89,3.82-2.35,3.93-4.14,1.06a17.59,17.59,0,0,1-.71-2A2.41,2.41,0,0,0,996.53,200.22Z"/><path class="cls-47" d="M958.22,262.69c.23-.59.43-1.21,1.18-1.15.51,0,.78.38.9.92a3.63,3.63,0,0,0,.43,1.35c.33.47.88,1,1.37.23a1.91,1.91,0,0,1,1.72-1c.66,0,1.4-.45,1.87.37a2.58,2.58,0,0,1-.38,3c-.21.28-.66.44-.57.86.13.62.63.52,1.08.45,1.37-.22,2.74.51,4.1-.19.79,1.58.76,1.44,2.05,1.07,1.45-.41,2.7-1.86,4.36-1.24.66,1.54-.24,2.46-1.21,3.35-.22.23-.45.43-.67.65s-.61.74-.93,1.1c-2.63,1.26-4.57-1.32-7-1.22-1.54-1-3.87-.6-4.64-3-.17-.4-.32-.81-.49-1.22-.13-.72-.75-.56-1.19-.73C959.1,265.39,957.81,264.61,958.22,262.69Z"/><path class="cls-48" d="M958.22,262.69c.48,1.62,1.85,2.43,2.76,3.67a.4.4,0,0,1,.66.15c.16.3.32.6.47.9-3.72,2.37-3.64,2.28-6.47-1-.82-.95-1.12-2.38-2.32-2.95a1.58,1.58,0,0,1-.53-.78,7.25,7.25,0,0,0-3.37-5,3.39,3.39,0,0,0-.53-.29l-.52-.86-.49-.9-.5-.88a2.68,2.68,0,0,0-1.13-2.33l0,0a4.59,4.59,0,0,0-.48-.87v0a4.47,4.47,0,0,1-.43-1l.05.06a15.45,15.45,0,0,1-1-2.5h0a3.85,3.85,0,0,1-.48-1l0,.06a1.39,1.39,0,0,1-.07-1.38,1,1,0,0,1,.85-.28l.42.2a5.3,5.3,0,0,1,.68.66l.3.37c1.19,1.29.88,3.58,2.49,4.59h0a7.42,7.42,0,0,1,1.59,2.63h0a8.13,8.13,0,0,0,2.9,3,16.17,16.17,0,0,1,1.31,2.88C954.92,262,956.21,262.85,958.22,262.69Z"/><path class="cls-49" d="M942.1,229c1.12-.36,2.21-.68,3,.63.67,1.11,1.09,2.31-.44,3.47l-.84.66a1.31,1.31,0,0,0-.57,1.57,7.45,7.45,0,0,1,.34,2.11c0,.66,1.19.61,1.32,1.46.33.66.79.76,1.36.28a25.52,25.52,0,0,1,.92-3.54c.33-.82.88-.47,1.22.14a1,1,0,0,0-.32,1.47,1,1,0,0,1,.16,1.27c-.34.47-.86.8-1.17,1.29a2.08,2.08,0,0,0-.1,2.63c.17.31.39.37.67.15.84,1,.17,2.06.06,3.1-.55,1-1.23,1.68-2.36,1h0a9.77,9.77,0,0,0-.53-.88h0c-.59-.95-.84-2.14-1.76-2.85.73-2.9-2.64-4.12-2.21-6.9A14.65,14.65,0,0,1,942.1,229Z"/><path class="cls-50" d="M942.1,229c0,.9,1.19,1.7-.2,2.79-.62.49-.59,1.93,0,2.94.28.48-.06.88-.53,1.09a.64.64,0,0,1-.78.1,10.12,10.12,0,0,1-1-2v0a9.27,9.27,0,0,1-.46-.95l0,0a2.27,2.27,0,0,1-.51-1h.07l-.93-3.13a2.56,2.56,0,0,1,1.26-1.33l.43-.13a.77.77,0,0,1,.73.4A4.45,4.45,0,0,0,942.1,229Z"/><path class="cls-51" d="M939.55,227.7a2.49,2.49,0,0,1-1.74,1.2l-.87-1.84a1,1,0,0,0-.38-1c-.31-1-.61-2-.93-3.09.59-.84,1.43.11,2-.38,1.85.38,1.83,2.13,2.17,3.61C939.24,226.61,939.51,227.18,939.55,227.7Z"/><path class="cls-43" d="M972.4,253.09l-.3,1c-.33.26-.59.18-.72-.21a1.44,1.44,0,0,0-1.15-1h0a1.27,1.27,0,0,0-.35-1.26c-1-1-2-2.18-2.94-3.29a.47.47,0,0,1-.07-.57c.11-.15.19-.22.26-.21l3.08,1.62c.49.5.9,1.18,1.49,1.46C972.88,251.17,972.53,252.14,972.4,253.09Z"/><path class="cls-46" d="M967.13,247.53c-.06.26-.13.52-.19.78a3.91,3.91,0,0,1-1.11-2.15c-.31-1.06,0-2.93-2-2.25a7.84,7.84,0,0,1-.9-1.87c-.12-.62.54-1,.89-1.51a11.74,11.74,0,0,0,.67,1.21A45.53,45.53,0,0,1,967.13,247.53Z"/><path class="cls-52" d="M992.53,191.82c-.18.31-.36.86-.54.88-.55,0-1.42.05-1.6-.29-.76-1.44-2.33-1.32-3.5-2.1a2.5,2.5,0,0,1,2.74-1.44c.89.92,2.5.86,2.88,2.47C992.52,191.5,992.52,191.66,992.53,191.82Z"/><path class="cls-51" d="M945.36,246.76l2.36-1c.06.1.19.2.19.3a20,20,0,0,0,.69,5.35c-.67.11-1.43.35-1.68-.63A9.33,9.33,0,0,0,945.36,246.76Z"/><path class="cls-53" d="M1002.83,193.26a7,7,0,0,0-.08,1.11c.11,1.29-.77.93-1.37,1-.79.14-1-.28-.91-1a1.87,1.87,0,0,0-.35-1.7h0a1.71,1.71,0,0,1,.48-2.22l.69.14a2.21,2.21,0,0,1,2.69.58h0C1004.18,192.23,1002.92,192.38,1002.83,193.26Z"/><path class="cls-46" d="M960.11,234.35a9.51,9.51,0,0,1,2.11,3.41,2,2,0,0,1-1.52.74c-2,.26-2,.29-1.2-2C959.75,235.8,959.91,235.07,960.11,234.35Z"/><path class="cls-52" d="M992.83,190.36c.18-.29.39-.85.55-.84a2.45,2.45,0,0,1,2.35,2.81,1.25,1.25,0,0,1-.82,1.09c-.32.13-.7.14-.74-.32s.41-1,0-1.37-1.07,0-1.61.09l0-.1A1,1,0,0,1,992.83,190.36Z"/><path class="cls-51" d="M950.19,254c-.73-.73-1.88-1.15-1.59-2.63,1,.19,1.42-.48,1.9-1.24.33-.53.79-.34,1.14,0a.72.72,0,0,1,.07,1A4.54,4.54,0,0,0,950.19,254Z"/><path class="cls-54" d="M974.2,270.79c.78-1.1,2.1-1.81,2.13-3.44h0a.42.42,0,0,1,.65.15,2.4,2.4,0,0,0,1,1.73c-.11.51-.21,1-.31,1.51l-.31.47a2.16,2.16,0,0,1-1.46.58A1.92,1.92,0,0,1,974.2,270.79Z"/><path class="cls-46" d="M1000.6,190.45l-.48,2.22c-1.94.35-2.54.21-2.54-.61s.43-1.23,2-1.62A4.28,4.28,0,0,1,1000.6,190.45Z"/><path class="cls-47" d="M971.11,264.73c1,.21,1.32.89.8,1.63-.35.49-.67,1.05-1.31,1.14-.23,0-.54.11-.67,0-.5-.45-.24-2.4.36-2.66A2.49,2.49,0,0,1,971.11,264.73Z"/><path class="cls-51" d="M953.09,256.93c-1.77-.06-2.79-1-2.9-3C951.67,254.36,952.19,255.87,953.09,256.93Z"/><path class="cls-30" d="M971.15,258.24a3.67,3.67,0,0,1-.27.78,1,1,0,0,1-.53.38c-.45.05-.53-.35-.55-.72a1.42,1.42,0,0,1,.11-.72c.17-.29.44-.69.67-.7C971.27,257.22,971.06,257.89,971.15,258.24Z"/><path class="cls-55" d="M992.83,190.36c-.12.45-.23.91-.34,1.36-.86-.7-1.36-2-2.72-1.86a6.35,6.35,0,0,1-.14-1A4.76,4.76,0,0,1,992.83,190.36Z"/><path class="cls-56" d="M1004,191.17l-2.69-.58c-.13-.54-.25-1.08-.38-1.62C1002.39,189,1003.28,189.93,1004,191.17Z"/><path class="cls-51" d="M946.28,239.2a10.11,10.11,0,0,1-.43,1.35c-.14.32-.46.54-.79.33a.73.73,0,0,1-.29-.56,13,13,0,0,1,.15-1.4Z"/><path class="cls-30" d="M972.88,259.08c-.21,0-.49.18-.61.09s-.08-.43-.11-.65c.21,0,.49-.19.61-.1S972.85,258.85,972.88,259.08Z"/><path class="cls-43" d="M982,264.41c-.07-.17-.24-.39-.18-.5.17-.37.31-.88.84-.7.07,0,.08.41,0,.62A.66.66,0,0,1,982,264.41Z"/><path class="cls-43" d="M970.23,252.87a2.15,2.15,0,0,1-.23.63c-.1.14-.36.27-.48.22a.64.64,0,0,1-.29-.49c0-.14.23-.34.38-.39a1.86,1.86,0,0,1,.62,0Z"/><path class="cls-50" d="M939.55,227.7c-.58-.63-.5-1.12.3-1.47,0,.24-.08.48-.14.72a.46.46,0,0,1,.06.54c-.09.15-.17.22-.22.21Z"/><path class="cls-51" d="M948.1,237.27c-.58-.64-.48-1.13.32-1.47C948.31,236.29,948.21,236.78,948.1,237.27Z"/><path class="cls-46" d="M963.33,239a1.35,1.35,0,0,1,.5,1.61C963.17,240.23,963.18,239.62,963.33,239Z"/><path class="cls-54" d="M978.86,268.62l-.83.63Z"/><path class="cls-47" d="M977,267.5l-.65-.15C976.67,266.88,976.88,266.93,977,267.5Z"/><path class="cls-43" d="M974.6,255.39c.19.29.38.57.56.86C975,256,974.79,255.68,974.6,255.39Z"/><path class="cls-43" d="M973.27,255.08l.72.17C973.64,255.67,973.4,255.63,973.27,255.08Z"/><path class="cls-51" d="M947.66,242.61c-.34.47-.56.4-.67-.15C947.22,242.5,947.44,242.55,947.66,242.61Z"/><path class="cls-46" d="M962.77,238.2a.69.69,0,0,1,.57.78Z"/><path class="cls-46" d="M959.57,233.45a1,1,0,0,1,.56.94A1,1,0,0,1,959.57,233.45Z"/><path class="cls-51" d="M939.55,227.7c.05-.25.11-.5.16-.75l.52.89Z"/><path class="cls-57" d="M887,227.9a.84.84,0,0,0-.83.63l-.78.67-.34-.07-.32-.12c-.18-.3-.36-.61-.55-.9-.3-.46-.39-1,.2-1.15a2.63,2.63,0,0,0,2.39-2.23c.23-1.11,1.12-1,1.94-1a8.88,8.88,0,0,0,.84-.57h0c.68-.68,1.36-1.36,2.19-.3,0,.25-.11.49-.16.74-.21.13-.31.28-.28.46s.07.26.13.28l.66.13a9.13,9.13,0,0,0,.84-.59l.15-.72a.54.54,0,0,1,0-.53c.09-.16.16-.23.21-.22l.82-.59a.51.51,0,0,1,0-.53q.13-.23.21-.21l.67.15a1.27,1.27,0,0,1,.51.87c-.63,1.17-.63,1.17.43,1.72a3.87,3.87,0,0,1-.25.59,1.8,1.8,0,0,0-2.43.91,2.71,2.71,0,0,0-2.08.49C889.47,225.79,888.33,227.05,887,227.9Z"/><path class="cls-58" d="M891.77,222.87a4.45,4.45,0,0,0-2.19.3c.44-1.59.82-3.26,2.82-3.26h0C892.92,221.05,892,221.88,891.77,222.87Z"/><path class="cls-58" d="M895.46,222.11l-.51-.87c0-.44-.24-1,.2-1.27.19-.13.65,0,.87.19a1,1,0,0,1,.17,1.27A3.39,3.39,0,0,1,895.46,222.11Z"/><path class="cls-58" d="M892.1,217.87a1.89,1.89,0,0,1-.37.55.6.6,0,0,1-.57.07.48.48,0,0,1,.12-.82,2.77,2.77,0,0,1,.92-.13C892.17,217.65,892.13,217.76,892.1,217.87Z"/><path class="cls-58" d="M892.82,217.13c.37,0,.59.22.53.68,0,.1-.2.25-.25.23-.31-.14-.6-.33-.9-.5Z"/><path class="cls-58" d="M897.38,223.32a1.33,1.33,0,0,1-1.54.51A1.25,1.25,0,0,1,897.38,223.32Z"/><path class="cls-58" d="M893,223.89l-.84.59Z"/><path class="cls-58" d="M891.46,224.35c-.42-.34-.37-.59.15-.74Z"/><path class="cls-58" d="M889.58,223.17l-.84.57Z"/><path class="cls-58" d="M893.28,222.42c-.06.25-.11.5-.17.75C892.71,222.81,892.76,222.56,893.28,222.42Z"/><path class="cls-58" d="M894.28,221.09l-.18.74C893.71,221.48,893.75,221.23,894.28,221.09Z"/><path class="cls-58" d="M892.4,219.91c.08-.09.19-.28.22-.26.21.1.13.2-.22.26Z"/><path class="cls-17" d="M1075.2,159.19c-.09.21-.16.42-.23.63a.89.89,0,0,0-.85.55,1,1,0,0,0-.79.68c-1,.32-1,1.23-1.17,2.07-.72.5-1.69.26-2.35,1a.9.9,0,0,0-.89.47,1.88,1.88,0,0,0-1.47.52l-1.23.15.12-1c-.67-1.23.46-2.83-.55-4h0c.25-1.47.8-2.57,2.4-2.62a7,7,0,0,0,2-.43c1.26-.44,2.19-.37,2.65,1.21C1073.23,159.74,1074.41,158.92,1075.2,159.19Z"/><path class="cls-59" d="M1058.36,155.09l.7-.18c.7.63-.1,1.64.51,2.4,1.23,1.54.71,3.33-.07,4.92a4.44,4.44,0,0,0-.7,3.17c0,.11-.28.45-.35.43a1,1,0,0,1-.49-.42,8.82,8.82,0,0,1-.45-1c-.77.41-1.22,1.29-2.11,1.37-.06-.16-.13-.32-.19-.47-.52-3.27-.41-6.45,1.58-9.33h0a2.68,2.68,0,0,1,.86-.47l.1-.06A.69.69,0,0,1,1058.36,155.09Z"/><path class="cls-59" d="M1055.4,165.8a7.88,7.88,0,0,1-.62,1.73c-.66,1-1.7,1.14-2.32.25-1-1.42-2.73-2.2-2.94-4.28,0-.31-.4-.57-.62-.86.34-1,1.45-.54,1.95-1.26-.11-.68-.7-1.25-.42-2h0c2.29-.71,3.64,0,3.94,2.71a8.27,8.27,0,0,0,1,3.77Z"/><path class="cls-13" d="M1065.79,160.28c.66-.11,1.19-.31,1.32.86s-.53,2.09-.77,3.13a5.93,5.93,0,0,1-1.17-.62c-1.53-1.28-1.47-1.71.36-3.12A3.07,3.07,0,0,0,1065.79,160.28Z"/><path class="cls-36" d="M1033.47,172.76a3.75,3.75,0,0,1,.2-.65,2.59,2.59,0,0,0,1.6-1.29l1.79-2a2.74,2.74,0,0,0,.64,0c-.16.47-.37.92-.49,1.4C1036.68,172.39,1035.52,173.36,1033.47,172.76Z"/><path class="cls-34" d="M1046.46,177.82a1.71,1.71,0,0,1-1.44,1.34c-.61-.51-.43-1,.19-1.24A4,4,0,0,1,1046.46,177.82Z"/><path class="cls-60" d="M1048.17,165.84c-.17.27-.38.31-.54.07a2.07,2.07,0,0,1-.17-.64c.2,0,.46-.14.58-.05S1048.13,165.63,1048.17,165.84Z"/><path class="cls-61" d="M971.82,284.36a.85.85,0,0,0,.64.79,3.9,3.9,0,0,0,1.57,2,5.1,5.1,0,0,0-.3,2.87,2.57,2.57,0,0,1-1.05,3.07c-1,.74-.76,2.25-1.24,3.36a10.21,10.21,0,0,0-1.61,4.86,23.46,23.46,0,0,1-1.77,6.06l-.3-.18a9.89,9.89,0,0,0,.35-1.85c0-.93-.92-.08-1-.4-.21-1.38-.86-2.76.44-4.12a6.66,6.66,0,0,0,2.13-5.32,2.85,2.85,0,0,1,.63-1.73,1.14,1.14,0,0,0,.06-1.38c-.63-.72-.95.12-1.36.44a5.93,5.93,0,0,1-.56.46,2.85,2.85,0,0,0-1.53,3.42,1.33,1.33,0,0,1-.18,1.06,2.86,2.86,0,0,1-1.17.73c-.36.15-.57-.14-.75-.49-.64-1.17-.7-1.2-1.37-.48a2.25,2.25,0,0,1-1.09.84c-.3.08-.83.37-.82.49.34,2.67-3,3.26-2.92,5.76,0,.12-.35.4-.48.37-1.33-.39-2.15.63-3,1.4a6,6,0,0,0-2.11,3c-.21.73-.88.72-1.47.68l2.28-6.31c1-1,1-2.43,1.36-3.71a5.3,5.3,0,0,0,1.37-2.73c1.31-.85,1.49-2.19,1.42-3.63,1.18-.88,1.22-2.27,1.47-3.56h0c1.25-1.43.44-3.7,1.91-5v.06a2.81,2.81,0,0,0,1.19-2.17c.15-.73.23-1.48.35-2.22l0,0c2.58-2.31,4.06.79,6.08,1.22l0,0c.31,1.07.61,2.09,2,1.87C971.22,283.84,971.53,284.19,971.82,284.36Z"/><path class="cls-13" d="M967.76,307.2a.67.67,0,0,0,.3.18l-.21,2.2c-1.36,1.52-1.75,3.57-2.28,5.42-.84,2.9-1.78,5.73-2.86,8.54a13.42,13.42,0,0,0-.44,1.82,2.35,2.35,0,0,0-.88,1.54q-.64,2.91-1.31,5.8c-.79,1.32-2.21,1.6-3.29,2.43a4.5,4.5,0,0,0-.63-.07c-2.71-.64-3.38-3.07-3.41-5.49a5.93,5.93,0,0,1,4.42-5.92,9.38,9.38,0,0,0-.51-.94,1.82,1.82,0,0,1,.31-2.63,4.1,4.1,0,0,0,1.6-4.85,2,2,0,0,1,.88-2.26c.8-.58,1.56-1.13.93-2.36-.08-.15.24-.67.49-.87,1.26-1,1.45-2.81,2.48-4,.62-.73,0-1.67,0-2.52a.94.94,0,0,1,.58-.85.72.72,0,0,1,1.09.48C965.45,304.69,966,306.37,967.76,307.2Z"/><path class="cls-62" d="M957.17,323.65c-.26.39-.46,1-.8,1.14-1.38.49-1.73,1.76-2.39,2.94a3.8,3.8,0,0,0-.1,3.8,10,10,0,0,0,2.28,3.53c-.17.73-.33,1.47-.49,2.21-.17.15-.49.31-.48.45a7.71,7.71,0,0,1-1,3.12c-.72.39-.94,1.18-1.28,1.88-1.09-.06-2.2,1.25-3.28.08a.87.87,0,0,0-.46-.91,1.94,1.94,0,0,0-.58-1.46v0a3.59,3.59,0,0,1-.39-1h0a1.83,1.83,0,0,0-.42-1.56.94.94,0,0,0-.36-1,1.76,1.76,0,0,0-.41-1.59,1.72,1.72,0,0,0-.44-1.57,4.37,4.37,0,0,1,.27-.68.67.67,0,0,0,0-.71.42.42,0,0,1-.07-.53c.3-.31.18-1.55,1-.67a18,18,0,0,1,1.51,2.2c2.28-2.53,2.12-5.23,1.43-8.12,1-.6,2.15-.65,3.07-1.57S956.06,323.55,957.17,323.65Z"/><path class="cls-63" d="M1067.12,275.38a.86.86,0,0,0,.7.74,2.79,2.79,0,0,0,1.69,1.94,3.88,3.88,0,0,0,1.56,2,.93.93,0,0,0,.49.89.85.85,0,0,0,.63.81c0,.21,0,.41,0,.62.44,1.69,1,3.41-1.42,4.26,1.64-.18,2.42-2.89,4.3-1.26v0a3,3,0,0,0,.73.88.52.52,0,0,1,.45.47.71.71,0,0,1,.45.58l.74.47c-.14.2-.29.59-.41.58a2.21,2.21,0,0,0-2.68,1.94c-.22,1.23-1.12,1.12-1.84,1.35a.6.6,0,0,1-.84-.36c0-.12.15-.42.3-.52a1.67,1.67,0,0,0,.73-1.24,2.08,2.08,0,0,0-.13-1.06.64.64,0,0,0-.89-.22c-1.17.54-2.39,1-3,2.41a1,1,0,0,1-.88.41c-.25-.06-.63-.55-.59-.77.52-2.51-1.7-3.92-1.87-6.16-.07-.86-.94-.94-1.54-1.25s-.65-.94-.47-1.65c-.31.11,0,.54-.12.07l.12-.07c-.46,0-.8-.11-1.13-.07-.87.1-1.34.68-1.15,1.41s.74,1.17.69,2-.73,1.59-1.61,1.35c-.21-.06-.39-.23-.6-.3-1.12-.39-1.12-.39-1.69.9a7.35,7.35,0,0,0-.2.71l-1.09-.56,0-.73c.28-1.47.42-3,1.87-3.87.31-.18.39-.87.5-1.34,0-.21,0-.61-.17-.66a2.3,2.3,0,0,0-1-.11c-.1,0-.2.13-.3.17-.67.27-.54,2.09-1.71,1.24a2.7,2.7,0,0,1-1.3-3.1,3.15,3.15,0,0,0,0-2.85.61.61,0,0,1,.39-.87c.66-.22,1.36-.28,2-.51a1.16,1.16,0,0,0,.76-1.15,1.35,1.35,0,0,0-.71-1.18.63.63,0,0,0-.32-.12c-.58,0-1.17,0-1.43-.68s.79-1.23.75-1.4c-.35-1.29.27-1.59,1.19-1.5a5.58,5.58,0,0,1,1.94.58c.67.33,1.42.53,1.2,1.82a7,7,0,0,0,.52,2.9,4,4,0,0,1,.25,2.84c-.28.76.61,1.22,1,1.87.92-.11.5-1.33,1.12-1.61s1.14-.25,1.65-.51a10.24,10.24,0,0,0,1.41-1.09Z"/><path class="cls-64" d="M1063.26,270.6a1,1,0,0,0,.63.8,2.77,2.77,0,0,0,1.64,2c0,.22,0,.44,0,.66a2.67,2.67,0,0,0-.69,0,2.38,2.38,0,0,1-2.65-1.16c-.64-.91-.32-1.87,0-2.84Z"/><path class="cls-15" d="M1053.86,270.46c-.25-.17-.41-.23-.41-.28.12-1.3.23-2.6.4-3.9a.68.68,0,0,1,.51-.4c.17,0,.46.25.46.41A7.55,7.55,0,0,1,1053.86,270.46Z"/><path class="cls-15" d="M1053.3,261.39c0,.51.39,1.27-.51,1.35a1.1,1.1,0,0,1-1.14-1c-.06-.27.08-.49.35-.48a11.77,11.77,0,0,1,1.3.15Z"/><path class="cls-15" d="M1053.14,264.78c-.29.46-.92.66-1,.33,0-.09,0-.28,0-.3a4,4,0,0,1,.87-.34C1053.4,264.37,1053.44,264.51,1053.14,264.78Z"/><path class="cls-15" d="M1054.77,261q0,.35,0,.69l-1.5-.26h0l.18-.77Z"/><path class="cls-64" d="M1065.48,274a2.61,2.61,0,0,1,.66.19,1.56,1.56,0,0,1,0,.68A.91.91,0,0,1,1065.48,274Z"/><path class="cls-63" d="M1059.87,267.26a.9.9,0,0,1,.44,1.05Z"/><polygon class="cls-15" points="1053.34 264.5 1053.56 264.22 1053.65 264.38 1053.34 264.5"/><path class="cls-65" d="M1021.75,299.56a1,1,0,0,0,.3,1,3.52,3.52,0,0,0,1,3.11.84.84,0,0,0,.46.92,1,1,0,0,0,.36,1,5.46,5.46,0,0,0,.16,2.2c.35,1.29.58,2.63.86,3.94-.61,2.73,1.94,5.27.13,8.07-1.7.32-6.41-2.09-7.07-3.61-.75-1.72.45-4,3.88-7.34-4-.38-1.42-4.62-3.25-6.24.32,2.38-1.5,4.93.38,7.53.62.85-.55,2.26-1.8,2.72a1.65,1.65,0,0,1-.89-.23c-.72-.95-1.07-2.66-2.82-1.51a1.19,1.19,0,0,1-.82-.38c-.68-2.7-.13-5.69-1.36-8.24a.69.69,0,0,0-.4-.49,1.6,1.6,0,0,0-.28.69c-.14.73-.26,1.44-.41,2.15s-.26,1.25-.41,1.87-.22,1-.34,1.43a12.12,12.12,0,0,1-.42,1.42,3.73,3.73,0,0,1-.46.86l-.37.31a.53.53,0,0,1-.7-.35v0c-.35-.48-.05-1.16-.37-1.64h0a1.75,1.75,0,0,0-.29-1.67,3.77,3.77,0,0,0-.22-2.35,3.36,3.36,0,0,0-.2-2.36c.06-.46.13-.91.19-1.36a11.68,11.68,0,0,0,.51-4.08c-.25-1.89,1.11-3.57.91-5.5a1.25,1.25,0,0,1,.67-1.24c.68-.26,1,.37,1.35.84.49.64.65,1.62,1.59,1.84.46-.86.9-1.73,1.4-2.58a3.58,3.58,0,0,1,2.27-1.65c1.6-.45,1.8-.16,2.19,1.62a13,13,0,0,1-.11,7,1.58,1.58,0,0,0,0,.38,1.36,1.36,0,0,0,.49,1.3c.64.35,1.06-.22,1.44-.71l1.91.41C1021.34,298.94,1021.54,299.25,1021.75,299.56Z"/><polygon class="cls-65" points="1019.22 298.23 1018.97 298 1019.13 297.88 1019.22 298.23"/><path class="cls-65" d="M1019,290.28l-.42.28.4-.32Z"/><path class="cls-66" d="M1080.62,291.48a.91.91,0,0,0,.67.76.9.9,0,0,0,.51.9,1.64,1.64,0,0,0,1.06,1.14.84.84,0,0,0,.62.78c0,.95.82,2.1-.59,2.76a1.51,1.51,0,0,0-1.46.56c-.79.13-1.57.3-2.36.38a11.31,11.31,0,0,1-6-.73c.62-.24,1.49-.31,1.8-.78.47-.74.77-.81,1.31-.33.89.78,1.66.52,2.36-.4.34-.45,1.18-.7.9-1.41-.49-1.26,1.42-2.36.23-3.6-.12-.12,0-.47-.05-.72Z"/><path class="cls-20" d="M991.94,147.67a2.18,2.18,0,0,0,.31,1.64c0,.69,0,1.37-.07,2.06a4.21,4.21,0,0,0-1.31.43c-1.4,1.07-2.48.8-3.46-.55-.57-.8-.84-.09-1.25.36-.62.67-1.14.46-1.55-.32s.3-2.13-.94-1.89c-.81.16-.69,1.45-.91,2.26-.07.24-.1.48-.15.73l-.5-.2a3.12,3.12,0,0,0-.28-2.27c.64-.87.83-1.71-.09-2.45a3.91,3.91,0,0,0-.26-2.32,8.75,8.75,0,0,0-.52-4.68v0c-.59-.7.25-1.65-.27-2.37h0c-.46-.76.27-1.66-.15-2.42v0c0-1.47.06-2.94.08-4.4a2.09,2.09,0,0,1,.33-1.73c4.07-.48,2.35,2.91,3.14,4.66,1-.69,1.85-3.65,4.21-1.51l.47.23a1.94,1.94,0,0,0,.25,1.68c0,.66-.11,1.32-.16,2,.2,1.48-1.28,1.44-1.75,2.28,0,0,.22.23.22.23a1.9,1.9,0,0,1,0-.35c1.65-1.42,1.91,0,2.27,1.21l1.36,2.71a1.93,1.93,0,0,0,.38,1.62,1.8,1.8,0,0,0,.28,1.67A1.69,1.69,0,0,0,991.94,147.67Z"/><path class="cls-67" d="M989,169.44a3.41,3.41,0,0,1-.24.63c-.94,1.33-.85,2.89-1,4.41-.83-.43-1.43-1.3-2.45-1.36v0a1,1,0,0,1-.27-.8,15.61,15.61,0,0,0-.58-2.16,2.88,2.88,0,0,1-.08-.93,5.44,5.44,0,0,0,.65-2.5c0-.77.27-1.2,1-1.13,1,.09,1.4-.4,1.83-1.32.78-1.69,1.82-3.23.86-5.22-.27-.54,1-1.63,1.69-1.41a6.51,6.51,0,0,1,1.49.85c.29.21.45.79.21.94-1.9,1.19-.87,3.44-1.76,5,.42.93.2,1.43-.74,2C988.27,167.23,988.32,167.44,989,169.44Z"/><path class="cls-44" d="M992.37,169.24c-.61,1.06-1.4.58-2.15.39C990.86,168.84,991.64,169.32,992.37,169.24Z"/><path class="cls-5" d="M907.87,270.64a1,1,0,0,0,.75-.72,1.37,1.37,0,0,0,1-1.23l-.07,0a2.84,2.84,0,0,1,.82-.73h0a1.17,1.17,0,0,1,1.39.08c.86,1.94-1.51,2.8-1.42,4.37.16,2.8-2.86,5.8.28,8.45.76.64.37,2.06.13,3.28,1-1.9,1.67-4,3.85-4.45a1.75,1.75,0,0,1,2.19,1.27c0,1.2-1.06,1.7-1.43,2.64a.93.93,0,0,0-.74.75,1.66,1.66,0,0,0-1,1.27,3.75,3.75,0,0,0-1.93,1.74c-1,.42-2.06.29-2.86,1.17a1.65,1.65,0,0,0-1.14,1.1l-1.17.17c-.5-1.21-.73-2.78-1.58-3.52a3.67,3.67,0,0,1-1.71-3c0-.93-1.11-.27-1.73-.24a5.8,5.8,0,0,0-.1-3.33c-.69-.65-1.08-1.32,0-2.09l-.08.06a2.35,2.35,0,0,1,.87-.67l0,0a6.87,6.87,0,0,0,2.2-3.34,1.71,1.71,0,0,0,1.66-1.23l0,0a2.59,2.59,0,0,1,.81-.67h0A1.7,1.7,0,0,0,907.87,270.64Z"/><path class="cls-5" d="M901.41,283.39c-.12.19-.24.38-.37.57-.41-.35-.11-.58.15-.79a1.17,1.17,0,0,1,.31-.12Z"/><path class="cls-32" d="M991.06,288.14l1.06.55.09,1.32A1.63,1.63,0,0,1,991.06,288.14Z"/><path class="cls-68" d="M927.81,196.25a3.25,3.25,0,0,1-2.54-.48l.05-.34c.44-.45.39-1.3,1.06-1.59.76.18,1.35,1,2.36.36.42-.26.7.63.69,1.23C929,196,928.55,196.48,927.81,196.25Z"/><path class="cls-69" d="M992.51,244.41l-2.82.29c-.56-2.36-.71-3.87,2.57-3.83,2,0,3.74-2.23,5.49-3.67.34-.35.7-.68,1.06-1,1-.72,1.29-2.36,2.75-2.42a1.4,1.4,0,0,1,.74.53c.38.4.32,1.27.91,1.33.23,0,.14-.89.51-1.25,1-.67,2.18-1.1,3.17-1.84a4.63,4.63,0,0,0,1.25-1.17,4.54,4.54,0,0,1,.55-.68,2.28,2.28,0,0,1,1.1-.59.86.86,0,0,1,.66.42c0,.62,0,1.24,0,1.85a2.38,2.38,0,0,1-.47,1.74,38.4,38.4,0,0,1-7.49,7.21,1.76,1.76,0,0,1-1.3.29c-1.06-.26-2,.31-3.06.29-.77.47-1.69.32-2.44.86A4.12,4.12,0,0,0,992.51,244.41Z"/><path class="cls-70" d="M1010.45,230.53l-.73-.18a4.28,4.28,0,0,1-1.09-2.43,1.24,1.24,0,0,1,.69-1.06,2.08,2.08,0,0,1,.78-.11,1.82,1.82,0,0,1,.7.29.92.92,0,0,0,.47.46,1.72,1.72,0,0,0,.35-.6,5.07,5.07,0,0,0,.1-.77c0-.28,0-.56,0-.83a6,6,0,0,0-.15-1.27,2.37,2.37,0,0,1,.06-.88c.45-.56.19-1-.2-1.37a3.43,3.43,0,0,1,.46-3.34,3.88,3.88,0,0,0,1.42-2.75c.15-1.4.79-3,2.67-1.8.63,1.27-.21,2.81.47,4.07l-1.47,7.31c-.84.37-1,1.23-1.22,2C1012.77,228.46,1012.1,230.09,1010.45,230.53Z"/><path class="cls-71" d="M995.7,242.77c.79-1.27.79-1.27,2.43-.86C997.61,243.25,996.68,243.11,995.7,242.77Z"/><path class="cls-5" d="M927.31,205.72c2.3,0,3.14,1.56,3.52,3.67,0,.94.34,2.18-1,2.25-1.1.05-.4.78-.44,1-.41,2.55-2.55,3.48-3.94,5.1a1.79,1.79,0,0,1-2.06,1l-4.34-1c.15-.49.36-.8,1-.8,1.4,0,1.76-.42,1.26-1.6a3.81,3.81,0,0,1,.6-4.45c1.06-1.16.44-2.65.9-3.91-.19-.26-.21-.43-.07-.51a.46.46,0,0,1,.34-.07l-.11,0C924.35,205.94,925.88,206.29,927.31,205.72Z"/><path class="cls-5" d="M919.87,207.12a2.94,2.94,0,0,1,.3-.55.5.5,0,0,0,.57,0c.43-.27.63-.14.62.38C920.67,208.17,920.52,208.18,919.87,207.12Z"/><path class="cls-5" d="M915.55,213.39c-.09,0-.24.05-.25,0a.91.91,0,0,1,0-.33c.1,0,.25-.05.26,0A.72.72,0,0,1,915.55,213.39Z"/><path class="cls-72" d="M1055.33,185.92c.22.05.45.09.67.12-.15.71-.3,1.42-.46,2.14s-.42,1.23-1.06,1.27c-1.67.12-1.2,1.38-1.2,2.4l-1.11-.56a1.68,1.68,0,0,0-1.19-1l-.52-.85.42-2a1.58,1.58,0,0,0,1.45-.53,1.56,1.56,0,0,0,1.57-.33A1.5,1.5,0,0,0,1055.33,185.92Z"/><path class="cls-72" d="M1058.92,192.1c-.08.2-.15.4-.22.6-.33.06-.73,0-1,.19-1.93,1.48-3.33.85-4.46-1l1.53-.77c.42-.21,1-.41,1.19.07C1056.65,192.56,1058,191.56,1058.92,192.1Z"/><path class="cls-72" d="M1056,186.05c.07-.22.14-.44.22-.66a2.18,2.18,0,0,1,.61.15Z"/><path class="cls-35" d="M1028,273.78l.25-.76a.89.89,0,0,1,.31,1A2.37,2.37,0,0,1,1028,273.78Z"/><path class="cls-35" d="M1029.49,270.2a1.06,1.06,0,0,1,.63.06C1029.84,270.82,1029.63,270.85,1029.49,270.2Z"/><path class="cls-73" d="M1018.65,264.85a3.82,3.82,0,0,1,2.77-.26,4.94,4.94,0,0,1,2.87-.15,4.6,4.6,0,0,1-.14.74l-.84.56a1.48,1.48,0,0,0-1.66,1.22,1.72,1.72,0,0,0-1.49.49.89.89,0,0,0-.88.5l-.62,0A5.85,5.85,0,0,0,1018.65,264.85Z"/><path class="cls-39" d="M1025.13,260.76a1.62,1.62,0,0,1,1-1.33A1.54,1.54,0,0,1,1025.13,260.76Z"/><path class="cls-73" d="M1025.31,263.13c0,.25-.09.5-.14.75a3.38,3.38,0,0,0-.63.07A1,1,0,0,1,1025.31,263.13Z"/><path class="cls-74" d="M974.34,236.81a3.26,3.26,0,0,0,.12-.74c-.11-1.13.26-1.65,1.35-1.43.18,0,.41-.15.62-.24-.31-.7-.91-1.43-1.49-1.28-1.65.42-2.36-1-3.5-1.58-.92-.46-.94-.73-.31-1.47.07-.08-.07-.52-.22-.65-.8-.67-.57-1.42-.2-2.27a1.2,1.2,0,0,0-.32-1.34s-.23-.24-.23-.23c-.44-.23-.51.1-.56.46l0,.36c-.21.85-.31,1.78-1.28,2.11-1.85-2.3-1.32-4.69,0-7.11,1.79-1.34,2.89.3,4.21,1l.44.93c.1,4.46,2.45,6.92,6.1,8.15a26.66,26.66,0,0,0,3.33.72.9.9,0,0,1,1.16.52c.5,1.36,1.1,2.1,2.35.69a1.07,1.07,0,0,1,.46.8,2.94,2.94,0,0,1,.08-1c1.29-.77,2,.1,2.74,1a2.67,2.67,0,0,1-.5,2.49,5.7,5.7,0,0,1-.67.79,6.68,6.68,0,0,1-.8.6c-1.8,1.68-4.1,2.75-4.69,5.76-.25,1.29-1.62,1.71-2.88,1.09h0c-.13-.64-.86-.62-1.09-1.15h0a.72.72,0,0,1-.14-.6c.06-.2.11-.31.15-.3.29-.46,1.13-.76.83-1.39-.44-.9-1.14-.09-1.74,0a1.12,1.12,0,0,1-.83-.29h0c-.18-1.64-.82-3.16-.73-4.84,0,1-.13,1.74-1.33,1.26C974.65,237.37,974.5,237.09,974.34,236.81Z"/><path class="cls-26" d="M998.36,237.22a3.34,3.34,0,0,1-1.83,2.16c-1.22.67-2.48,1.2-3.26,2.61a1.14,1.14,0,0,1-1.56.29c-.45-.26-.68-1.17-1.35-.75-.85.53.21,1,.09,1.53a9.36,9.36,0,0,1-.76,1.64,3,3,0,0,1-3,.89,3.58,3.58,0,0,1-.45-2.65,2,2,0,0,1,.39-.74c.43-.48.18-1,.2-1.57.35-.85,1.08-1,1.79-1.3a2.32,2.32,0,0,0,1.17-.77c.89-1.29,1-3.24,2.57-3.92s1.47,2.49,3.2,1.65c.56,1.46,1.75,0,2.52.55Z"/><path class="cls-75" d="M986.62,242.44a5.71,5.71,0,0,1,0,3.15c-1.62,1.26-3.6.66-5.33,1.37-.22.09-.66-.2-.84-.45a11.86,11.86,0,0,1-.86-1.57c2-.37,3-1.62,2.82-3.84a1.23,1.23,0,0,1,.82-1.43,4.43,4.43,0,0,0,3.18-2.31c.07-.15.42-.14.64-.21,1,1,.54,1.94-.23,2.81S985.79,241.54,986.62,242.44Z"/><path class="cls-75" d="M974.8,237.66a1.48,1.48,0,0,1,.32-.14c.67-.18.59-1.57,1.45-1.22.58.23.43,1,.47,1.65a6.24,6.24,0,0,1-.18,3.29A15.66,15.66,0,0,1,974.8,237.66Z"/><path class="cls-75" d="M978.75,243c-.06.25-.13.5-.18.76a2.89,2.89,0,0,1-1.21-1.64l.39-.34C978.48,241.82,979,242,978.75,243Z"/><path class="cls-75" d="M978.57,243.79c.57.16,1,.42,1.09,1.15A1.25,1.25,0,0,1,978.57,243.79Z"/><path class="cls-75" d="M976.84,241.25l.84,0a.37.37,0,0,1,0,.59l-.35.25A.93.93,0,0,1,976.84,241.25Z"/><path class="cls-76" d="M1012.28,218.52a6.51,6.51,0,0,0-.13,3.83.5.5,0,0,1,.06.54c-.09.15-.17.22-.22.21-.06.24-.11.49-.17.73a9.52,9.52,0,0,0-3.22.35c-1-.45-1.56-1.5-1-2.33,1.47-2.17-.57-2.2-1.28-3a3,3,0,0,1-.55-.84c.5-4.1,0-8.23.76-12.32a6.57,6.57,0,0,0,0-1.93,5.26,5.26,0,0,1-.13-1c2-1.7,0-3.36.11-5,.68-1.17,1.65-1.05,2.64-.8,1.27.93,1.56,2.65,2.57,3.79,0,.59-.06,1.19.44,1.59l.6.83c0,.21-.06.41-.07.62a2,2,0,0,0,.48,1v0c0,2,1.28,4.46-2.3,4.86-1.07.12-.64,2.4-1,3.65,0,.46-.68,1.16.39,1.24a2.1,2.1,0,0,1,2.08,2.3c.24.31-.6.42-.15.79S1012.67,218.13,1012.28,218.52Z"/><path class="cls-53" d="M1009.12,196.91c-.61.85-1.75.18-2.36,1.05-.24,3.87-.7,4.2-3.32,2.4,0-.73.09-1.47.09-2.2a3.06,3.06,0,0,1,1.69-2.87c.06-1.29.67-1.62,1.72-1.21h0a1.27,1.27,0,0,0,.75.87A3.6,3.6,0,0,1,1009.12,196.91Z"/><path class="cls-56" d="M1006.94,194.08a2.61,2.61,0,0,0-1.72,1.21c-.18-.29-.36-.57-.53-.86s-.34-.6-.52-.89l-1.34-.28c-.4-.15-.89-.3-.91-.81s.47-.65.9-.76a7.49,7.49,0,0,0,1.16-.52C1005.08,192,1006.46,192.5,1006.94,194.08Z"/><path class="cls-56" d="M1007.67,194.94a1,1,0,0,1-.75-.87Z"/><path class="cls-77" d="M972.51,222.38c-.89.27-1.77.59-2.37-.52-.44-.81-1.2-.39-1.84-.46l1.32-5a1.81,1.81,0,0,0,1-1.35,2,2,0,0,0,1-1.37l3-3,.81-.58a2.24,2.24,0,0,0,.57-.08,3,3,0,0,1,.82-.56l0,0a2.19,2.19,0,0,1,.82-.5l.07,0c.48-.46.9-.26,1.33,0a.79.79,0,0,1,0,.65c-.1.2-.17.3-.22.29l-.07-.08a5.07,5.07,0,0,0-.79.68l0,0a1.74,1.74,0,0,0-.84.7C974,214.15,973.09,218.19,972.51,222.38Z"/><path class="cls-78" d="M977.13,211.11a1,1,0,0,1,.84-.7Z"/><path class="cls-78" d="M978,210.43l.79-.68A.94.94,0,0,1,978,210.43Z"/><path class="cls-37" d="M978.81,209.83c0-.27.06-.53.1-.8.21-.24.41-.23.59,0l.15.2Z"/><path class="cls-79" d="M1013.17,161.35a2.35,2.35,0,0,0-.53,0c-.79,0-.85.7-1.11,1.23h0c-.29.23-.52.19-.68-.16-1.58.15-1.53.14-1.52-1.2,0-1,.32-2.14-.35-3.06l.15-.75a1.68,1.68,0,0,0,.44-2.23l.18-.73c.39.23,1,.36,1.13.71a11.7,11.7,0,0,0,2.42,3.46c.25.31.18.94.25,1.41C1013.42,160.48,1013.29,160.91,1013.17,161.35Z"/><path class="cls-80" d="M986.33,233.86c-.56,0-1.21-.11-1.32.78-.08.71.3,1.49-.33,2.09-.12.12-.41.06-.61,0a.33.33,0,0,1-.17-.28,6.62,6.62,0,0,0-1.52-4.3c.64-.52,1.26-1.06,1.92-1.55a5.26,5.26,0,0,0,1.9-2.09,17.44,17.44,0,0,0,5.32-5.06l1.41-.6,1.34.28c.75,1.31.38,3.76,2.87,3.29a2.28,2.28,0,0,1,1.43,1.29c.33,1.19.79,2.41-.44,3.42a2.61,2.61,0,0,1-1,.17l-.48,0c-2.82.21-5.59.56-7.66,3.13a7.61,7.61,0,0,1-1.2-.63c-.53-.4-1-.5-1.5.05Z"/><path class="cls-81" d="M998.18,227.89l-1.14-1a3.56,3.56,0,0,1,.29-4.6,11.27,11.27,0,0,0,1.9.73c.8.15,1.25-.53.94-1.35-.13-.34-.37-.63-.48-1-.23-.72.24-.79.72-.85,1-.12.55-.86.55-1.41,1-1.85,1.76,1.21,2.7,0,1-.35,2,.23,3-.29a6.77,6.77,0,0,0,3.25,1.53,1,1,0,0,1-.45,1.05c-1.79,1.27-1.79,1.27-.51,3.31a.82.82,0,0,1-.27.91c-1.79.29-2.14-1.24-2.69-2.51-.13,2.21-1.48,2.08-2.89,1.86a1.27,1.27,0,0,0-1,.3C1001,226,1000.64,228.43,998.18,227.89Z"/><path class="cls-48" d="M1003.44,200.36a3.63,3.63,0,0,0,.67-.15c.69-.23.75,1.35,1.63.58.7-.62.2-1.39.36-2.06.07-.29.44-.52.66-.77a2.22,2.22,0,0,0,1.45,1.88c.45.16.45.59,0,.75-.71.28.72,1.55-.72,1.47-1-.05-.51.85-.54,1.38-2.53,2.93-2.86,6.68-3.57,10.3a2.26,2.26,0,0,1-1,.24c-.83-.28-1.94-.27-1.51-1.79h0c.66-.37.61-.89.32-1.47,0-.36-.09-.72-.1-1.07,0-.77,1.22-1.5.32-2.17-.32-.25-1.21.37-1.84.59-.18-1.33-.35-2.66-.52-4,.31.34.65.65.94,1a.79.79,0,0,0,1.41,0c.57-.78,1-1.66,1.52-2.49a1.93,1.93,0,0,1,.51-2.2Z"/><path class="cls-82" d="M1000.88,212.19c.3,1,1.15,1,1.89,1.2.38,1.85,1.77,3.46.91,5.59a5.54,5.54,0,0,0-.59.32c-.32.24-.8.79-.82-.09,0-1.2-.67-.91-1.31-.8h0c-.25-.54-.92-.53-1.2-1-.17-.3-.34-.59-.52-.88-.42-.46,0-1.16-.34-1.63C999.72,214.11,999.81,212.73,1000.88,212.19Z"/><path class="cls-83" d="M997.33,222.26c-.1,1.53-.2,3.07-.29,4.6a6.75,6.75,0,0,0-.88.59c-.56.53-1,.36-1.46-.13-1.1-1.23-.77-2.7-.43-4.16,1.28.18,1.9-.61,2.16-1.85.12-.57.39-1.05.89-.76s.14.87.07,1.34C997.38,222,997.35,222.14,997.33,222.26Z"/><path class="cls-84" d="M998.91,214.87a1.62,1.62,0,0,1,.34,1.63c-.13.58-.24,1.18-.42,1.75-.1.31-.29.76-.68.44a1.3,1.3,0,0,1-.43-.87C997.63,216.64,998.72,216,998.91,214.87Z"/><path class="cls-82" d="M1001.2,210.72a2.24,2.24,0,0,1,.47.45c.46.82.39.91-.79,1C1001,211.7,1001.1,211.21,1001.2,210.72Z"/><path class="cls-81" d="M999.77,217.38a1.39,1.39,0,0,1,1.2,1A1.39,1.39,0,0,1,999.77,217.38Z"/><path class="cls-80" d="M977.72,270.74c1.73.46,3.65.11,5.22,1.36.71.57,1.25-.14,1.77-.65.73-.74,1.24-.18,1.76.31s.45.84-.09,1.17-1.39.53-.46,1.45a2.16,2.16,0,0,1,.41,2.06c-.25,1.33-.19,1.34,1.09,1.79-.66,2-1.77.62-2.63.44s-1.13-1.64-2.23-.63h0c-1.41.73-1.87-1-2.93-1.26-.51-.13-.23-.86-.12-1.31a2.59,2.59,0,0,0-.77-2.95c-1.2,0-1.47-.62-1-1.77Z"/><path class="cls-80" d="M974.2,270.79l2,.4a8,8,0,0,1,2.37,2c-2.59,1.18-2.59,1.18-4,3.91l-.88-1c-1.36.14-2.14-1.3-3.44-1.34-1.87-.52-5.28,1.29-4.44-3.35a1.79,1.79,0,0,1,.65-.85c2.1-.35,3.81.89,5.66,1.51.75.25,1-.07,1.24-.68a6.18,6.18,0,0,1,.83-.62Z"/><path class="cls-33" d="M970.67,273.87c1.52-.05,2.12,1.33,3,2.24-.1.49-.21,1-.31,1.49l-.64-.17h0a1.55,1.55,0,0,0-2.06-.47,2.57,2.57,0,0,0-.68,0c-.28.16-.55.33-.82.51l-.7,0-.29.11-.25-.2-.11-.21C967.65,274.84,969,274.2,970.67,273.87Z"/><path class="cls-40" d="M978.57,273.21a3.54,3.54,0,0,1-2.37-2l1.52-.45a2.51,2.51,0,0,0,1,1.77C978.7,272.75,978.64,273,978.57,273.21Z"/><path class="cls-80" d="M1007,269.28c0,.24-.08.48-.13.72.32,1.07,1.29,1,2,1.33a5.36,5.36,0,0,0-.34.62c-.75-.08-1.51-.44-2.21.24l-.91.45c-.21,0-.42,0-.64,0-1.2.57-1.44-.18-1.46-1.23.43-1,1.57-1.06,2.14-1.88a3.22,3.22,0,0,1,.76-.57A.62.62,0,0,1,1007,269.28Z"/><path class="cls-74" d="M970.39,225.81l-.83.59,0,0c0-.72.28-.87.83-.59Z"/><path class="cls-85" d="M925.44,217.78a7.43,7.43,0,0,1,.8-1.65c1.26-1.51,2.51-2.94,2.82-5.1.11-.79.84.25,1,0a7.44,7.44,0,0,0,.74-1.64l.52.31c.09,1.82.17,3.63.25,5.45-.32,1.79-.91,3.41-2.61,4.35-.61-.54-.56-1.72-1.55-2C926.67,217.21,926.09,217.59,925.44,217.78Z"/><path class="cls-86" d="M950.4,173.53a1,1,0,0,0,.37,1,2,2,0,0,0,.45,1.56c0,.25,0,.5,0,.75,0,1.45,0,1.46-.87,1.32a15.94,15.94,0,0,0-1.68-.29c-.67,0-1,.55-1.33,1.08l-.47.15a2.45,2.45,0,0,1-1-1.46c-1.73-4.68-1.39-5.25,3.32-5.52.79.1,1,.76,1.22,1.45Z"/><path class="cls-86" d="M946.39,182.67a.73.73,0,0,0-.49-.25l0,.07a1.34,1.34,0,0,1-.58-1h.06c-.23-.48-.46-.95-.68-1.42.61-.92,1.54-.91,2.41-1.09l.23-.07a5.43,5.43,0,0,1,.53,3.26C947.44,182.71,947.06,183.27,946.39,182.67Z"/><path class="cls-87" d="M946.39,182.67l1.44-.48.57.93c-.12,1-.61,1.45-1.54,1.08-.21-.26-.42-.52-.62-.79Z"/><path class="cls-88" d="M925.87,136.46l1.62,2v0c.21.26.41.52.61.79,0,.21.16.29.35.24a1.8,1.8,0,0,1,.84.86h0c.23.55,1,.51,1.07,1.21l-.09-.1a.53.53,0,0,1,.19.8c-1.37,3.46-4.1,5.58-6.66,7.88a.54.54,0,0,1-.74-.38l0,.09c-.61-.72.21-1.67-.25-2.41h0c.29-2.22.56-4.43-.68-6.41-.23-1.54.66-2.88.81-4.35A3.17,3.17,0,0,1,925.87,136.46Z"/><path class="cls-89" d="M1024.4,320.25a8.86,8.86,0,0,0,.2-5,6.28,6.28,0,0,1,.25-3.56l.53.3a4.89,4.89,0,0,0,1.15,4.18,2.09,2.09,0,0,0,.39,1.6,3.23,3.23,0,0,0,.19,2.37c-.07.45-.14.9-.22,1.34-1.29,1.05-1.29,2.39-.84,3.83.64,2.67.44,3.93-1.45,4.56-1.32.44-1.66.85-1.57,2.18s-.82,2.59-.64,4l-1.52.57,0-.05c-.65-.76-1,.19-1.56.33l0-.06-1.64-1.15-2.31-2.06-.05.06a2,2,0,0,1-.67-.85h0a3.93,3.93,0,0,0-1.53-2.07.85.85,0,0,0-.59-.79v0a.5.5,0,0,1-.2-.56c.08-.21.14-.31.2-.29a2.58,2.58,0,0,1,3.11.88c1.9,2.78,3.74.76,5.24-.43.63-.5-1.43-3.19,1-3.4,2.66-.23,2.28-2.22,2.68-3.87a4.22,4.22,0,0,0-.1-1.7C1024.42,320.53,1024.41,320.39,1024.4,320.25Z"/><path class="cls-90" d="M936.67,267.3a.83.83,0,0,0-.91.48,1,1,0,0,0-.76.72l-1.71,1.1-1.24.12a1.19,1.19,0,0,1-.15-1,3.6,3.6,0,0,1,1-1.22c3-1.33,3.63-4.88,5.73-7.05a1.42,1.42,0,0,0-.25-2c-2.28-1.63-2.3-4.3-2.68-6.83a5.59,5.59,0,0,1,.3-.6c1.76-.7,2.59.91,3.77,1.65.16.29.33.58.49.88a2,2,0,0,0,.32,1.65.93.93,0,0,0,.45.93,3.23,3.23,0,0,0,.29,2.29,48.91,48.91,0,0,1-1.37,7.22c-.24,1.08-.76,1.41-1.69,1.26A1.79,1.79,0,0,0,936.67,267.3Z"/><path class="cls-91" d="M970.67,273.87c-1.36.64-2,2.08-2.84,3.22-1.33-.09-2.45-1.28-3.94-.62-.48.21-.7-.45-1-.77a1.66,1.66,0,0,0-2.47-.2l-.69,0a.87.87,0,0,0-.54-.23,4,4,0,0,1,0-.69c.58-2.14,2.1-3.43,3.82-2.6,1.46.7,2.11-1.6,3.28-.55.15.84.3,1.68.46,2.53.72.46,1.26-.48,1.93-.38S970,273.76,970.67,273.87Z"/><path class="cls-9" d="M933,268.12l-.83.6c-2-1.2-3.39-1-3.49,2a4.47,4.47,0,0,1-.81,2c-.87,1.1-2.47,1.26-3,2.79a4.26,4.26,0,0,0-.61,0c-2.81,1.26-5.56,2.62-7.43,5.45v0c-1.49-1.12-2.78-.57-4,.7a2.07,2.07,0,0,0-.61,1.69c0,.48.37,1.16-.05,1.39s-1.06.33-1.6.56a1.4,1.4,0,0,1-1.27-.3c-.46-.42,0-.86.31-1.22.71-.93,1.35-1.84.14-2.82-.32-.26-.12-.68-.13-1,0-1.07-.57-1.17-1.37-.76s-1.11,0-1.27-.68a1.35,1.35,0,0,1,.62-1.6c.39-.22,1.19-.46,1.18-.52-.29-1.4,1.34-2.46.72-3.88a1,1,0,0,1,.3-1.29,6,6,0,0,0,1.92-3.11q-.22-.3-.06-.45a.35.35,0,0,1,.26-.12h0a4.51,4.51,0,0,0,1.68-1.21h0l1.83-1.94a.88.88,0,0,0,.83-.61.84.84,0,0,0,.82-.6l5.31-4.05.93-.1c1-.3,1.66-2.55,3-.65.75,1,1.14.14,1.37-.57.84-2.62,3.18-2.9,5-3.62,2.31-.9,3.78.73,3.37,3.37-.11.73-.63,1.56-.37,2.2C937.32,263.43,934.7,265.6,933,268.12Z"/><path class="cls-92" d="M927.87,272.68c0-.75.33-1.63.07-2.2-.69-1.5-.13-2.29,1.06-3,.5-.29,1-.65,1.51-1a6.38,6.38,0,0,1,1.66,2.21l-.12,1A15.67,15.67,0,0,1,927.87,272.68Z"/><path class="cls-93" d="M961.29,162l.59.82c.15.66.64.87,1.16,1.05a1.92,1.92,0,0,1-.15.67c-1.13,1.17-2.53.92-3.87,1l-.46,0a.71.71,0,0,1-.53-.65.69.69,0,0,0,0-.61c.12-.61.23-1.21.36-1.81s.36-1.44,1.15-1.68C959.92,161.52,960.66,161.69,961.29,162Z"/><path class="cls-93" d="M958.28,167.16a.54.54,0,0,0,0-.54,1.28,1.28,0,0,1,.26-1.36l.3-.15c2.65.59.77,1.64.14,2.57C958.49,167.83,958.27,167.65,958.28,167.16Z"/><path class="cls-94" d="M1010.85,162.43l.68.16a4.2,4.2,0,0,1-.21.66l-.63-.09C1010.74,162.91,1010.79,162.67,1010.85,162.43Z"/><path class="cls-25" d="M1009.57,155.19c1.11,1.34,1.1,1.43-.44,2.23C1009.28,156.68,1009.42,155.93,1009.57,155.19Z"/><path class="cls-95" d="M958.5,169c.09-.48.18-1,.28-1.44l.56-1.38c.26-.64-.18-.85-.55-1.1,1.32-.74,2.74-.32,4.1-.54l.9,2.55c.17,1.06.36,2.12.52,3.18a3.82,3.82,0,0,1-1.18,3.59l-.87.54a4,4,0,0,1-2.61-.59l-.37-1a3.42,3.42,0,0,0-.41-2.23A1.76,1.76,0,0,0,958.5,169Z"/><path class="cls-96" d="M1025.59,321.28a18.25,18.25,0,0,0-.67,4.42c0,.69-.45,1.1-1,1.42s-.73-.05-1.1-.36c-.74-.63-1.21.26-1.72.67a.81.81,0,0,0-.23.64c0,.14.34.29.52.29.46,0,.92-.11,1.29.27a4.77,4.77,0,0,1-2,2.22,21.45,21.45,0,0,0-3,2c-.55.37-1.28.47-1.43-.24-.44-2.21-2.15-2.56-3.68-3.24-.32.23-.55.15-.69-.21l0,.05a5.27,5.27,0,0,1-.58-.87h0c-.16-.3-.34-.59-.51-.89h0a2,2,0,0,1-.41-1l.06.05c-.6-.34-.17-1.11-.51-1.56h0a.93.93,0,0,0-.38-1,1.68,1.68,0,0,0-.54-1.52,2.22,2.22,0,0,0-.21-1.7,2.82,2.82,0,0,0-.35-2.29,1.79,1.79,0,0,0-.2-1.71c.33-1.48-.44-2.73-.55-4.12a.34.34,0,0,0,.06-.5,1.07,1.07,0,0,1,.14-1.44l.2-.13c3.74.78,5.16,4.36,3.75,9.46-.19.47.76-.09.3,0-.14,0-.1-.1-.05-.37.36-2.08,1.16-2.31,2.43-.81.86,1,.87,2.53,1.87,4.05,0-2.23.17-4-1.15-5.35a5.07,5.07,0,0,1-.61-.83c-1-2.39.46-3.36,2.17-4.18a2.86,2.86,0,0,0,1.28-1.25c.4-.59.5-1.2-.19-1.54-1.08-.55-1.11-1.8-1.56-2.75-.33-.7.05-1.17.75-1.32.34-.07.81-.2.57-.62-.94-1.65.41-2.78.68-4.26,1.56.74.59,2.69,1.55,3.44,1.47,1.13-.38,2.59.36,3.75.84.46,1.49-.29,2.23-.58.75,1.7.2,3-1.37,3.56-2.15.71-2.48,2.46-2.74,4.37-.14,1,.2,1.27,1.18,1.11,1.47-.24,1.48-.24,1.89,1.1.11.36.17.73.28,1.08a5,5,0,0,0,.29.62c.56,0,1.6-1.38,1.5.58,0,.17.53.35.82.52C1024.65,320.79,1025.32,320.77,1025.59,321.28Z"/><path class="cls-4" d="M930.83,143l1.67,1.26,0-.05a2.36,2.36,0,0,1,.7.8h0c.23.54.92.53,1.14,1.09l0,0c.56,1.12,1.08,2.28,2.3,2.75a1.5,1.5,0,0,0,1.1,1.1c0,.22,0,.43-.06.64.65,2.07-1.72,3.19-1.52,5.11,0,1.43.55,1.88,1.77,1a1.11,1.11,0,0,1,.85.31c.91,1.39,1.28,2.83.19,4.39a4.77,4.77,0,0,1-.72.7c-.89.67-1.93,1.05-2.79,1.77a2.87,2.87,0,0,1-1.62.82,4.48,4.48,0,0,1-.56-.32.83.83,0,0,0-.43-1,.86.86,0,0,0-.56-.85.94.94,0,0,0-.51-.9.87.87,0,0,0-.46-.92.9.9,0,0,0-.54-.87.89.89,0,0,0-.53-.87c0-.23.06-.46.07-.69.93-1.91,1.52-3.9-.16-5.51-1.89-1.81-2.51-3.62-.84-6.15C930.06,145.62,929.5,143.88,930.83,143Z"/><path class="cls-96" d="M935.07,156.25a6.91,6.91,0,0,1,2.22-4.71c.23-.18.29-.64.42-1a3.8,3.8,0,0,1,1.67,2.49,2.61,2.61,0,0,1,0,1C938.13,155.34,937.19,157.27,935.07,156.25Z"/><path class="cls-4" d="M939.08,154l.3-.95,1.62,1.48a.83.83,0,0,0,.61.81,4.09,4.09,0,0,1-.07.6c.35,1.39.1,2.71-1.36,2.87s-.87-1.42-1.06-2.26A3.55,3.55,0,0,1,939.08,154Z"/><path class="cls-97" d="M984.18,121.86l.54.87a2,2,0,0,1-.1.59A9,9,0,0,1,985,127c0,.92.59,2.19-.6,2.6s-1.78-.71-2.16-1.79a6.46,6.46,0,0,1-.22-1.08c0-1.48-1-2.31-1.73-3.34.11-1.29.25-2.56,1.35-3.42a1.45,1.45,0,0,0,1.28.92A1.79,1.79,0,0,0,984.18,121.86Z"/><path class="cls-98" d="M980.33,123.36c.22,0,.43.08.64.14,1.77.53,1.77.53,1.58,2.65l-.23.36c-.25.34-.51.67-.78,1a3.4,3.4,0,0,1-.61.59l-.41,0a3,3,0,0,1-.46-.19c0-1.05.94-2.12.06-3.15Z"/><path class="cls-97" d="M981.12,129.75c-.16.53-.32,1.06-.49,1.6-.17-.12-.33-.25-.49-.38a.82.82,0,0,0,0-.67l.36-2.18.35,0C981.76,128.49,981.7,129.06,981.12,129.75Z"/><path class="cls-99" d="M933.87,164.72c.37-.5.74-1,1.12-1.51a4.17,4.17,0,0,0,3.18-1.65h0a1.52,1.52,0,0,1,2.4,1.08,1.69,1.69,0,0,1-.87,2.1c-1.71,1.2,0,3.06-.7,4.21,4.64,2.08,4.8-3.3,7.21-5,.35.4.71.79,1.06,1.18a4.39,4.39,0,0,0,1.37,3.41,2,2,0,0,0,.39,1.61.87.87,0,0,0,.35,1c0,.4,0,.8,0,1.2-.83,1-1.94.58-2.93.73s-1.27.72-.85,1.48a20.49,20.49,0,0,1,1.45,4.47,2.19,2.19,0,0,1-2.41,1.09l-.21,0-.17-.13c-2.64-.06-2.57-3.69-4.83-4.25a4.53,4.53,0,0,0-.59-.28.89.89,0,0,0-.47-.9.92.92,0,0,0-.54-.87.91.91,0,0,0-.48-.9,10.43,10.43,0,0,0-2-4.2.86.86,0,0,0-.48-.91C935,166.51,933.93,165.83,933.87,164.72Z"/><path class="cls-86" d="M939.45,175.76c.67,0,1.34.11,2,.09s1.23.12,1.11.91c-.25,1.67.71,2.45,1.71,3.25-1.5,1-2.33-.3-3.34-1l-1.61-2.58C939.36,176.2,939.4,176,939.45,175.76Z"/><path class="cls-70" d="M1009.17,213.19c-.38-1.75.68-3.33.67-5.06,0-.62.58-.64,1-.18a3.47,3.47,0,0,0,.68.78c.49.31,1.38-.37,1.13-.86-.64-1.25.24-2.14.52-3.17l.62.19.51.9a3.56,3.56,0,0,0,1,1.77l-.21.75c-.37.86-1.16,1.8.3,2.32l.52.26a1.76,1.76,0,0,0,.45,1.55,5,5,0,0,1-.22.72c-1.79.52-3.66.47-5.44,1C1009.81,214.47,1009.43,214,1009.17,213.19Z"/><path class="cls-100" d="M1009.17,213.19a6.67,6.67,0,0,0,.86.46c1.07-1.69,2.52-.46,3.75-.72a7.64,7.64,0,0,1,2.36.23,1,1,0,0,1-.11.73c-1.12-.21-1.64.67-2.16,1.5a.81.81,0,0,0,0,.64c1.38.67.35,1.29-.08,1.91a1.48,1.48,0,0,1-1.53.58c-.18-.3-.36-.6-.53-.9h0c-.32-2.68-.43-2.74-3.45-2.17C1008.18,214.52,1009.12,214,1009.17,213.19Z"/><path class="cls-101" d="M986.77,139.46c-.15-.77-.15-1.37.78-1.67.49-.16.88-.74,1.32-1.13l.89,1.27-.18,2.1c-.16-.15-.38-.27-.45-.47-.29-.85-.74-1-1.45-.47a4,4,0,0,1-.91.37Z"/><path class="cls-7" d="M946.9,332.3a4.4,4.4,0,0,1,.21.5c0,.05-.13.14-.21.21A.75.75,0,0,1,946.9,332.3Z"/><path class="cls-78" d="M979.5,209.06a1.94,1.94,0,0,1-.59,0l-1.25-.19.78-.66C978.92,208.31,979.39,208.42,979.5,209.06Z"/><path class="cls-78" d="M976.74,209.39l-.82.56a4.12,4.12,0,0,1,.18-.69A2.8,2.8,0,0,1,976.74,209.39Z"/><path class="cls-78" d="M977.59,208.87l-.82.5A.74.74,0,0,1,977.59,208.87Z"/><path class="cls-102" d="M916.83,281c.84-3.18,2.77-4.91,5.77-5.23.56-.06,1.11-.15,1.66-.22a4.15,4.15,0,0,1-.15.7.87.87,0,0,0-.83.58,1,1,0,0,0-.88.52.9.9,0,0,0-.83.62l-3.3,2.43a.74.74,0,0,0-.84.58Z"/><path class="cls-27" d="M1003.83,270.93c-.16.93.13,1.53,1,1.72a4.57,4.57,0,0,1-.19.63,1.72,1.72,0,0,0-1.44.57l-.85.59-.84.56a1.65,1.65,0,0,0-1.48.51l-.9.45c-.74,0-1.49-.17-2.11.47a.92.92,0,0,0-.84.59l-.84.6-.84.59-.86.53a1.53,1.53,0,0,0-1.47.53l-2.37,1c-1.1-.54-2.29.43-3.39-.09-.61-1.07-1.8-.76-2.67-1.2-.17-.63-.66-.81-1.18-.94.23-.75.49-1.55,1.4-.89.46.33.75,1,1.23,1.23a1.61,1.61,0,0,0,2.23-.15h0c1.26-2.25,3.64-1.18,5.38-2.27,1.56-1,3.49-1.19,4.54-3.11.23-.44.66-1.06,1-.76,2.06,1.68,3.29-.54,4.82-1.3h0Q1003.61,270.4,1003.83,270.93Z"/><path class="cls-12" d="M946.21,163.92a36.73,36.73,0,0,1-2.78,6.08c-.46.9-1,.89-1.66.34-.18-.15-.38-.26-.56-.42-.76-.68-1.17-.23-1.54.57-.22.44-.6.88-1.11.71s-.74-.88-.66-1.51c.12-.87.31-1.72.49-2.58.11-.52.14-1-.36-1.26-.74-.37-.59-1-.27-1.53a1,1,0,0,1,1.48-.49c.31.15.72.25.84-.22a2,2,0,0,0-.2-1.07c-.3-.82-1.07-.78-1.71-1a2.66,2.66,0,0,0,.66-2.89,13.39,13.39,0,0,1-.39-1.69c-1.07.27-.74,1.73-1.71,2.27-.56-1-1.11-2-1.66-3,.34,0,.88,0,1-.13.68-1.34,2.1-1.3,3-2.11a4,4,0,0,1,.7,3.76c0,.11.2.44.34.46a.66.66,0,0,0,.59-.25c.32-.66.56-1.35.83-2,.9.57,1.16,1.87,2.2,2.28a3.61,3.61,0,0,0,1,1.75.93.93,0,0,0,.55.86.88.88,0,0,0,.5.9.94.94,0,0,0,.45.92C946.26,163.08,946.24,163.5,946.21,163.92Z"/><path class="cls-103" d="M981.12,129.75a2.13,2.13,0,0,0-.25-1.61,3.09,3.09,0,0,1,.07-.74,3.64,3.64,0,0,1,1.61-1.25h0c.47.46.38,1.12.5,1.72a1.49,1.49,0,0,0,1.2,1.16c-.4-2.42-.4-2.42.37-5.71l1.76.74a1.42,1.42,0,0,0,.54,1.49l.36,1a1.91,1.91,0,0,0,.41,1.59,6.55,6.55,0,0,0,.77,3.22l-.15,1.43c-.92-.15-1.83-.37-2.53.67a13.36,13.36,0,0,1-1.14,1.44c-.49.55-1,.36-1.2-.44a15.39,15.39,0,0,1-.55-2.91C982.85,130.18,982.08,129.91,981.12,129.75Z"/><path class="cls-104" d="M1015.39,210.63a5.46,5.46,0,0,1-1,.9c-.63.29-1.09-.17-1-.86a2.35,2.35,0,0,1,1.78-2.36A3.16,3.16,0,0,1,1015.39,210.63Z"/><path class="cls-105" d="M966.25,271.39a2.42,2.42,0,0,0-1.77,1.56c-.14.32-.36.51-.74.17-1.54-1.38-2.68-.64-3.68,1-.15.25-.6.29-.91.43l-1.71-1.27c-.18-.29-.36-.58-.55-.86l-.48-.9a1.83,1.83,0,0,0-.47-1.56l-.52-.88-.51-.89-.5-.9c-.15-.31-.3-.62-.46-.93l-.48-.9a1.54,1.54,0,0,0-.41-1.59l.12-.72c.44-.06,1.07-.33,1.22.18a5.37,5.37,0,0,0,2.44,2.88,2.29,2.29,0,0,1,.67.68c1,1.77,1,1.81,2.64.69a2.42,2.42,0,0,1,2-.16,4.14,4.14,0,0,1,.53.87c.27.83.45,1.72,1.54.86.26,1.38,2,.07,2.28,1.43Z"/><path class="cls-88" d="M924.22,150.81l.06-.61c.09-1.31,1-2,1.71-1.16,1,1.23,2.53,2.67,1.07,4.79a3.72,3.72,0,0,1-.65-.19,2.9,2.9,0,0,0-1.57-2A.86.86,0,0,0,924.22,150.81Z"/><path class="cls-9" d="M1075,285.41a2,2,0,0,0-1.93.57c-.89,1.11-2,1.07-3.19,1.12a.6.6,0,0,1-.43-.43c0-.18.2-.4.34-.57a.47.47,0,0,1,.33-.1c1.28,0,1.93-.61,1.75-2.12a5.73,5.73,0,0,1,.25-1.48l1.76,1.3a1.43,1.43,0,0,0,1.17,1.05A4.89,4.89,0,0,1,1075,285.41Z"/><path class="cls-106" d="M940.79,238.75a1.91,1.91,0,0,0-.36-1.63c.09-.48.18-1,.28-1.43l.66.15c.24,1.06.19,2.35,1.06,3,1.49,1.16,1.26,2.7,1,4.33a.49.49,0,0,1-.23.69l-.51-.22a.8.8,0,0,0,0-.59,1.56,1.56,0,0,0-.81-1.93,1.79,1.79,0,0,0-.57-1.49v0a2.59,2.59,0,0,1-.49-.93Z"/><path class="cls-70" d="M1013.14,204.73a1,1,0,0,1-.48-1Z"/><path class="cls-92" d="M933,268.12c.17-1.35,1.06-2.5,1-4,0-.74.63-1,1.27-.71.26.11.51.13.6-.15a.69.69,0,0,0-.2-.62c-.77-.46-1.3-.92-.75-2.05.16-.34-.1-.94-.23-1.39a1.4,1.4,0,0,1,.44-1.66,1.29,1.29,0,0,0,.36-1.92,1.73,1.73,0,0,0-1.69-1c-1.55.06-2.78,1.16-4.24,1.52a1.49,1.49,0,0,0-.95,1.47c.08,1.14-.64,1.86-1.06,2.74-.16.36-.41.66-.8.53a.88.88,0,0,1-.47-.46c-.15-.33-.2-.71-.33-1.05-.47-1.26-.48-1.25-1.93-.6a3.73,3.73,0,0,1-.68.14l.89-1.88a2.19,2.19,0,0,0,1.71-1.15l.81-.57a.55.55,0,0,0,.57-.24.75.75,0,0,0,.85-.39c.75.13,1.53.5,2.14-.41a2.69,2.69,0,0,0,1.71-1.12,1,1,0,0,0,.83-.6.85.85,0,0,0,.88-.52.89.89,0,0,0,.83-.59l1.17.07c.33.1.66.18,1,.3s.65.2.55.73c-.46,2.54-.31,3.06,1.3,4.34a5,5,0,0,1,1.62,3.46,1,1,0,0,1-.74,1.11,2.06,2.06,0,0,0-1.9,1.85C936.9,266,935.14,267.25,933,268.12Z"/><path class="cls-6" d="M1058.36,155.09c-.21.13-.42.27-.63.39,0-.19.11-.39.17-.59A2.37,2.37,0,0,1,1058.36,155.09Z"/><path class="cls-6" d="M1055.4,165.8c-.51,0-1.34.39-1.24-.57.16-1.66-1.26-2.88-.81-4.59.05-.19-.33-.65-.59-.74-.75-.26-1.54-.39-2.32-.58.06-.22.13-.43.21-.64.55.1,1.11.22,1.55-.35a1.51,1.51,0,0,0,1.42-.65.85.85,0,0,0,.84-.59.87.87,0,0,0,.84-.59.93.93,0,0,0,.81-.63,3.14,3.14,0,0,1,.68.13c-.23.82.09,1.67-.27,2.52-.78,1.78-1.37,3.59-.59,5.57C1056.08,164.5,1055.59,165.22,1055.4,165.8Z"/><path class="cls-94" d="M1011.53,162.59c-.11-1.4-.11-1.4,1.11-1.23-.15.45-.29.91-.44,1.36l-.34,0Z"/><path class="cls-9" d="M1076.67,287.32l-.45-.58h.48A2.82,2.82,0,0,0,1076.67,287.32Z"/><path class="cls-9" d="M1075.77,286.27a1.1,1.1,0,0,1-.73-.88l.68.15C1075.73,285.79,1075.75,286,1075.77,286.27Z"/><path class="cls-6" d="M1057.63,155.54l-.86.47.24-.62Z"/><path class="cls-107" d="M953.14,263.17l-.33-.06-.33-.09a1.46,1.46,0,0,0-1.16-1.06l-.51-.89-.46-.93-.51-.89-.58-.84a3.66,3.66,0,0,1,.16-.73c.73.29,1.7-.42,2.25.46C952.6,259.64,953.92,261,953.14,263.17Z"/><path class="cls-51" d="M943.18,243.88a5.08,5.08,0,0,1,.23-.69c.47.22,1.05.32,1.36.69s0,.87,0,1.33a5.52,5.52,0,0,0,.09.68l-.84-.08a3.13,3.13,0,0,0-.48-.25.9.9,0,0,0-.42-.94C943.13,244.37,943.16,244.13,943.18,243.88Z"/><path class="cls-108" d="M1030.7,248l-.36.24c0-.06.06-.15.1-.18a1.11,1.11,0,0,1,.26-.07Z"/><path class="cls-22" d="M1035.09,247.4c-.08-.07-.24-.18-.23-.21.1-.22.18-.13.2.23Z"/><path class="cls-30" d="M1042.72,238.23c-.08-.08-.25-.2-.23-.23.09-.24.19-.15.23.24Z"/><path class="cls-80" d="M1003.18,270.79c-.33,1.49-1.61,2.08-2.51,3-.51.54-1.17.25-1.82-.65-.19-.26-.32-.66-.71-.44-.13.07-.22.44-.19.64.11.66.07,1.28-.61,1.52a6.54,6.54,0,0,0-3,1.75,1,1,0,0,1-1.27.23c-.93-.54-1.48,0-2,.77-.29.38-.9.92-1.1.55-.88-1.68-1.68-.3-2.51.05,0-.36.05-.73.05-1.1,0-1.56,0-1.61,1.31-1.23.48.13,1,.25,1.18-.24a6.8,6.8,0,0,1,1.81-2.22c.36-.3.8-.83,1.12-.77,1.83.33,2.33-1,2.89-2.45a3.75,3.75,0,0,1,.64-.87,5.13,5.13,0,0,1,1.18.56c.91.75,1.37.29,1.7-.69.39.16.78.3,1.15.49a.63.63,0,0,0,.85-.11.5.5,0,0,1,.69.12A1.42,1.42,0,0,0,1003.18,270.79Z"/><path class="cls-43" d="M992.36,268.46c.44,1.26-.45,2.07-.83,3.2-1.2-1.3-.69-2.33.13-3.34l0,0a.42.42,0,0,1,.65.13Z"/><path class="cls-43" d="M986.29,270.25c-1.27-1-1.36-1.5-.35-2.43a1,1,0,0,1,.9-.23c.43.21.08.61,0,.94s-.21.7-.31,1.05c.16.23.18.4.06.52S986.37,270.27,986.29,270.25Z"/><path class="cls-80" d="M986.29,270.25c.06-.22.14-.45.22-.67a1.21,1.21,0,0,1,1.14,1h0Z"/><path class="cls-80" d="M994,271.62c-.08,0-.19.07-.25,0-.23-.13-.22-.28,0-.38.06,0,.18,0,.23.1S994,271.53,994,271.62Z"/><path class="cls-80" d="M988.17,271.44c.08.07.25.19.24.22-.11.23-.2.15-.22-.23Z"/><path class="cls-80" d="M988.19,271.43l-.52-.89h0l.52.89Z"/><path class="cls-3" d="M983.91,268.2c.09.07.26.19.24.22-.1.24-.19.16-.22-.23Z"/><path class="cls-28" d="M1011.76,267.2c-.4-.3-.46-.56.1-.73C1011.82,266.71,1011.79,267,1011.76,267.2Z"/><path class="cls-28" d="M1003.83,270.93l-.66-.15a4.49,4.49,0,0,1,.37-.61c.54-.58-.17-1.92,1-2,1-.09,2-.1,2.51,1.13l-.66-.15a.45.45,0,0,0-.28.44c0,.17,0,.26.11.28C1005.51,271.17,1005.51,271.17,1003.83,270.93Z"/><path class="cls-43" d="M1002,269.72l-.69-.12C1001.61,269.22,1001.84,269.25,1002,269.72Z"/><path class="cls-3" d="M992.34,268.43l-.33-.06-.32-.07.15-.73C992,267.86,992.17,268.15,992.34,268.43Z"/><path class="cls-3" d="M993,265.5c.08.07.24.19.23.22-.1.23-.19.15-.23-.23Z"/><path class="cls-53" d="M1003.44,200.37l-.51,2.2c-.22-.4-.44-.79-.63-1.21s-.94-1-.49-1.5C1002.48,199.09,1002.89,200.15,1003.44,200.37Z"/><path class="cls-53" d="M1004.17,193.54l.52.89Z"/><path class="cls-54" d="M974.19,270.78l-.83.62A1,1,0,0,1,974.19,270.78Z"/><path class="cls-3" d="M961.64,266.51l-.34-.05-.32-.1C961.3,266,961.51,266.05,961.64,266.51Z"/><path class="cls-51" d="M944.83,245.88l.53.88Z"/><path class="cls-9" d="M1064.1,281.68a4.72,4.72,0,0,1-.61-.27c-.39-.25-.24.4-.29-.09,0-.11.33-.36.53-.39a1.87,1.87,0,0,1,.94.12c.14.06.18.38.27.58a2.9,2.9,0,0,1-.54.19C1064.31,281.83,1064.2,281.73,1064.1,281.68Z"/><path class="cls-109" d="M1016.88,312.44c-.17.33-.26.82-.5.95-1.49.74-1.58,1.94-1.13,3.35h0a3.06,3.06,0,0,1,1.84.83c.54.66.15,1.35.12,2.07a21.13,21.13,0,0,0,.41,3.6,1.1,1.1,0,0,1-.64,1.2,1,1,0,0,1-1.22-.37,3.8,3.8,0,0,1-.88-2.34,4.68,4.68,0,0,0-1.66-3.44,1.89,1.89,0,0,0-.4,2.45c.18.34.2.68-.26.76a1.42,1.42,0,0,1-.67-.12c-.34-.12-.69-.47-.53-.78,1-1.82.64-3.51.14-5.37-.58-2.11-1.42-3.83-3.33-4.73a3.87,3.87,0,0,1,.1-.67c.43-.33.87-.64,1.3-.95s0,.3.26-.16c-.13,0-.21.13-.34.16a.82.82,0,0,1-.92-.55c.11-.49.21-1,.32-1.47,1.69-2,2.74-1.49,3.3.87.24,1-.24,2.32.79,3.1h0c.84,1.06,2.39.38,3.22,1.46Z"/><path class="cls-96" d="M1013,310.83c-.55-.2-1.1-.45-1.07-1.2,0-1.3-.69-2.27-1.07-3.38-.77-.21-1.27.57-2,.61.16-.74.31-1.49.47-2.23,1.5-.71,1-1.85.63-3a1.59,1.59,0,0,1,1-1.33,5.93,5.93,0,0,0,.51.88c.8,1.16.52,2.92,1.22,3.88a2.8,2.8,0,0,1,.12,3.58C1012.45,309.35,1012.89,310.11,1013,310.83Z"/><path class="cls-96" d="M1016.2,312.29c-.78.37-1.53-.05-2.3,0-1,.05-1-.66-.92-1.45l.3-.17c.73-.39.76-2,2-1.5,1,.4.88,1.5,1,2.42A3.41,3.41,0,0,1,1016.2,312.29Z"/><path class="cls-4" d="M1011.68,297.06c-.15-.16-.41-.32-.4-.48a3.28,3.28,0,0,1,.23-1.45c.35-.64,1-1.12,1.29-1.77s.57-1.12,1.24-.69.45,1.07.31,1.68C1014,295.88,1012.34,295.88,1011.68,297.06Z"/><path class="cls-109" d="M1010,301.67a2.69,2.69,0,0,1,1,1.46c.41,1.43.16,1.67-1.59,1.5Z"/><path class="cls-96" d="M1008.57,308.33l1.34.29h0c-.22.95-.76,1.36-1.64,1.21Z"/><path class="cls-4" d="M1009.51,293.18c-.09,0-.24.05-.26,0a1.19,1.19,0,0,1,0-.33c.09,0,.24-.05.26,0A1.16,1.16,0,0,1,1009.51,293.18Z"/><path class="cls-109" d="M1011.5,301.22l-.51-.88Z"/><path class="cls-101" d="M986.52,148.12c-1.63-.57-1.94-.87-1.56-2.38a4,4,0,0,0-.05-2.47c-.56-1.65-.53-1.66,1.1-1.87,1.44-.18,1.9.28,1.24,1.48a3.06,3.06,0,0,0,.19,3.69,6.39,6.39,0,0,1,.71,1.21.77.77,0,0,1-.14.65.65.65,0,0,1-.6.18A4.08,4.08,0,0,1,986.52,148.12Z"/><path class="cls-101" d="M986.77,139.46c-.44.57-.88,1.17-1.67.93-.08,0-.17-.25-.14-.31.45-.77,1.13-.71,1.81-.62Z"/><path class="cls-101" d="M988,145.34c-.05-.21-.18-.43-.14-.62s.25-.33.39-.5c0,.21.18.43.14.62S988.12,145.17,988,145.34Z"/><path class="cls-10" d="M985.32,172.47l-.33-.06-.33-.08a2.82,2.82,0,0,1-.26-3.08c1,.56.9,1.81,1.33,2.72C985.76,172,985.47,172.3,985.32,172.47Z"/><path class="cls-110" d="M1001.9,224c.07-.47-.51-1.35.6-1.15.31.06.55.43.86.58.51.24,1.16.56,1.62.1.82-.82-.28-1.19-.45-1.8-.06-.21-.13-.55,0-.68a.85.85,0,0,1,.64-.15,1.62,1.62,0,0,1,1.48,1.28c.4,1.17.91,2.27,2.21,2.54,2-1.87,2.71-.4,3.2,1.47h0a1.13,1.13,0,0,1-.32,1.48h0a.43.43,0,0,1-.68-.14l-.65-.16a1.56,1.56,0,0,1-.09-1.32c-.12.45-.17.93-.62,1.18l-.82.6c-.19,1,1.25,2,0,3.11h0c-.77.45-.43,1.6-1.16,2.07a5.16,5.16,0,0,0-1.42.91,2.05,2.05,0,0,1-2.43.6,3.19,3.19,0,0,1-2.06-3.44,3.74,3.74,0,0,1,.57-1.52c.68-1.1,2-1.19,2.88-2,.41,0,0-.58-.17-.3a.92.92,0,0,1-1.42.18,3.05,3.05,0,0,1-.8-1.49c-.09-.24-.18-.48-.29-.71s-.26-.41-.4-.6A1.49,1.49,0,0,1,1001.9,224Z"/><path class="cls-26" d="M1002.48,231.11a1.77,1.77,0,0,0,.41,1.63,3,3,0,0,1,1,1.79c-.33.95.51,1.5.59,2.31-2.33-.37-2.33-.37-2.63-2.76v0c-.64.16-1.25.37-1.33,1.26s-.69,1.09-1.33,1.27l-.31-.37c-1.65-2.54.53-3.53,1.82-4.89C1001.26,231,1001.83,230.59,1002.48,231.11Z"/><path class="cls-111" d="M1008.89,231a2.6,2.6,0,0,0-.56-2c-.28-.5,0-.9.52-1.12a2.29,2.29,0,0,1,.87,2.51C1009.45,230.56,1009.17,230.76,1008.89,231Z"/><path class="cls-111" d="M1007.73,233c.21-.8.24-1.71,1.16-2.07C1008.68,231.76,1008.65,232.68,1007.73,233Z"/><path class="cls-26" d="M999.19,236.63l-.83.59v0c0-.7.26-.89.83-.59Z"/><path class="cls-111" d="M1012,226.2a3.29,3.29,0,0,1-.68-.72c-.6-1.16-1.49-1.16-2.52-.75l.12-.73c.07-.09.12-.2.2-.29,1.48-1.75,1.48-1.75,2.67.12C1013.09,224.59,1013.09,224.59,1012,226.2Z"/><path class="cls-111" d="M1009.67,227.24c.19-.3.38-.6.56-.9l.15,1Z"/><path class="cls-111" d="M1011.71,227.68c.11-.49.21-1,.32-1.48C1012.61,226.85,1012.51,227.34,1011.71,227.68Z"/><path class="cls-111" d="M1011,227.54l.68.14C1011.38,228.14,1011.15,228.1,1011,227.54Z"/><path class="cls-111" d="M1012,223.1c0-.25.11-.5.16-.75C1012.56,222.7,1012.5,223,1012,223.1Z"/><path class="cls-75" d="M1002.48,231.11l-1.51.47a2.65,2.65,0,0,1-2.63,1.64,1.32,1.32,0,0,1-.74.29l-.33-.12c-.31-.66-.38-.27-.45.16a1.91,1.91,0,0,1-.55,1,.59.59,0,0,1-.64,0s-.14.35-.14.35.34-.06.35,0a1.61,1.61,0,0,1,.72,1.39c-.18.52-.44.77-.92.4-.44.09-1,0-1.3.3-.73.54-1,.22-1.27-.46-.16-.44.12-1-.38-1.37a3.53,3.53,0,0,0-1.47,2.41,5.15,5.15,0,0,1-1.11,2.33c-.56.71-1,.21-1.46-.1a1.85,1.85,0,0,1-.43-1.34,2.68,2.68,0,0,0-.32-1.87l1.14-2.09a15.07,15.07,0,0,0,1.54-2.84c.29-.95.45-1.27,1.38-.83a3.6,3.6,0,0,0,3.9-.57c.46-.33.86,0,1,.51h0l.69.15c1.89-.84,3.72-1.74,4.17-4.27a1.68,1.68,0,0,1,1.3-1.53,1.6,1.6,0,0,1,.37,1.64,2.6,2.6,0,0,1-.6,2.91Z"/><path class="cls-112" d="M988.9,238.3c-.09.48-.17,1-.25,1.44L986.94,241a1.07,1.07,0,0,1-.33,1.46h0a6.2,6.2,0,0,1-1,.22.87.87,0,0,1-.82-1.18c.31-.91,1.12-1.27,1.64-1.93a2.69,2.69,0,0,0,.67-2.4l.64.11C988.65,236.91,988.61,237.82,988.9,238.3Z"/><path class="cls-113" d="M977.71,241.88a1.46,1.46,0,0,1,0-.59c.21-.71.45-1.55,1.25-1.52a2.1,2.1,0,0,1,1.89,1.7,1.17,1.17,0,0,1-.48,1.25,1.69,1.69,0,0,1-1.59.3A2.12,2.12,0,0,0,977.71,241.88Z"/><path class="cls-114" d="M970.37,225.78l-.83.59a5.08,5.08,0,0,1-.67-.8.86.86,0,0,1,.2-1.28,1.16,1.16,0,0,1,1.69.5C970.83,225.05,970.51,225.45,970.37,225.78Z"/><path class="cls-80" d="M986.34,233.86c.5.46,1,.91.79,1.78,0,.08-.24.19-.29.16-.69-.46-.61-1.2-.51-1.94Z"/><path class="cls-80" d="M988.9,238.3l-1.17-1c0-.25.11-.49.17-.73C988.78,236.74,989.11,237.33,988.9,238.3Z"/><path class="cls-110" d="M996.11,234.4l.33-1.47a.48.48,0,0,1,.68.14h0a.4.4,0,0,0,.67.14c1-.61,2.27-.72,3.18-1.63a7,7,0,0,0-.28,1.09c-.12,1.12-1.79.47-1.61,1.43a5.47,5.47,0,0,1,.1,2.51l-.83.59a1.7,1.7,0,0,0-1.57.56c-.39.46-.95,1.16-1.42.8-.73-.57.32-1.24.28-1.93l.84-.6.09-.34a1.66,1.66,0,0,0-.3-.61A1.08,1.08,0,0,1,996.11,234.4Z"/><path class="cls-75" d="M986.61,242.44l.33-1.46a7.93,7.93,0,0,1,1.11.6.73.73,0,0,1,.2.6c0,.43-.37.47-.7.43Z"/><path class="cls-115" d="M1003.43,213.49a3.29,3.29,0,0,0-.19-1.81c-.18-.43-.46-1.09-.3-1.37a2.67,2.67,0,0,0-.08-3.07c-.11-.18.12-.73.32-1s.65-.15.86.17c.37.56.7.58.89-.13a8,8,0,0,0,.12-1.48c.08-1.5.07-1.5,2-1.39h0c.31.49,0,1.15.36,1.63-.19,2.42-.75,4.91-.48,7.25a9.43,9.43,0,0,1-.62,4.91c-.09.22-.15.47-.22.7C1003.3,217.79,1003.52,215.53,1003.43,213.49Z"/><path class="cls-50" d="M1003.43,213.49a5.54,5.54,0,0,1,.56,1.28,4.53,4.53,0,0,0,2,3.16c.21,0,.41.11.62.18-.78,1.25-1.85,1.19-3,.87,0-.25,0-.5,0-.75.06-1.08-1.91-.86-1.23-2.26.42-.87.06-1.74.31-2.58Z"/><path class="cls-48" d="M1007.36,205.07a1.65,1.65,0,0,1-.36-1.63A1.58,1.58,0,0,1,1007.36,205.07Z"/><path class="cls-100" d="M1011.75,217.62c-.08.09-.19.28-.22.26-.21-.1-.14-.2.22-.26Z"/><path class="cls-53" d="M972.39,218.34a1.79,1.79,0,0,1-.35,1.75.6.6,0,0,1-.6.16.66.66,0,0,1-.2-.61A1.73,1.73,0,0,1,972.39,218.34Z"/><path class="cls-42" d="M1003.07,225.06a2.68,2.68,0,0,0-.57,2c.3,1.63-1.32,2.12-1.79,3.3-1.17-.64-1.66.6-2.44,1.07-.29.17-.56-.25-.67-.61.66-.29.77-.81.65-1.5a11.87,11.87,0,0,1-.07-1.47,10.51,10.51,0,0,1,1.16-.67,1.72,1.72,0,0,0,1.27-1.85c-.07-1,.65-1.14,1.29-1.36l.65.16a8,8,0,0,0,.53.89Z"/><path class="cls-42" d="M1006.19,269.85c-.24-.16-.3-.36-.13-.57s.2-.1.3-.15C1006.3,269.37,1006.24,269.61,1006.19,269.85Z"/><path class="cls-23" d="M927.06,153.83a2.34,2.34,0,0,0-.32-2,4,4,0,0,1-1-1.77c-.17-1-.32-.92-1.49.17l-.57-.41c1.23-1.84,2.46-3.66,4.4-4.72.71-.39.88-.94.56-1.86-.41-1.2-.29-1.27,1.19-1.2a1.86,1.86,0,0,1,.34.07l.7.21a4.15,4.15,0,0,1-.07.7,10.92,10.92,0,0,0-.3,2.57,2.75,2.75,0,0,1-1.09,2.86,1.47,1.47,0,0,0,.09,2.47,7.73,7.73,0,0,1,2.21,2.17,4.6,4.6,0,0,1-.13,4.87c-.26.5-.81.4-1.26.42-1.18-.74-1.36-2.53-2.71-3.1a.86.86,0,0,0-.64-.78Z"/><path class="cls-65" d="M1025.59,321.28a1.38,1.38,0,0,1-1.19-1A1.38,1.38,0,0,1,1025.59,321.28Z"/><path class="cls-5" d="M915.38,276.86c-.09,0-.24.05-.26,0a1.16,1.16,0,0,1,0-.33c.09,0,.25-.05.26,0A1.19,1.19,0,0,1,915.38,276.86Z"/><path class="cls-12" d="M938.17,161.56c-1,1.89-1,1.89-3.18,1.65Z"/><path class="cls-97" d="M982.55,126.15a2.83,2.83,0,0,1-1.61,1.25C981.09,126.39,981.64,126,982.55,126.15Z"/><path class="cls-86" d="M943.75,175.15a4.85,4.85,0,0,1,.72,1.1.57.57,0,0,1-.53.72c-.13,0-.39-.26-.39-.4a11.78,11.78,0,0,1,.19-1.42Z"/><path class="cls-86" d="M943.74,175.15c-.08-.07-.25-.19-.23-.22.1-.24.2-.16.24.22Z"/><polygon class="cls-4" points="938.44 156.98 938.67 156.7 938.76 156.87 938.44 156.98"/><path class="cls-97" d="M986,130c.08.07.25.19.24.22-.11.24-.2.16-.23-.23Z"/><path class="cls-97" d="M986,130c-.09-.08-.25-.19-.24-.22.11-.23.19-.15.23.23Z"/><path class="cls-96" d="M1015.25,316.74c-.08.09-.19.27-.21.26-.22-.1-.14-.21.21-.26Z"/><path class="cls-96" d="M1009.91,308.62c.08-.09.19-.27.22-.26.21.11.14.21-.22.26Z"/><path class="cls-116" d="M1002.84,229.61l.6-2.91c.42.07.81,1.09,1.26,0s.54-1.09,1.18-.47c1,.95.91,1.66-.2,2.19C1004.75,228.83,1003.79,229.2,1002.84,229.61Z"/><path class="cls-75" d="M1003.08,225.06l-.53-.89Z"/><path class="cls-69" d="M1001.85,234.1c.07-.1.18-.28.21-.27.21.1.13.2-.22.25Z"/><path class="cls-26" d="M996.11,234.4l.53.91a.5.5,0,0,1,0,.52c-.09.15-.15.22-.21.21h0c-.6-.45-1.1-1.06-1.87-1.17h0A1.39,1.39,0,0,1,996.11,234.4Z"/><path class="cls-26" d="M992.51,232.66c.07,0,.18,0,.2.07a.32.32,0,0,1,0,.27c-.18.25-.31.21-.33-.11C992.37,232.82,992.46,232.74,992.51,232.66Z"/><path class="cls-26" d="M994.61,234.86c-.08.09-.19.27-.22.26-.21-.11-.13-.21.22-.26Z"/><path class="cls-26" d="M997.79,233.21c-.33.47-.56.42-.67-.14Z"/><path class="cls-26" d="M997.12,233.07l-.68-.14C996.78,232.46,997,232.52,997.12,233.07Z"/><path class="cls-80" d="M996.91,230.71c-.07.09-.18.27-.21.26-.22-.11-.14-.21.21-.26Z"/><path class="cls-75" d="M996.47,236c.06-.25.11-.49.17-.73C997.07,235.66,997,235.9,996.47,236Z"/></svg>